<svg width="29" height="28" viewBox="0 0 29 28" fill="none" xmlns="http://www.w3.org/2000/svg">
<g filter="url(#filter0_i)">
<ellipse cx="14.1666" cy="14.0002" rx="13.898" ry="13.7966" fill="#38B21A"/>
</g>
<path d="M22.2083 15.333V12.322C22.2083 12.1965 22.1667 12.0711 22.0417 11.9875C21.9583 11.9038 21.8333 11.862 21.7083 11.9038C20.8333 12.0711 20.0833 12.1965 19.3333 12.322C18.7083 12.4056 18.0833 12.5311 17.5417 12.6566C18.0833 11.7365 18.4167 10.6074 18.4167 9.43649C18.4167 6.42551 16.4583 4 14.0417 4C11.625 4 9.66667 6.42551 9.66667 9.43649C9.66667 10.6074 9.95833 11.7365 10.5417 12.6566C9.95833 12.5311 9.375 12.4475 8.75 12.322C8 12.1965 7.25 12.0711 6.375 11.9038C6.25 11.862 6.125 11.9038 6.04167 11.9875C5.95833 12.0711 5.875 12.1965 5.875 12.322V15.333C4.79167 15.3748 4 16.4203 4 17.7167C4 19.0131 4.79167 20.0585 5.79167 20.1004V21.3549C5.79167 21.564 5.91667 21.7313 6.125 21.7731C7 21.9404 7.83333 22.0659 8.54167 22.1913C10.7083 22.5259 12.25 22.8186 13.75 23.9059C13.9167 24.0314 14.0833 24.0314 14.25 23.9059C15.75 22.7768 17.2917 22.5259 19.4583 22.1913C20.1667 22.0659 21 21.9404 21.875 21.7731C22.0833 21.7313 22.2083 21.564 22.2083 21.3549V20.1004C23.2083 20.0585 24 19.0131 24 17.7167C24 16.4203 23.2083 15.3748 22.2083 15.333ZM14 4.79456C15.6667 4.79456 17.0833 6.34187 17.4583 8.34919C16.625 8.26555 16 7.59645 15.6667 7.01098C15.5 6.76006 15.25 6.59279 14.9583 6.63461C14.6667 6.63461 14.4167 6.80188 14.25 7.0528C13.6667 8.14009 11.625 8.47465 10.5 8.51647C10.8333 6.42551 12.25 4.79456 14 4.79456ZM5.875 19.3058C5.29167 19.3058 4.83333 18.5949 4.83333 17.7167C4.83333 16.8803 5.29167 16.1275 5.875 16.1275C6.29167 16.1694 6.66667 16.4203 6.875 17.3403V17.3821C6.95833 18.5949 6.54167 19.1385 5.875 19.3058ZM13.5833 22.8186C12.125 21.9404 10.5833 21.6895 8.66667 21.3968C8 21.2713 7.375 21.1877 6.625 21.0204V19.8913L6.66667 19.8495C7.91667 18.8876 8.04167 17.3821 7.20833 16.0021C7.20833 15.9185 6.66667 15.4584 6.625 15.5003V12.782C7.33333 12.9075 7.95833 13.0329 8.54167 13.1166C10.625 13.4511 12.125 13.702 13.5833 14.7057V22.8186ZM14 13.9948C13.2917 13.4929 12.5417 13.1584 11.75 12.9075C10.9167 12.0293 10.4583 10.7329 10.4583 9.35285C11.4167 9.31103 14.125 9.0183 14.9583 7.42917C15.625 8.51647 16.5417 9.10193 17.5417 9.14375C17.5417 9.18557 17.5417 9.26921 17.5417 9.31103C17.5417 10.6911 17.0833 11.9875 16.25 12.8657C15.4583 13.2002 14.7083 13.5348 14 13.9948ZM21.375 21.0622C20.625 21.1877 19.9583 21.3131 19.3333 21.4386C17.4583 21.7313 15.875 21.9822 14.4167 22.8604V14.7475C15.875 13.7439 17.375 13.4929 19.4583 13.1584C20.0417 13.0748 20.6667 12.9493 21.375 12.8238V15.5421C21.375 15.5421 21.3333 15.5421 21.3333 15.5839C21.2917 15.6257 20.875 15.9603 20.875 16.0021C20.5 16.5039 20.2917 17.0476 20.2917 17.7167C20.3333 18.7203 20.625 19.4731 21.4167 19.9749V21.0622H21.375ZM22.125 19.3058C21.7083 19.264 21.4167 19.0131 21.25 18.5531C20.7917 17.3821 21.375 16.2112 22.125 16.1694C22.7083 16.1694 23.1667 16.8803 23.1667 17.7585C23.1667 18.5531 22.7083 19.3058 22.125 19.3058Z" fill="white"/>
<defs>
<filter id="filter0_i" x="0.268555" y="0.203613" width="27.796" height="30.5982" filterUnits="userSpaceOnUse" color-interpolation-filters="sRGB">
<feFlood flood-opacity="0" result="BackgroundImageFix"/>
<feBlend mode="normal" in="SourceGraphic" in2="BackgroundImageFix" result="shape"/>
<feColorMatrix in="SourceAlpha" type="matrix" values="0 0 0 0 0 0 0 0 0 0 0 0 0 0 0 0 0 0 127 0" result="hardAlpha"/>
<feOffset dy="3.00498"/>
<feGaussianBlur stdDeviation="2.25373"/>
<feComposite in2="hardAlpha" operator="arithmetic" k2="-1" k3="1"/>
<feColorMatrix type="matrix" values="0 0 0 0 0 0 0 0 0 0 0 0 0 0 0 0 0 0 0.15 0"/>
<feBlend mode="normal" in2="shape" result="effect1_innerShadow"/>
</filter>
</defs>
</svg>
