<svg width="20" height="20" viewBox="0 0 20 20" fill="none" xmlns="http://www.w3.org/2000/svg">
<g>
<path d="M16.2727 10.0002C16.2727 10.2729 16.3636 10.6365 16.3636 10.9093C16.3636 12.8184 15.6364 14.5456 14.4545 15.8184C14.1818 15.0911 13.5455 14.5456 12.7273 14.5456H11.8182V11.8184C11.8182 11.2729 11.4545 10.9093 10.9091 10.9093H5.45455V9.09109H7.27273C7.81818 9.09109 8.18182 8.72745 8.18182 8.182V6.36381H10C11 6.36381 11.8182 5.54563 11.8182 4.54563V2.2729C11 2.00018 10 1.81836 9.09091 1.81836C4.09091 1.81836 0 5.90927 0 10.9093C0 15.9093 4.09091 20.0002 9.09091 20.0002C14.0909 20.0002 18.1818 15.9093 18.1818 10.9093C18.1818 10.6365 18.1818 10.2729 18.0909 10.0002H16.2727ZM8.18182 18.0911C4.63636 17.6365 1.81818 14.5456 1.81818 10.9093C1.81818 10.3638 1.90909 9.81836 2 9.2729L6.36364 13.6365V14.5456C6.36364 15.5456 7.18182 16.3638 8.18182 16.3638V18.0911Z" fill="white"/>
<path d="M19.0908 2.27273V2.72727C19.6362 2.72727 19.9999 3.09091 19.9999 3.63636V7.27273C19.9999 7.81818 19.6362 8.18182 19.0908 8.18182H14.5453C13.9999 8.18182 13.6362 7.81818 13.6362 7.27273V3.63636C13.6362 3.09091 13.9999 2.72727 14.5453 2.72727V2.27273C14.5453 1 15.5453 0 16.818 0C18.0908 0 19.0908 1 19.0908 2.27273Z" fill="#59CDFF"/>
<path d="M15.2725 2.27251V2.72705H18.3634V2.27251C18.3634 1.45432 17.6361 0.727051 16.8179 0.727051C15.5816 0.727051 15.2725 1.75735 15.2725 2.27251Z" fill="#4800A5"/>
</g>
<defs>
<clipPath id="clip0">
<rect width="20" height="20" fill="white"/>
</clipPath>
</defs>
</svg>
