<svg width="43" height="43" viewBox="0 0 43 43" fill="none" xmlns="http://www.w3.org/2000/svg">
<path d="M34.9864 21.5001C34.9864 22.0864 35.1818 22.8683 35.1818 23.4546C35.1818 27.5592 33.6182 31.2728 31.0773 34.0092C30.4909 32.4455 29.1227 31.2728 27.3636 31.2728H25.4091V25.4092C25.4091 24.2364 24.6273 23.4546 23.4545 23.4546H11.7273V19.5455H15.6364C16.8091 19.5455 17.5909 18.7637 17.5909 17.591V13.6819H21.5C23.65 13.6819 25.4091 11.9228 25.4091 9.77282V4.88645C23.65 4.30009 21.5 3.90918 19.5455 3.90918C8.79545 3.90918 0 12.7046 0 23.4546C0 34.2046 8.79545 43.0001 19.5455 43.0001C30.2955 43.0001 39.0909 34.2046 39.0909 23.4546C39.0909 22.8683 39.0909 22.0864 38.8955 21.5001H34.9864ZM17.5909 38.8955C9.96818 37.9183 3.90909 31.2728 3.90909 23.4546C3.90909 22.2819 4.10455 21.1092 4.3 19.9365L13.6818 29.3183V31.2728C13.6818 33.4228 15.4409 35.1819 17.5909 35.1819V38.8955Z" fill="#8946DF"/>
<path d="M41.0456 4.88588V5.86315C42.2184 5.86315 43.0002 6.64497 43.0002 7.81769V15.6359C43.0002 16.8086 42.2184 17.5904 41.0456 17.5904H31.2729C30.1002 17.5904 29.3184 16.8086 29.3184 15.6359V7.81769C29.3184 6.64497 30.1002 5.86315 31.2729 5.86315V4.88588C31.2729 2.14951 33.4229 -0.000488281 36.1593 -0.000488281C38.8956 -0.000488281 41.0456 2.14951 41.0456 4.88588Z" fill="#59CDFF"/>
<path d="M32.8359 4.88523V5.8625H39.4814V4.88523C39.4814 3.12614 37.9178 1.5625 36.1587 1.5625C33.5005 1.5625 32.8359 3.77765 32.8359 4.88523Z" fill="white"/>
</svg>
