<svg width="54" height="72" viewBox="0 0 54 72" fill="none" xmlns="http://www.w3.org/2000/svg">
<rect width="54" height="72" rx="5" fill="#4800A5"/>
<mask id="mask0" mask-type="alpha" maskUnits="userSpaceOnUse" x="0" y="0" width="54" height="72">
<rect width="54" height="72" rx="5" fill="#4800A5"/>
</mask>
<g mask="url(#mask0)">
<g opacity="0.1">
<path d="M39.2939 16.5534L35.2395 22.847C34.8425 23.4644 35.7934 24.0765 36.1904 23.4644L40.2448 17.1707C40.6419 16.5534 39.691 15.9413 39.2939 16.5534Z" stroke="white" stroke-miterlimit="10" stroke-linecap="round" stroke-linejoin="round"/>
<path d="M43.8969 9.40129L41.6868 12.8332C41.2897 13.4453 42.2406 14.0627 42.6377 13.4453L44.8477 10.0134C45.2448 9.4013 44.2939 8.7892 43.8969 9.40129Z" stroke="white" stroke-miterlimit="10" stroke-linecap="round" stroke-linejoin="round"/>
<path d="M50.7148 -1.18193L46.6604 5.11168C46.2634 5.72901 47.2143 6.34111 47.6113 5.72901L51.6657 -0.564606C52.0628 -1.18193 51.1066 -1.79403 50.7148 -1.18193Z" stroke="white" stroke-miterlimit="10" stroke-linecap="round" stroke-linejoin="round"/>
<path d="M6.87996 66.897L2.82561 73.1907C2.42853 73.8028 3.38465 74.4201 3.7765 73.8028L7.83085 67.5091C8.22793 66.897 7.27181 66.2849 6.87996 66.897Z" stroke="white" stroke-miterlimit="10" stroke-linecap="round" stroke-linejoin="round"/>
<path d="M11.4828 59.7452L9.27275 63.1771C8.87567 63.7944 9.82656 64.4065 10.2236 63.7944L12.4337 60.3625C12.8308 59.7452 11.8799 59.1331 11.4828 59.7452Z" stroke="white" stroke-miterlimit="10" stroke-linecap="round" stroke-linejoin="round"/>
<path d="M18.2958 49.1618L14.2415 55.4554C13.8444 56.0728 14.7953 56.6849 15.1924 56.0728L19.2415 49.7791C19.6438 49.1618 18.6929 48.5497 18.2958 49.1618Z" stroke="white" stroke-miterlimit="10" stroke-linecap="round" stroke-linejoin="round"/>
<path d="M21.812 13.8124L23.3899 21.1314C23.5466 21.8481 24.6542 21.6075 24.4975 20.8907L22.9197 13.5717C22.7629 12.855 21.6553 13.0956 21.812 13.8124Z" stroke="white" stroke-miterlimit="10" stroke-linecap="round" stroke-linejoin="round"/>
<path d="M20.02 5.49415L20.8821 9.48587C21.0336 10.2026 22.1465 9.96195 21.9897 9.24522L21.1277 5.2535C20.9709 4.542 19.8633 4.77742 20.02 5.49415Z" stroke="white" stroke-miterlimit="10" stroke-linecap="round" stroke-linejoin="round"/>
<path d="M17.3604 -6.81656L18.9382 0.502471C19.095 1.2192 20.2026 0.978549 20.0459 0.261818L18.468 -7.05721C18.3165 -7.76871 17.2089 -7.52806 17.3604 -6.81656Z" stroke="white" stroke-miterlimit="10" stroke-linecap="round" stroke-linejoin="round"/>
<path d="M34.44 72.3641L36.0178 79.6831C36.1746 80.3999 37.277 80.1592 37.1255 79.4425L35.5476 72.1235C35.3961 71.4067 34.2885 71.6474 34.44 72.3641Z" stroke="white" stroke-miterlimit="10" stroke-linecap="round" stroke-linejoin="round"/>
<path d="M32.648 64.0459L33.51 68.0376C33.6668 68.7544 34.7744 68.5137 34.6177 67.797L33.7556 63.8053C33.5988 63.0885 32.4912 63.3292 32.648 64.0459Z" stroke="white" stroke-miterlimit="10" stroke-linecap="round" stroke-linejoin="round"/>
<path d="M29.9937 51.7362L31.5715 59.0552C31.7283 59.7719 32.8359 59.5313 32.6792 58.8146L31.1013 51.4955C30.9446 50.7788 29.8369 51.0195 29.9937 51.7362Z" stroke="white" stroke-miterlimit="10" stroke-linecap="round" stroke-linejoin="round"/>
<path d="M7.51186 24.2488L13.7972 28.3085C14.4137 28.7061 15.025 27.7488 14.4137 27.3564L8.12837 23.2967C7.51186 22.8991 6.90057 23.8512 7.51186 24.2488Z" stroke="white" stroke-miterlimit="10" stroke-linecap="round" stroke-linejoin="round"/>
<path d="M0.369772 19.6401L3.79716 21.8531C4.41367 22.2507 5.02496 21.2986 4.41367 20.901L0.986284 18.6828C0.369772 18.2904 -0.241516 19.2425 0.369772 19.6401Z" stroke="white" stroke-miterlimit="10" stroke-linecap="round" stroke-linejoin="round"/>
<path d="M50.6472 52.0972L54.0746 54.3101C54.6859 54.7077 55.3024 53.7556 54.6859 53.358L51.2585 51.145C50.6472 50.7474 50.036 51.6996 50.6472 52.0972Z" stroke="white" stroke-miterlimit="10" stroke-linecap="round" stroke-linejoin="round"/>
<path d="M40.0773 45.2748L46.3626 49.3345C46.9791 49.7322 47.5904 48.78 46.9791 48.3824L40.6938 44.3174C40.0773 43.9251 39.466 44.8772 40.0773 45.2748Z" stroke="white" stroke-miterlimit="10" stroke-linecap="round" stroke-linejoin="round"/>
<path d="M4.7744 41.7544L12.0837 40.1744C12.7995 40.0175 12.5592 38.9084 11.8434 39.0653L4.53407 40.6453C3.81828 40.8022 4.05862 41.9113 4.7744 41.7544Z" stroke="white" stroke-miterlimit="10" stroke-linecap="round" stroke-linejoin="round"/>
<path d="M-3.53299 43.5483L0.453438 42.6851C1.16922 42.5281 0.928884 41.419 0.213103 41.576L-3.77333 42.4392C-4.48389 42.5962 -4.24877 43.7053 -3.53299 43.5483Z" stroke="white" stroke-miterlimit="10" stroke-linecap="round" stroke-linejoin="round"/>
<path d="M54.9419 30.9038L58.9283 30.0406C59.6441 29.8888 59.4038 28.7797 58.688 28.9315L54.7015 29.7947C53.9858 29.9516 54.2261 31.0607 54.9419 30.9038Z" stroke="white" stroke-miterlimit="10" stroke-linecap="round" stroke-linejoin="round"/>
<path d="M42.6479 33.561L49.9573 31.9811C50.6731 31.8293 50.4327 30.715 49.7169 30.872L42.4076 32.4519C41.6918 32.6089 41.9322 33.718 42.6479 33.561Z" stroke="white" stroke-miterlimit="10" stroke-linecap="round" stroke-linejoin="round"/>
<path d="M31.6765 13.5919L30.062 20.9004C29.9053 21.6172 31.0129 21.8578 31.1697 21.1463L32.7841 13.8325C32.9408 13.121 31.8332 12.8751 31.6765 13.5919Z" stroke="white" stroke-miterlimit="10" stroke-linecap="round" stroke-linejoin="round"/>
<path d="M33.5106 5.28468L32.6328 9.27116C32.4761 9.98266 33.5837 10.2285 33.7405 9.51705L34.6182 5.53056C34.7749 4.81383 33.6673 4.56795 33.5106 5.28468Z" stroke="white" stroke-miterlimit="10" stroke-linecap="round" stroke-linejoin="round"/>
<path d="M36.2219 -7.01553L34.6074 0.293014C34.4507 1.00974 35.5583 1.25039 35.7151 0.538897L37.3295 -6.77488C37.4862 -7.48114 36.3786 -7.72703 36.2219 -7.01553Z" stroke="white" stroke-miterlimit="10" stroke-linecap="round" stroke-linejoin="round"/>
<path d="M18.777 72.0814L17.1626 79.3952C17.0059 80.1067 18.1135 80.3526 18.2702 79.6411L19.8847 72.3273C20.0414 71.6158 18.9338 71.3699 18.777 72.0814Z" stroke="white" stroke-miterlimit="10" stroke-linecap="round" stroke-linejoin="round"/>
<path d="M20.6107 63.7733L19.7329 67.7598C19.5762 68.4765 20.6838 68.7172 20.8406 68.0057L21.7183 64.0192C21.875 63.3025 20.7674 63.0618 20.6107 63.7733Z" stroke="white" stroke-miterlimit="10" stroke-linecap="round" stroke-linejoin="round"/>
<path d="M23.3224 51.4796L21.708 58.7881C21.5513 59.5049 22.6589 59.7455 22.8157 59.034L24.4301 51.7255C24.5868 51.0087 23.4792 50.7628 23.3224 51.4796Z" stroke="white" stroke-miterlimit="10" stroke-linecap="round" stroke-linejoin="round"/>
<path d="M14.3307 17.1077L18.3537 23.417C18.7456 24.0344 19.7017 23.4223 19.3099 22.8049L15.2869 16.4956C14.895 15.8835 13.9389 16.4904 14.3307 17.1077Z" stroke="white" stroke-miterlimit="10" stroke-linecap="round" stroke-linejoin="round"/>
<path d="M9.75897 9.93557L11.9533 13.378C12.3452 13.9953 13.3013 13.3832 12.9094 12.7659L10.7151 9.32347C10.3232 8.71137 9.36711 9.32347 9.75897 9.93557Z" stroke="white" stroke-miterlimit="10" stroke-linecap="round" stroke-linejoin="round"/>
<path d="M2.99843 -0.679408L7.02144 5.62992C7.41329 6.24725 8.36941 5.63516 7.97756 5.01783L3.95455 -1.29151C3.55747 -1.90361 2.60136 -1.29674 2.99843 -0.679408Z" stroke="white" stroke-miterlimit="10" stroke-linecap="round" stroke-linejoin="round"/>
<path d="M46.5148 67.6028L50.5378 73.9122C50.9297 74.5295 51.8858 73.9174 51.4939 73.3001L47.4709 66.9855C47.0791 66.3734 46.123 66.9855 46.5148 67.6028Z" stroke="white" stroke-miterlimit="10" stroke-linecap="round" stroke-linejoin="round"/>
<path d="M41.943 60.4307L44.1374 63.8731C44.5293 64.4904 45.4854 63.8783 45.0935 63.261L42.8992 59.8186C42.5073 59.2013 41.5512 59.8134 41.943 60.4307Z" stroke="white" stroke-miterlimit="10" stroke-linecap="round" stroke-linejoin="round"/>
<path d="M35.1769 49.8157L39.1999 56.125C39.5918 56.7424 40.5479 56.1303 40.1561 55.5129L36.1331 49.2036C35.7412 48.5863 34.7851 49.1984 35.1769 49.8157Z" stroke="white" stroke-miterlimit="10" stroke-linecap="round" stroke-linejoin="round"/>
<path d="M4.55504 31.8761L11.8591 33.4926C12.5749 33.6496 12.8153 32.5405 12.1047 32.3835L4.8006 30.767C4.08482 30.61 3.83926 31.7191 4.55504 31.8761Z" stroke="white" stroke-miterlimit="10" stroke-linecap="round" stroke-linejoin="round"/>
<path d="M-3.74145 30.0401L0.239754 30.9243C0.955535 31.0812 1.19587 29.9721 0.485314 29.8152L-3.50112 28.931C-4.21167 28.7741 -4.45723 29.8832 -3.74145 30.0401Z" stroke="white" stroke-miterlimit="10" stroke-linecap="round" stroke-linejoin="round"/>
<path d="M54.6705 42.9575L58.6517 43.8364C59.3675 43.9933 59.6078 42.8842 58.8973 42.7273L54.9161 41.8484C54.2003 41.6914 53.9599 42.8005 54.6705 42.9575Z" stroke="white" stroke-miterlimit="10" stroke-linecap="round" stroke-linejoin="round"/>
<path d="M42.3923 40.2423L49.6912 41.8589C50.407 42.0158 50.6473 40.9067 49.9368 40.7498L42.6327 39.1332C41.9221 38.9762 41.6766 40.0853 42.3923 40.2423Z" stroke="white" stroke-miterlimit="10" stroke-linecap="round" stroke-linejoin="round"/>
<path d="M8.06613 49.2402L14.3671 45.2119C14.9836 44.8195 14.3723 43.8621 13.7558 44.2545L7.45484 48.2828C6.84355 48.6804 7.44962 49.6378 8.06613 49.2402Z" stroke="white" stroke-miterlimit="10" stroke-linecap="round" stroke-linejoin="round"/>
<path d="M0.903042 53.8174L4.34088 51.6201C4.95739 51.2277 4.34611 50.2703 3.72959 50.6627L0.291755 52.86C-0.319533 53.2576 0.28653 54.215 0.903042 53.8174Z" stroke="white" stroke-miterlimit="10" stroke-linecap="round" stroke-linejoin="round"/>
<path d="M51.3316 21.5908L54.7695 19.3935C55.386 19.0011 54.7747 18.0438 54.1582 18.4361L50.7203 20.6334C50.1038 21.031 50.7151 21.9884 51.3316 21.5908Z" stroke="white" stroke-miterlimit="10" stroke-linecap="round" stroke-linejoin="round"/>
<path d="M40.731 28.3662L47.032 24.3378C47.6485 23.9455 47.0372 22.9881 46.4207 23.3805L40.1197 27.4088C39.5032 27.8064 40.1145 28.7638 40.731 28.3662Z" stroke="white" stroke-miterlimit="10" stroke-linecap="round" stroke-linejoin="round"/>
<path d="M62.1048 0.842361C54.1685 8.78395 46.0075 16.4901 38.0712 24.4265C37.554 24.9444 38.3534 25.7448 38.8706 25.2269C46.8069 17.2853 54.9678 9.57915 62.9041 1.6428C63.4266 1.1301 62.622 0.324432 62.1048 0.842361Z" stroke="white" stroke-miterlimit="10" stroke-linecap="round" stroke-linejoin="round"/>
<path d="M15.6155 47.398C7.67921 55.3344 -0.481745 63.0405 -8.41804 70.9821C-8.93528 71.5001 -8.1359 72.3005 -7.61866 71.7826C0.317631 63.841 8.47858 56.1348 16.4149 48.1985C16.9321 47.6805 16.1327 46.8801 15.6155 47.398Z" stroke="white" stroke-miterlimit="10" stroke-linecap="round" stroke-linejoin="round"/>
<path d="M26.8489 -13.4509C26.8437 -2.21859 26.5145 9.00845 26.5093 20.2407C26.5093 20.9731 27.643 20.9731 27.643 20.2407C27.6483 9.00845 27.9774 -2.21859 27.9826 -13.4509C27.9826 -14.1833 26.8489 -14.1833 26.8489 -13.4509Z" stroke="white" stroke-miterlimit="10" stroke-linecap="round" stroke-linejoin="round"/>
<path d="M26.8489 52.3841C26.8437 63.6164 26.5145 74.8434 26.5093 86.0757C26.5093 86.8081 27.643 86.8081 27.643 86.0757C27.6483 74.8434 27.9774 63.6164 27.9826 52.3841C27.9826 51.6517 26.8489 51.6517 26.8489 52.3841Z" stroke="white" stroke-miterlimit="10" stroke-linecap="round" stroke-linejoin="round"/>
<path d="M-8.1778 1.4027C-0.246735 9.34951 7.44922 17.5213 15.3751 25.4681C15.8923 25.986 16.6917 25.1856 16.1744 24.6677C8.24337 16.7209 0.547417 8.54908 -7.37842 0.602265C-7.89567 0.0843357 -8.69504 0.884768 -8.1778 1.4027Z" stroke="white" stroke-miterlimit="10" stroke-linecap="round" stroke-linejoin="round"/>
<path d="M38.3116 47.9584C46.2427 55.9052 53.9386 64.077 61.8645 72.0238C62.3817 72.5417 63.1811 71.7413 62.6639 71.2233C54.7328 63.2765 47.0368 55.1047 39.111 47.1579C38.599 46.64 37.7996 47.4404 38.3116 47.9584Z" stroke="white" stroke-miterlimit="10" stroke-linecap="round" stroke-linejoin="round"/>
<path d="M-22.4514 36.7088C-11.234 36.714 -0.0218549 37.0436 11.1955 37.0488C11.927 37.0488 11.927 35.9136 11.1955 35.9136C-0.0218549 35.9083 -11.234 35.5788 -22.4514 35.5735C-23.1829 35.5735 -23.1829 36.7088 -22.4514 36.7088Z" stroke="white" stroke-miterlimit="10" stroke-linecap="round" stroke-linejoin="round"/>
<path d="M43.2962 36.7098C54.5135 36.715 65.7257 37.0446 76.9431 37.0498C77.6746 37.0498 77.6746 35.9146 76.9431 35.9146C65.7257 35.9093 54.5135 35.5797 43.2962 35.5745C42.5647 35.5745 42.5647 36.7098 43.2962 36.7098Z" stroke="white" stroke-miterlimit="10" stroke-linecap="round" stroke-linejoin="round"/>
<path d="M49.884 26.6603C46.0281 28.1356 42.0417 29.6685 38.1441 31.2275C37.9403 31.3112 37.8149 31.4891 37.8149 31.7036C37.8149 31.8919 37.9142 32.0803 38.0657 32.1849C38.2068 32.2791 38.374 32.2948 38.5464 32.2268C42.444 30.6677 46.4304 29.1401 50.2863 27.6595C54.1368 26.1842 58.1181 24.6566 62.0157 23.0976C62.2194 23.0139 62.3448 22.836 62.3448 22.6215C62.3448 22.4332 62.2456 22.2448 62.094 22.1402C61.953 22.046 61.7858 22.0303 61.6134 22.0983C57.7158 23.6574 53.7345 25.185 49.884 26.6603Z" stroke="white" stroke-miterlimit="10" stroke-linecap="round" stroke-linejoin="round"/>
<path d="M4.21516 44.966C0.359342 46.4465 -3.62187 47.9742 -7.51948 49.5332C-7.72324 49.6169 -7.84863 49.7948 -7.84863 50.0093C-7.84863 50.1976 -7.74936 50.3859 -7.59785 50.4906C-7.45678 50.5847 -7.28959 50.6004 -7.11718 50.5324C-3.22479 48.9734 0.756418 47.4458 4.60701 45.9705C8.46282 44.4899 12.4493 42.9623 16.3469 41.4033C16.5506 41.3195 16.676 41.1417 16.676 40.9272C16.676 40.7388 16.5768 40.5505 16.4252 40.4459C16.2842 40.3517 16.117 40.336 15.9446 40.404C12.047 41.9578 8.06575 43.4854 4.21516 44.966Z" stroke="white" stroke-miterlimit="10" stroke-linecap="round" stroke-linejoin="round"/>
<path d="M41.5089 1.92564C39.8579 5.78657 38.1181 9.68412 36.441 13.4561C34.7586 17.2333 33.0188 21.1361 31.3678 24.9971C31.3365 25.0703 31.3208 25.1435 31.3208 25.2116C31.3208 25.4888 31.5455 25.6772 31.7701 25.7242C32.0209 25.7766 32.2508 25.6562 32.3553 25.4156C34.0115 21.5494 35.7461 17.6466 37.4285 13.8746C39.1108 10.1027 40.8454 6.2051 42.4964 2.34417C42.5277 2.27092 42.5434 2.19768 42.5434 2.12967C42.5434 1.8524 42.3188 1.66406 42.0941 1.61698C41.8381 1.56989 41.6082 1.69022 41.5089 1.92564Z" stroke="white" stroke-miterlimit="10" stroke-linecap="round" stroke-linejoin="round"/>
<path d="M12.9822 70.7001C14.6332 66.8392 16.3731 62.9364 18.0554 59.1644C19.7378 55.3924 21.4723 51.4896 23.1286 47.6287C23.1599 47.5555 23.1756 47.4822 23.1756 47.4142C23.1756 47.1369 22.9509 46.9486 22.7263 46.9015C22.4755 46.8492 22.2456 46.9695 22.1411 47.2049C20.4849 51.0659 18.7503 54.9686 17.0679 58.7406C15.3856 62.5126 13.651 66.4154 11.9948 70.2763C11.9634 70.3496 11.9478 70.4228 11.9478 70.4908C11.9478 70.7681 12.1724 70.9564 12.3971 71.0035C12.6531 71.0558 12.883 70.9355 12.9822 70.7001Z" stroke="white" stroke-miterlimit="10" stroke-linecap="round" stroke-linejoin="round"/>
<path d="M13.4628 1.18219C13.2382 1.22404 13.0083 1.41761 13.0083 1.69489C13.0083 1.7629 13.024 1.83091 13.0501 1.89892C14.6071 5.79647 16.1327 9.78819 17.606 13.6439C19.0846 17.5048 20.6102 21.4966 22.1672 25.3993C22.2664 25.6452 22.4911 25.7655 22.7523 25.7185C22.977 25.6766 23.2069 25.483 23.2069 25.2058C23.2069 25.1378 23.1912 25.0697 23.1651 25.0017C21.6081 21.0989 20.0825 17.1072 18.6039 13.2463C17.1306 9.39059 15.605 5.4041 14.048 1.50132C13.9487 1.25543 13.7189 1.12987 13.4628 1.18219Z" stroke="white" stroke-miterlimit="10" stroke-linecap="round" stroke-linejoin="round"/>
<path d="M31.7387 46.9068C31.5141 46.9487 31.2842 47.1422 31.2842 47.4195C31.2842 47.4875 31.2999 47.5555 31.326 47.6236C32.8829 51.5263 34.4085 55.5128 35.8871 59.3737C37.3605 63.2294 38.8913 67.2212 40.4483 71.1239C40.5475 71.3698 40.7722 71.4902 41.0334 71.4431C41.2581 71.4012 41.488 71.2077 41.488 70.9304C41.488 70.8624 41.4723 70.7944 41.4462 70.7263C39.8892 66.8288 38.3636 62.8371 36.8903 58.9814C35.4117 55.1204 33.8861 51.1287 32.3291 47.2259C32.2246 46.9853 31.9947 46.8597 31.7387 46.9068Z" stroke="white" stroke-miterlimit="10" stroke-linecap="round" stroke-linejoin="round"/>
<path d="M16.6864 31.6727C16.6864 31.4634 16.5662 31.2856 16.3677 31.2019C12.5119 29.5487 8.61428 27.8066 4.84729 26.122C1.08029 24.4374 -2.81732 22.7005 -6.67313 21.0421C-6.84032 20.9688 -7.01274 20.9793 -7.15903 21.0787C-7.31577 21.1833 -7.41504 21.3717 -7.41504 21.56C-7.41504 21.7693 -7.29487 21.9471 -7.09633 22.0309C-3.24052 23.6893 0.657093 25.4262 4.42409 27.1107C8.19108 28.7953 12.0887 30.5322 15.9445 32.1906C16.1117 32.2639 16.2841 32.2534 16.4304 32.154C16.5871 32.0546 16.6864 31.8663 16.6864 31.6727Z" stroke="white" stroke-miterlimit="10" stroke-linecap="round" stroke-linejoin="round"/>
<path d="M37.8047 40.9533C37.8047 41.1625 37.9249 41.3404 38.1234 41.4241C41.9792 43.0773 45.8768 44.8194 49.6438 46.504C53.4108 48.1886 57.3084 49.9255 61.1642 51.5839C61.3314 51.6571 61.5038 51.6414 61.6501 51.5473C61.8069 51.4426 61.9061 51.2543 61.9061 51.066C61.9061 50.8567 61.786 50.6788 61.5874 50.5951C57.7316 48.9419 53.834 47.1998 50.067 45.5152C46.3 43.8306 42.4024 42.0938 38.5466 40.4353C38.3794 40.3621 38.207 40.3778 38.0607 40.472C37.904 40.5714 37.8047 40.7649 37.8047 40.9533Z" stroke="white" stroke-miterlimit="10" stroke-linecap="round" stroke-linejoin="round"/>
</g>
</g>
<path d="M10.6338 18.1572V26.6185C10.6338 31.1197 15.1638 34.7681 20.7503 34.7681V18.1572H10.6338ZM18.4974 32.7382C15.2606 31.9626 12.8921 29.5038 12.8921 26.6185V19.9203H18.4974V32.7382Z" fill="url(#paint0_linear)"/>
<path d="M33.3564 18.1572V34.7681C38.943 34.7681 43.473 31.1197 43.473 26.6185V18.1572H33.3564ZM35.6147 19.9203H41.2201V26.6185C41.2201 29.5038 38.8516 31.9501 35.6147 32.7382V19.9203Z" fill="url(#paint1_linear)"/>
<path d="M20.0273 55.0146H34.085C34.4915 55.0146 34.8812 55.1644 35.1686 55.431C35.456 55.6975 35.6174 56.0591 35.6174 56.4361V57.9997H18.4976V56.4361C18.4976 56.0595 18.6586 55.6984 18.9454 55.4319C19.2322 55.1654 19.6213 55.0153 20.0273 55.0146Z" fill="url(#paint2_linear)"/>
<path d="M28.6785 38.5732H25.4336V47.7876H28.6785V38.5732Z" fill="url(#paint3_linear)"/>
<path d="M38.4186 14.7559H15.6934V16.3967H38.4186V14.7559Z" fill="url(#paint4_linear)"/>
<path d="M37.1767 16.3965V28.4986C37.1767 34.945 32.6413 40.1669 27.0548 40.1669C21.4682 40.1669 16.9355 34.955 16.9355 28.4986V16.3965H37.1767Z" fill="url(#paint5_linear)"/>
<path d="M30.4932 47.7881H23.6216V49.7956H30.4932V47.7881Z" fill="url(#paint6_linear)"/>
<path d="M31.1438 49.7979H22.9683V55.0173H31.1438V49.7979Z" fill="url(#paint7_linear)"/>
<path d="M29.8938 51.4014H24.2212V53.4088H29.8938V51.4014Z" fill="url(#paint8_linear)"/>
<path d="M26.9469 27.2797L24.3445 28.9006C24.3225 28.9135 24.2969 28.9199 24.271 28.9191C24.245 28.9182 24.22 28.9101 24.1991 28.8958C24.1782 28.8816 24.1624 28.8618 24.1538 28.839C24.1452 28.8163 24.1442 28.7917 24.1509 28.7685L25.0085 25.978C25.0151 25.9549 25.0143 25.9306 25.0061 25.908C24.998 25.8854 24.983 25.8655 24.9628 25.8508L22.4975 24.0578C22.4764 24.0427 22.4609 24.0219 22.453 23.9983C22.4452 23.9747 22.4454 23.9494 22.4536 23.9259C22.4619 23.9024 22.4777 23.8819 22.4991 23.8671C22.5204 23.8523 22.5462 23.844 22.5728 23.8433L25.7048 23.7336C25.7302 23.733 25.7549 23.7253 25.7755 23.7115C25.7961 23.6977 25.8118 23.6785 25.8204 23.6563L26.8958 20.9281C26.9043 20.9049 26.9204 20.8848 26.9418 20.8706C26.9633 20.8563 26.989 20.8486 27.0154 20.8486C27.0418 20.8486 27.0675 20.8563 27.089 20.8706C27.1105 20.8848 27.1266 20.9049 27.1351 20.9281L28.2104 23.6563C28.2191 23.6785 28.2347 23.6977 28.2554 23.7115C28.276 23.7253 28.3006 23.733 28.326 23.7336L31.458 23.8408C31.4847 23.8415 31.5104 23.8498 31.5318 23.8646C31.5531 23.8794 31.569 23.8999 31.5772 23.9234C31.5855 23.9469 31.5857 23.9722 31.5778 23.9958C31.57 24.0194 31.5544 24.0402 31.5333 24.0553L29.068 25.8483C29.0476 25.8628 29.0323 25.8827 29.0242 25.9054C29.016 25.9281 29.0154 25.9525 29.0223 25.9755L29.8799 28.771C29.8867 28.7942 29.8857 28.8188 29.8771 28.8415C29.8685 28.8643 29.8527 28.8841 29.8318 28.8983C29.8109 28.9126 29.7858 28.9207 29.7599 28.9216C29.7339 28.9224 29.7083 28.916 29.6864 28.9031L27.084 27.2822C27.0638 27.2696 27.0401 27.2626 27.0158 27.2622C26.9915 27.2617 26.9676 27.2678 26.9469 27.2797Z" fill="url(#paint9_linear)"/>
<path d="M27.0172 21.1943L28.0953 23.92L31.2246 24.0272L28.762 25.8202L29.6169 28.6157L27.0172 26.9948L24.4175 28.6157L25.2751 25.8202L22.8125 24.0272L25.9418 23.92L27.0172 21.1943Z" fill="url(#paint10_linear)"/>
<path d="M23.9741 31.9127L24.9151 31.5187L24.5468 30.5212C24.8473 30.5977 25.1061 30.7755 25.2726 31.0199C25.8103 31.8104 26.641 31.8279 27.4933 31.8179C27.6351 31.8068 27.7755 31.7834 27.9127 31.7481C28.1026 31.717 28.2837 31.65 28.4446 31.5514C28.6056 31.4527 28.7429 31.3244 28.8482 31.1745C28.9349 31.0163 29.0554 30.8761 29.2024 30.7625C29.3493 30.6489 29.5197 30.5642 29.7032 30.5137L29.2569 31.4887L30.3968 31.8104C30.2159 31.8995 30.0207 31.9609 29.8188 31.9925C29.4998 32.0008 29.182 31.9516 28.8832 31.8478C28.4503 31.6633 28.117 31.8478 27.746 32.0049C27.9745 32.0723 28.203 32.1446 28.4315 32.2019C28.5767 32.2393 28.6332 32.3042 28.5686 32.4513C28.5041 32.5984 28.453 32.6658 28.2729 32.5785C28.0121 32.4527 27.7426 32.3427 27.4664 32.2493C27.3294 32.1971 27.1786 32.184 27.0335 32.2119C26.7705 32.3075 26.5145 32.4191 26.2673 32.5461C25.9259 32.7032 25.9286 32.7032 25.7619 32.3291L26.6357 32.0523V31.9975C26.1437 31.9152 25.6893 31.586 25.1517 31.9625C24.9731 32.066 24.7648 32.1166 24.5545 32.1077C24.3442 32.0988 24.1418 32.0308 23.9741 31.9127Z" fill="url(#paint11_linear)"/>
<path d="M23.7155 30.0527C24.2855 30.3595 24.4279 30.9006 24.6995 31.4093C24.0731 31.4767 23.4762 31.8732 22.8633 31.3345L23.9386 31.0851L23.7155 30.0527Z" fill="url(#paint12_linear)"/>
<path d="M32.3161 30.3896C32.0697 30.5765 31.7806 30.7088 31.4709 30.7767C31.1611 30.8445 30.8388 30.846 30.5283 30.7812C30.7622 30.2824 30.8187 29.7064 31.3913 29.3896L31.2703 30.2176L32.3161 30.3896Z" fill="url(#paint13_linear)"/>
<path d="M29.5415 31.3289C29.8103 30.8775 29.8937 30.3314 30.4663 30.082L30.2996 31.0571L31.2513 31.2441C30.8319 31.6356 30.3453 31.6705 29.5415 31.3289Z" fill="url(#paint14_linear)"/>
<path d="M21.96 30.5486L23.0353 30.4389L22.8633 29.4414C23.5273 29.7456 23.4628 30.3716 23.7209 30.8579C23.1052 30.8703 22.4627 31.0998 21.96 30.5486Z" fill="url(#paint15_linear)"/>
<path d="M33.0069 29.4068C32.6843 29.9379 32.23 30.2147 31.5283 30.0402C31.7165 29.5414 31.6332 28.9753 32.1144 28.5215L32.2407 29.519L33.0069 29.4068Z" fill="url(#paint16_linear)"/>
<path d="M21.1968 29.5388L22.1055 29.666L22.1942 28.7607C22.6889 29.1847 22.5813 29.7582 22.8098 30.2296C22.2614 30.3193 21.4441 29.9852 21.1968 29.5388Z" fill="url(#paint17_linear)"/>
<path d="M21.3873 26.9902C21.6911 27.5314 21.519 28.0326 21.3012 28.5488C20.8146 28.287 20.2259 28.1448 20.1855 27.4316L21.0163 27.8406L21.3873 26.9902Z" fill="url(#paint18_linear)"/>
<path d="M31.2325 21.621L31.9826 21.8255L32.1143 20.7881H32.1815C32.367 21.2145 32.6171 21.6235 32.5176 22.1197C32.4827 22.2968 32.4262 22.4015 32.1977 22.3317C32.0283 22.2769 31.8401 22.2744 31.66 22.2195C31.5298 22.1743 31.4183 22.0921 31.3415 21.9846C31.2647 21.8771 31.2266 21.7498 31.2325 21.621Z" fill="url(#paint19_linear)"/>
<path d="M33.6655 26.4489C33.2643 26.0154 33.0634 25.4527 33.1063 24.8828L33.7112 25.606L34.3026 25.0324C34.3323 25.2991 34.2896 25.5684 34.1783 25.8158C34.067 26.0632 33.8907 26.2809 33.6655 26.4489Z" fill="url(#paint20_linear)"/>
<path d="M23.0007 21.7932C22.7319 22.3368 22.1942 22.4241 21.6565 22.5114C21.5367 21.976 21.6055 21.4192 21.8528 20.9229C22.1028 21.2296 22.0974 21.5737 22.1216 21.9403L23.0007 21.7932Z" fill="url(#paint21_linear)"/>
<path d="M20.9518 23.5434L21.7046 23.3339C21.6185 23.6631 21.14 24.0821 20.5808 24.3314C20.2501 23.8127 20.3415 23.294 20.5808 22.708L20.9518 23.5434Z" fill="url(#paint22_linear)"/>
<path d="M21.4144 28.7205L21.7531 27.8477C21.849 27.925 21.9185 28.0265 21.9534 28.1398C21.9882 28.2532 21.9868 28.3734 21.9494 28.4861C21.8983 28.7803 21.8418 29.0721 21.7881 29.3639C21.288 29.2217 20.7477 29.0746 20.4277 28.6157L20.4573 28.5409L21.4144 28.7205Z" fill="url(#paint23_linear)"/>
<path d="M19.8603 26.2269L20.5969 26.778L21.1346 26C21.4357 26.6284 20.8657 27.0274 20.7878 27.5511C20.1291 27.0399 19.8065 26.808 19.8603 26.2269Z" fill="url(#paint24_linear)"/>
<path d="M32.394 23.0701L33.2248 23.2546L33.4855 22.4541C33.7167 22.9903 33.9748 23.4815 33.5528 24.0077C33.1656 23.696 32.5285 23.6885 32.394 23.0701Z" fill="url(#paint25_linear)"/>
<path d="M20.4358 25.4271C20.2508 25.2163 20.1213 24.9683 20.0579 24.7029C19.9944 24.4375 19.9986 24.1621 20.0702 23.8984L20.5218 24.5643L21.3875 24.1079C21.3096 24.7538 20.7181 24.9807 20.4358 25.4271Z" fill="url(#paint26_linear)"/>
<path d="M32.8106 23.8779L33.6816 24.3542L34.0069 23.8555C34.1405 24.0788 34.1866 24.3381 34.1376 24.5895C34.0887 24.8408 33.9475 25.0687 33.7381 25.2345C33.4881 24.7557 32.9047 24.4864 32.7783 23.9403L32.8106 23.8779Z" fill="url(#paint27_linear)"/>
<path d="M34.0634 27.1948C34.0742 27.4415 33.9906 27.6837 33.8272 27.8787C33.6638 28.0736 33.4313 28.2085 33.1708 28.2596C33.1368 28.2664 33.1016 28.2657 33.0679 28.2575C33.0343 28.2492 33.0032 28.2337 32.9773 28.2122C32.7652 27.8016 32.7232 27.333 32.859 26.8955L33.3402 27.6436L34.0634 27.1948Z" fill="url(#paint28_linear)"/>
<path d="M33.827 28.3469C33.5366 28.898 33.0204 29.0302 32.5231 29.2222C32.4102 28.721 32.222 28.2222 32.5688 27.6836L32.8672 28.5439L33.827 28.3469Z" fill="url(#paint29_linear)"/>
<path d="M19.7988 25.2293L20.4199 25.6657L21.143 25.1221C21.2076 25.6732 20.7129 26.0398 20.5005 26.5485C20.1295 26.1645 19.8176 25.7929 19.7988 25.2293Z" fill="url(#paint30_linear)"/>
<path d="M21.2183 21.915C21.2832 22.0405 21.3398 22.1696 21.3876 22.3016C21.417 22.4382 21.4368 22.5765 21.4468 22.7155L22.3313 22.6332C22.0624 23.117 21.5248 23.132 21.0677 23.334C20.9075 22.8758 20.9334 22.3792 21.1403 21.9375L21.2183 21.915Z" fill="url(#paint31_linear)"/>
<path d="M32.996 25.9531L33.6358 26.7436L34.2918 26.1027C34.3537 26.6214 34.023 26.9606 33.4557 27.3646C33.1734 26.9357 32.8777 26.5142 32.996 25.9531Z" fill="url(#paint32_linear)"/>
<path d="M31.6841 22.4587L32.6116 22.526L32.8562 21.6357C33.1681 22.3465 33.1977 22.6332 32.9933 22.9799C32.5713 22.8078 31.9825 23.0223 31.6841 22.4587Z" fill="url(#paint33_linear)"/>
<path d="M30.875 20.4443C31.1588 20.5146 31.41 20.6692 31.5902 20.8845C31.7703 21.0998 31.8694 21.3639 31.8724 21.6363C31.2541 21.5541 31.0659 21.1675 30.875 20.4443Z" fill="url(#paint34_linear)"/>
<path d="M22.2854 21.7381C22.2596 21.5946 22.2653 21.4477 22.3024 21.3063C22.3394 21.1649 22.407 21.0319 22.5009 20.9154C22.5949 20.7988 22.7133 20.7012 22.8491 20.6283C22.9849 20.5554 23.1351 20.5088 23.2909 20.4912C22.9629 20.9176 22.9387 21.5361 22.2854 21.7381Z" fill="url(#paint35_linear)"/>
<defs>
<linearGradient id="paint0_linear" x1="11.2333" y1="29.9377" x2="22.3292" y2="19.8986" gradientUnits="userSpaceOnUse">
<stop stop-color="#FFB139"/>
<stop offset="1" stop-color="#FF9B00"/>
</linearGradient>
<linearGradient id="paint1_linear" x1="4883.84" y1="1029.43" x2="4281.79" y2="721.706" gradientUnits="userSpaceOnUse">
<stop stop-color="#FFB139"/>
<stop offset="1" stop-color="#FF9B00"/>
</linearGradient>
<linearGradient id="paint2_linear" x1="18.4976" y1="56.5084" x2="35.6148" y2="56.5084" gradientUnits="userSpaceOnUse">
<stop stop-color="#FFB855"/>
<stop offset="1" stop-color="#FFC315"/>
</linearGradient>
<linearGradient id="paint3_linear" x1="182.65" y1="1186.59" x2="311.204" y2="1148.61" gradientUnits="userSpaceOnUse">
<stop stop-color="#FFB139"/>
<stop offset="1" stop-color="#FF9B00"/>
</linearGradient>
<linearGradient id="paint4_linear" x1="803.578" y1="56.5328" x2="818.618" y2="-118.256" gradientUnits="userSpaceOnUse">
<stop stop-color="#FFB139"/>
<stop offset="1" stop-color="#FF9B00"/>
</linearGradient>
<linearGradient id="paint5_linear" x1="16.9087" y1="33.4462" x2="36.5385" y2="15.6901" gradientUnits="userSpaceOnUse">
<stop stop-color="#FFC039"/>
<stop offset="1" stop-color="#FFAF15"/>
</linearGradient>
<linearGradient id="paint6_linear" x1="378.197" y1="337.747" x2="402.223" y2="268.771" gradientUnits="userSpaceOnUse">
<stop stop-color="#FFB139"/>
<stop offset="1" stop-color="#FF9B00"/>
</linearGradient>
<linearGradient id="paint7_linear" x1="23.2721" y1="55.3514" x2="30.3646" y2="48.9357" gradientUnits="userSpaceOnUse">
<stop stop-color="#764239"/>
<stop offset="1" stop-color="#8E4F2E"/>
</linearGradient>
<linearGradient id="paint8_linear" x1="324.357" y1="368.26" x2="348.223" y2="311.669" gradientUnits="userSpaceOnUse">
<stop stop-color="#FFC039"/>
<stop offset="1" stop-color="#FFAF15"/>
</linearGradient>
<linearGradient id="paint9_linear" x1="23.6724" y1="28.3221" x2="30.2181" y2="22.4007" gradientUnits="userSpaceOnUse">
<stop stop-color="#FFA339"/>
<stop offset="1" stop-color="#FF9600"/>
</linearGradient>
<linearGradient id="paint10_linear" x1="23.9443" y1="28.0896" x2="29.9684" y2="22.6382" gradientUnits="userSpaceOnUse">
<stop stop-color="#FFD655"/>
<stop offset="1" stop-color="#FFC315"/>
</linearGradient>
<linearGradient id="paint11_linear" x1="23.9741" y1="31.5885" x2="30.3968" y2="31.5885" gradientUnits="userSpaceOnUse">
<stop stop-color="#FF8739"/>
<stop offset="1" stop-color="#FF8D00"/>
</linearGradient>
<linearGradient id="paint12_linear" x1="106.392" y1="130.645" x2="118.933" y2="130.645" gradientUnits="userSpaceOnUse">
<stop stop-color="#FF8739"/>
<stop offset="1" stop-color="#FF8D00"/>
</linearGradient>
<linearGradient id="paint13_linear" x1="162.79" y1="117.977" x2="174.714" y2="117.977" gradientUnits="userSpaceOnUse">
<stop stop-color="#FF8739"/>
<stop offset="1" stop-color="#FF8D00"/>
</linearGradient>
<linearGradient id="paint14_linear" x1="149.794" y1="125.474" x2="160.669" y2="125.474" gradientUnits="userSpaceOnUse">
<stop stop-color="#FF8739"/>
<stop offset="1" stop-color="#FF8D00"/>
</linearGradient>
<linearGradient id="paint15_linear" x1="96.1474" y1="120.671" x2="107.699" y2="120.671" gradientUnits="userSpaceOnUse">
<stop stop-color="#FF8739"/>
<stop offset="1" stop-color="#FF8D00"/>
</linearGradient>
<linearGradient id="paint16_linear" x1="146.447" y1="120.18" x2="154.58" y2="120.18" gradientUnits="userSpaceOnUse">
<stop stop-color="#FF8739"/>
<stop offset="1" stop-color="#FF8D00"/>
</linearGradient>
<linearGradient id="paint17_linear" x1="84.5737" y1="116.478" x2="94.2843" y2="116.478" gradientUnits="userSpaceOnUse">
<stop stop-color="#FF8739"/>
<stop offset="1" stop-color="#FF8D00"/>
</linearGradient>
<linearGradient id="paint18_linear" x1="68.6355" y1="108.333" x2="75.5726" y2="108.333" gradientUnits="userSpaceOnUse">
<stop stop-color="#FF8739"/>
<stop offset="1" stop-color="#FF8D00"/>
</linearGradient>
<linearGradient id="paint19_linear" x1="131.459" y1="63.5725" x2="137.83" y2="63.5725" gradientUnits="userSpaceOnUse">
<stop stop-color="#FF8739"/>
<stop offset="1" stop-color="#FF8D00"/>
</linearGradient>
<linearGradient id="paint20_linear" x1="134.309" y1="93.3985" x2="139.783" y2="93.3985" gradientUnits="userSpaceOnUse">
<stop stop-color="#FF8739"/>
<stop offset="1" stop-color="#FF8D00"/>
</linearGradient>
<linearGradient id="paint21_linear" x1="78.7706" y1="65.2583" x2="86.101" y2="65.2583" gradientUnits="userSpaceOnUse">
<stop stop-color="#FF8739"/>
<stop offset="1" stop-color="#FF8D00"/>
</linearGradient>
<linearGradient id="paint22_linear" x1="68.832" y1="79.6742" x2="75.4995" y2="79.6742" gradientUnits="userSpaceOnUse">
<stop stop-color="#FF8739"/>
<stop offset="1" stop-color="#FF8D00"/>
</linearGradient>
<linearGradient id="paint23_linear" x1="76.9231" y1="112.042" x2="85.8091" y2="112.042" gradientUnits="userSpaceOnUse">
<stop stop-color="#FF8739"/>
<stop offset="1" stop-color="#FF8D00"/>
</linearGradient>
<linearGradient id="paint24_linear" x1="66.7492" y1="100.81" x2="73.7493" y2="100.81" gradientUnits="userSpaceOnUse">
<stop stop-color="#FF8739"/>
<stop offset="1" stop-color="#FF8D00"/>
</linearGradient>
<linearGradient id="paint25_linear" x1="144.425" y1="75.2611" x2="151.512" y2="75.2611" gradientUnits="userSpaceOnUse">
<stop stop-color="#FF8739"/>
<stop offset="1" stop-color="#FF8D00"/>
</linearGradient>
<linearGradient id="paint26_linear" x1="67.9364" y1="84.6325" x2="74.9318" y2="84.6325" gradientUnits="userSpaceOnUse">
<stop stop-color="#FF8739"/>
<stop offset="1" stop-color="#FF8D00"/>
</linearGradient>
<linearGradient id="paint27_linear" x1="146.246" y1="77.9828" x2="153.331" y2="77.9828" gradientUnits="userSpaceOnUse">
<stop stop-color="#FF8739"/>
<stop offset="1" stop-color="#FF8D00"/>
</linearGradient>
<linearGradient id="paint28_linear" x1="138.522" y1="97.2748" x2="144.645" y2="97.2748" gradientUnits="userSpaceOnUse">
<stop stop-color="#FF8739"/>
<stop offset="1" stop-color="#FF8D00"/>
</linearGradient>
<linearGradient id="paint29_linear" x1="150.165" y1="112.201" x2="158.093" y2="112.201" gradientUnits="userSpaceOnUse">
<stop stop-color="#FF8739"/>
<stop offset="1" stop-color="#FF8D00"/>
</linearGradient>
<linearGradient id="paint30_linear" x1="65.8193" y1="88.4696" x2="72.5961" y2="88.4696" gradientUnits="userSpaceOnUse">
<stop stop-color="#FF8739"/>
<stop offset="1" stop-color="#FF8D00"/>
</linearGradient>
<linearGradient id="paint31_linear" x1="73.5135" y1="66.6969" x2="80.4599" y2="66.6969" gradientUnits="userSpaceOnUse">
<stop stop-color="#FF8739"/>
<stop offset="1" stop-color="#FF8D00"/>
</linearGradient>
<linearGradient id="paint32_linear" x1="143.463" y1="93.3222" x2="150.073" y2="93.3222" gradientUnits="userSpaceOnUse">
<stop stop-color="#FF8739"/>
<stop offset="1" stop-color="#FF8D00"/>
</linearGradient>
<linearGradient id="paint33_linear" x1="144.385" y1="62.3494" x2="152.1" y2="62.3494" gradientUnits="userSpaceOnUse">
<stop stop-color="#FF8739"/>
<stop offset="1" stop-color="#FF8D00"/>
</linearGradient>
<linearGradient id="paint34_linear" x1="105.969" y1="50.483" x2="109.68" y2="50.483" gradientUnits="userSpaceOnUse">
<stop stop-color="#FF8739"/>
<stop offset="1" stop-color="#FF8D00"/>
</linearGradient>
<linearGradient id="paint35_linear" x1="66.4831" y1="52.274" x2="70.3539" y2="52.274" gradientUnits="userSpaceOnUse">
<stop stop-color="#FF8739"/>
<stop offset="1" stop-color="#FF8D00"/>
</linearGradient>
</defs>
</svg>
