<svg width="844" height="424" viewBox="0 0 844 424" fill="none" xmlns="http://www.w3.org/2000/svg">
<mask id="mask0" mask-type="alpha" maskUnits="userSpaceOnUse" x="0" y="0" width="844" height="424">
<path d="M0 30C0 13.4315 13.4315 0 30 0H814C830.569 0 844 13.4315 844 30V394C844 410.569 830.569 424 814 424H30C13.4315 424 0 410.569 0 394V30Z" fill="#4900A5"/>
</mask>
<g>
<g opacity="0.2">
<path d="M529.528 33.4336L492.859 90.3552C489.268 95.9385 497.868 101.475 501.459 95.9386L538.128 39.0169C541.72 33.4336 533.119 27.8976 529.528 33.4336Z" stroke="#B07CF4" stroke-width="4" stroke-miterlimit="10" stroke-linecap="round" stroke-linejoin="round"/>
<path d="M571.158 -31.2479L551.17 -0.208334C547.579 5.32769 556.179 10.9111 559.77 5.32772L579.758 -25.7118C583.35 -31.2479 574.749 -36.7839 571.158 -31.2479Z" stroke="#B07CF4" stroke-width="4" stroke-miterlimit="10" stroke-linecap="round" stroke-linejoin="round"/>
<path d="M277.996 424.078L258.008 455.118C254.416 460.701 263.017 466.237 266.608 460.701L286.596 429.662C290.188 424.078 281.587 418.542 277.996 424.078Z" stroke="#B07CF4" stroke-width="4" stroke-miterlimit="10" stroke-linecap="round" stroke-linejoin="round"/>
<path d="M339.615 328.356L302.946 385.278C299.355 390.861 307.955 396.397 311.546 390.861L348.168 333.94C351.807 328.356 343.206 322.82 339.615 328.356Z" stroke="#B07CF4" stroke-width="4" stroke-miterlimit="10" stroke-linecap="round" stroke-linejoin="round"/>
<path d="M371.417 8.64042L385.688 74.8361C387.106 81.3185 397.123 79.1419 395.706 72.6595L381.435 6.46388C380.017 -0.018474 370 2.15807 371.417 8.64042Z" stroke="#B07CF4" stroke-width="4" stroke-miterlimit="10" stroke-linecap="round" stroke-linejoin="round"/>
<path d="M445.416 351.637L459.687 417.832C461.105 424.315 471.122 422.138 469.705 415.656L455.434 349.46C454.016 342.978 443.999 345.154 445.416 351.637Z" stroke="#B07CF4" stroke-width="4" stroke-miterlimit="10" stroke-linecap="round" stroke-linejoin="round"/>
<path d="M242.084 103.037L298.93 139.754C304.506 143.35 310.035 134.691 304.506 131.143L247.66 94.425C242.084 90.829 236.555 99.4406 242.084 103.037Z" stroke="#B07CF4" stroke-width="4" stroke-miterlimit="10" stroke-linecap="round" stroke-linejoin="round"/>
<path d="M177.488 61.3504L208.487 81.3651C214.062 84.9612 219.591 76.3496 214.062 72.7536L183.064 52.6914C177.488 49.1427 171.959 57.7543 177.488 61.3504Z" stroke="#B07CF4" stroke-width="4" stroke-miterlimit="10" stroke-linecap="round" stroke-linejoin="round"/>
<path d="M81.8934 -0.396948L138.74 36.3206C144.316 39.9166 149.844 31.2577 144.316 27.7089L87.4693 -9.00857C81.8934 -12.6046 76.3647 -3.94568 81.8934 -0.396948Z" stroke="#B07CF4" stroke-width="4" stroke-miterlimit="10" stroke-linecap="round" stroke-linejoin="round"/>
<path d="M696.806 396.587L753.653 433.305C759.181 436.901 764.757 428.289 759.229 424.693L702.382 387.975C696.806 384.379 691.278 393.038 696.806 396.587Z" stroke="#B07CF4" stroke-width="4" stroke-miterlimit="10" stroke-linecap="round" stroke-linejoin="round"/>
<path d="M632.21 354.901L663.208 374.916C668.737 378.512 674.313 369.9 668.737 366.304L637.739 346.29C632.21 342.694 626.681 351.305 632.21 354.901Z" stroke="#B07CF4" stroke-width="4" stroke-miterlimit="10" stroke-linecap="round" stroke-linejoin="round"/>
<path d="M536.616 293.2L593.462 329.918C599.038 333.514 604.567 324.902 599.038 321.306L542.192 284.541C536.616 280.993 531.087 289.604 536.616 293.2Z" stroke="#B07CF4" stroke-width="4" stroke-miterlimit="10" stroke-linecap="round" stroke-linejoin="round"/>
<path d="M217.323 261.357L283.431 247.067C289.904 245.648 287.731 235.617 281.257 237.036L215.149 251.326C208.675 252.745 210.849 262.776 217.323 261.357Z" stroke="#B07CF4" stroke-width="4" stroke-miterlimit="10" stroke-linecap="round" stroke-linejoin="round"/>
<path d="M142.189 277.586L178.244 269.779C184.718 268.36 182.544 258.329 176.07 259.748L140.016 267.555C133.589 268.975 135.716 279.006 142.189 277.586Z" stroke="#B07CF4" stroke-width="4" stroke-miterlimit="10" stroke-linecap="round" stroke-linejoin="round"/>
<path d="M31.001 301.67L97.109 287.333C103.583 285.961 101.409 275.93 94.9353 277.302L28.8274 291.639C22.4009 293.011 24.5745 303.042 31.001 301.67Z" stroke="#B07CF4" stroke-width="4" stroke-miterlimit="10" stroke-linecap="round" stroke-linejoin="round"/>
<path d="M746.139 146.993L812.247 132.704C818.721 131.332 816.547 121.301 810.074 122.673L744.013 136.962C737.539 138.335 739.713 148.366 746.139 146.993Z" stroke="#B07CF4" stroke-width="4" stroke-miterlimit="10" stroke-linecap="round" stroke-linejoin="round"/>
<path d="M671.052 163.222L707.107 155.415C713.581 154.043 711.407 144.012 704.933 145.384L668.878 153.191C662.405 154.611 664.578 164.642 671.052 163.222Z" stroke="#B07CF4" stroke-width="4" stroke-miterlimit="10" stroke-linecap="round" stroke-linejoin="round"/>
<path d="M559.865 187.259L625.973 172.97C632.446 171.598 630.273 161.519 623.799 162.939L557.691 177.228C551.217 178.648 553.391 188.679 559.865 187.259Z" stroke="#B07CF4" stroke-width="4" stroke-miterlimit="10" stroke-linecap="round" stroke-linejoin="round"/>
<path d="M460.632 6.65263L446.031 72.7537C444.613 79.2361 454.631 81.4126 456.048 74.9776L470.65 8.82923C472.067 2.3942 462.05 0.17028 460.632 6.65263Z" stroke="#B07CF4" stroke-width="4" stroke-miterlimit="10" stroke-linecap="round" stroke-linejoin="round"/>
<path d="M385.073 349.318L370.472 415.419C369.054 421.901 379.072 424.078 380.49 417.643L395.091 351.542C396.509 345.059 386.491 342.835 385.073 349.318Z" stroke="#B07CF4" stroke-width="4" stroke-miterlimit="10" stroke-linecap="round" stroke-linejoin="round"/>
<path d="M303.75 38.4497L340.136 95.5134C343.68 101.097 352.327 95.5607 348.783 89.9774L312.398 32.9137C308.854 27.3776 300.206 32.8664 303.75 38.4497Z" stroke="#B07CF4" stroke-width="4" stroke-miterlimit="10" stroke-linecap="round" stroke-linejoin="round"/>
<path d="M262.403 -26.4216L282.249 4.71262C285.793 10.296 294.441 4.75996 290.897 -0.823381L271.05 -31.9576C267.506 -37.4936 258.859 -31.9576 262.403 -26.4216Z" stroke="#B07CF4" stroke-width="4" stroke-miterlimit="10" stroke-linecap="round" stroke-linejoin="round"/>
<path d="M553.486 430.277L573.332 461.411C576.876 466.994 585.524 461.458 581.98 455.875L562.133 424.741C558.589 419.157 549.942 424.693 553.486 430.277Z" stroke="#B07CF4" stroke-width="4" stroke-miterlimit="10" stroke-linecap="round" stroke-linejoin="round"/>
<path d="M492.292 334.271L528.678 391.335C532.222 396.918 540.869 391.382 537.325 385.799L500.94 328.735C497.396 323.152 488.748 328.688 492.292 334.271Z" stroke="#B07CF4" stroke-width="4" stroke-miterlimit="10" stroke-linecap="round" stroke-linejoin="round"/>
<path d="M215.338 172.023L281.399 186.644C287.873 188.064 290.046 178.033 283.62 176.613L217.559 161.992C211.085 160.573 208.864 170.604 215.338 172.023Z" stroke="#B07CF4" stroke-width="4" stroke-miterlimit="10" stroke-linecap="round" stroke-linejoin="round"/>
<path d="M140.3 155.415L176.307 163.412C182.781 164.831 184.954 154.8 178.528 153.381L142.473 145.384C136.047 143.965 133.826 153.996 140.3 155.415Z" stroke="#B07CF4" stroke-width="4" stroke-miterlimit="10" stroke-linecap="round" stroke-linejoin="round"/>
<path d="M29.2058 130.858L95.2665 145.479C101.74 146.899 103.914 136.867 97.4874 135.448L31.4267 120.827C24.9529 119.408 22.7792 129.439 29.2058 130.858Z" stroke="#B07CF4" stroke-width="4" stroke-miterlimit="10" stroke-linecap="round" stroke-linejoin="round"/>
<path d="M743.635 288.848L809.696 303.421C816.17 304.841 818.344 294.81 811.917 293.39L745.856 278.77C739.383 277.397 737.209 287.428 743.635 288.848Z" stroke="#B07CF4" stroke-width="4" stroke-miterlimit="10" stroke-linecap="round" stroke-linejoin="round"/>
<path d="M668.596 272.24L704.604 280.189C711.077 281.608 713.251 271.577 706.825 270.158L670.817 262.209C664.344 260.789 662.17 270.82 668.596 272.24Z" stroke="#B07CF4" stroke-width="4" stroke-miterlimit="10" stroke-linecap="round" stroke-linejoin="round"/>
<path d="M557.55 247.682L623.563 262.303C630.037 263.723 632.21 253.692 625.784 252.272L559.723 237.651C553.297 236.232 551.076 246.263 557.55 247.682Z" stroke="#B07CF4" stroke-width="4" stroke-miterlimit="10" stroke-linecap="round" stroke-linejoin="round"/>
<path d="M247.093 329.067L304.081 292.633C309.657 289.085 304.128 280.426 298.552 283.974L241.564 320.408C236.036 324.004 241.517 332.663 247.093 329.067Z" stroke="#B07CF4" stroke-width="4" stroke-miterlimit="10" stroke-linecap="round" stroke-linejoin="round"/>
<path d="M182.308 370.468L213.401 350.595C218.977 347.047 213.448 338.388 207.872 341.937L176.779 361.809C171.25 365.405 176.732 374.064 182.308 370.468Z" stroke="#B07CF4" stroke-width="4" stroke-miterlimit="10" stroke-linecap="round" stroke-linejoin="round"/>
<path d="M86.4299 431.743L143.418 395.309C148.994 391.76 143.465 383.101 137.889 386.65L80.9012 423.084C75.3725 426.68 80.854 435.339 86.4299 431.743Z" stroke="#B07CF4" stroke-width="4" stroke-miterlimit="10" stroke-linecap="round" stroke-linejoin="round"/>
<path d="M703.186 37.5971L760.174 1.16358C765.75 -2.38514 760.221 -11.044 754.645 -7.49527L697.61 28.9383C692.081 32.5343 697.61 41.1932 703.186 37.5971Z" stroke="#B07CF4" stroke-width="4" stroke-miterlimit="10" stroke-linecap="round" stroke-linejoin="round"/>
<path d="M638.401 78.9995L669.494 59.1266C675.07 55.5779 669.541 46.919 663.965 50.4677L632.872 70.3406C627.296 73.9367 632.825 82.5955 638.401 78.9995Z" stroke="#B07CF4" stroke-width="4" stroke-miterlimit="10" stroke-linecap="round" stroke-linejoin="round"/>
<path d="M542.523 140.274L599.511 103.84C605.087 100.292 599.558 91.6327 593.982 95.1814L536.994 131.615C531.418 135.211 536.947 143.87 542.523 140.274Z" stroke="#B07CF4" stroke-width="4" stroke-miterlimit="10" stroke-linecap="round" stroke-linejoin="round"/>
<path d="M735.838 -108.657C664.06 -36.8312 590.25 32.8659 518.471 104.645C513.793 109.329 521.023 116.569 525.701 111.884C597.479 40.058 671.29 -29.6391 743.068 -101.418C747.794 -106.055 740.516 -113.342 735.838 -108.657Z" stroke="#B07CF4" stroke-width="4" stroke-miterlimit="10" stroke-linecap="round" stroke-linejoin="round"/>
<path d="M315.374 312.411C243.596 384.19 169.786 453.887 98.0073 525.713C93.3292 530.398 100.559 537.637 105.237 532.953C177.016 461.126 250.826 391.429 322.604 319.65C327.282 314.966 320.053 307.727 315.374 312.411Z" stroke="#B07CF4" stroke-width="4" stroke-miterlimit="10" stroke-linecap="round" stroke-linejoin="round"/>
<path d="M416.97 -237.926C416.923 -136.338 413.946 -34.7968 413.898 66.7915C413.898 73.4158 424.152 73.4158 424.152 66.7915C424.2 -34.7968 427.177 -136.338 427.224 -237.926C427.224 -244.55 416.97 -244.55 416.97 -237.926Z" stroke="#B07CF4" stroke-width="4" stroke-miterlimit="10" stroke-linecap="round" stroke-linejoin="round"/>
<path d="M416.97 357.504C416.923 459.092 413.946 560.633 413.898 662.221C413.898 668.846 424.152 668.846 424.152 662.221C424.2 560.633 427.177 459.092 427.224 357.504C427.224 350.879 416.97 350.879 416.97 357.504Z" stroke="#B07CF4" stroke-width="4" stroke-miterlimit="10" stroke-linecap="round" stroke-linejoin="round"/>
<path d="M100.181 -103.594C171.912 -31.7208 241.517 42.1874 313.201 114.061C317.879 118.745 325.109 111.506 320.431 106.822C248.7 34.948 179.095 -38.9602 107.411 -110.834C102.733 -115.518 95.503 -108.279 100.181 -103.594Z" stroke="#B07CF4" stroke-width="4" stroke-miterlimit="10" stroke-linecap="round" stroke-linejoin="round"/>
<path d="M520.645 317.474C592.376 389.348 661.98 463.256 733.664 535.129C738.342 539.814 745.572 532.574 740.894 527.89C669.163 456.016 599.558 382.108 527.874 310.235C523.243 305.55 516.014 312.79 520.645 317.474Z" stroke="#B07CF4" stroke-width="4" stroke-miterlimit="10" stroke-linecap="round" stroke-linejoin="round"/>
<path d="M-28.9163 215.744C72.5375 215.791 173.944 218.772 275.398 218.819C282.013 218.819 282.013 208.552 275.398 208.552C173.944 208.504 72.5375 205.523 -28.9163 205.476C-35.5318 205.476 -35.5318 215.744 -28.9163 215.744Z" stroke="#B07CF4" stroke-width="4" stroke-miterlimit="10" stroke-linecap="round" stroke-linejoin="round"/>
<path d="M565.724 215.744C667.178 215.791 768.585 218.772 870.038 218.819C876.654 218.819 876.654 208.552 870.038 208.552C768.585 208.504 667.178 205.523 565.724 205.476C559.109 205.476 559.109 215.744 565.724 215.744Z" stroke="#B07CF4" stroke-width="4" stroke-miterlimit="10" stroke-linecap="round" stroke-linejoin="round"/>
<path d="M625.312 124.849C590.439 138.192 554.385 152.055 519.133 166.156C517.29 166.913 516.156 168.522 516.156 170.462C516.156 172.165 517.054 173.868 518.424 174.815C519.7 175.666 521.212 175.808 522.772 175.193C558.023 161.093 594.078 147.276 628.951 133.886C663.777 120.543 699.784 106.726 735.036 92.626C736.878 91.8689 738.013 90.2602 738.013 88.3202C738.013 86.6168 737.115 84.9134 735.744 83.9671C734.468 83.1154 732.956 82.9735 731.397 83.5886C696.146 97.6889 660.138 111.505 625.312 124.849Z" stroke="#B07CF4" stroke-width="4" stroke-miterlimit="10" stroke-linecap="round" stroke-linejoin="round"/>
<path d="M212.267 290.408C177.394 303.799 141.386 317.615 106.135 331.715C104.292 332.472 103.158 334.081 103.158 336.021C103.158 337.725 104.056 339.428 105.426 340.374C106.702 341.226 108.214 341.368 109.774 340.753C144.978 326.652 180.985 312.836 215.811 299.493C250.684 286.102 286.739 272.286 321.99 258.186C323.833 257.429 324.967 255.82 324.967 253.88C324.967 252.176 324.069 250.473 322.699 249.527C321.423 248.675 319.911 248.533 318.352 249.148C283.1 263.201 247.093 277.018 212.267 290.408Z" stroke="#B07CF4" stroke-width="4" stroke-miterlimit="10" stroke-linecap="round" stroke-linejoin="round"/>
<path d="M549.565 -98.8634C534.632 -63.9439 518.897 -28.6931 503.729 5.42201C488.513 39.5845 472.777 74.8825 457.845 109.802C457.562 110.465 457.42 111.127 457.42 111.742C457.42 114.25 459.452 115.953 461.484 116.379C463.752 116.852 465.831 115.764 466.776 113.587C481.756 78.6205 497.444 43.3225 512.66 9.20733C527.875 -24.9078 543.563 -60.1586 558.496 -95.0781C558.779 -95.7405 558.921 -96.4029 558.921 -97.0181C558.921 -99.5258 556.889 -101.229 554.857 -101.655C552.542 -102.081 550.462 -100.993 549.565 -98.8634Z" stroke="#B07CF4" stroke-width="4" stroke-miterlimit="10" stroke-linecap="round" stroke-linejoin="round"/>
<path d="M291.558 523.158C306.491 488.238 322.226 452.94 337.442 418.825C352.657 384.71 368.346 349.412 383.325 314.493C383.609 313.83 383.75 313.168 383.75 312.553C383.75 310.045 381.718 308.342 379.687 307.916C377.418 307.443 375.339 308.531 374.394 310.66C359.415 345.58 343.726 380.878 328.511 414.993C313.295 449.108 297.607 484.406 282.627 519.325C282.344 519.988 282.202 520.65 282.202 521.265C282.202 523.773 284.234 525.476 286.266 525.902C288.581 526.375 290.661 525.287 291.558 523.158Z" stroke="#B07CF4" stroke-width="4" stroke-miterlimit="10" stroke-linecap="round" stroke-linejoin="round"/>
<path d="M295.906 -105.583C293.874 -105.205 291.795 -103.454 291.795 -100.946C291.795 -100.331 291.937 -99.7159 292.173 -99.1008C306.255 -63.85 320.053 -27.7476 333.378 7.12461C346.751 42.0441 360.549 78.1466 374.631 113.445C375.529 115.669 377.56 116.757 379.923 116.331C381.955 115.952 384.034 114.202 384.034 111.694C384.034 111.079 383.892 110.464 383.656 109.849C369.575 74.5505 355.776 38.4481 342.404 3.52858C329.078 -31.3436 315.28 -67.3988 301.198 -102.697C300.301 -104.921 298.221 -106.056 295.906 -105.583Z" stroke="#B07CF4" stroke-width="4" stroke-miterlimit="10" stroke-linecap="round" stroke-linejoin="round"/>
<path d="M461.2 307.963C459.168 308.341 457.089 310.092 457.089 312.6C457.089 313.215 457.231 313.83 457.467 314.445C471.548 349.743 485.347 385.798 498.719 420.718C512.045 455.59 525.89 491.693 539.972 526.991C540.87 529.214 542.902 530.303 545.264 529.877C547.296 529.498 549.375 527.748 549.375 525.24C549.375 524.625 549.234 524.01 548.997 523.395C534.916 488.144 521.118 452.041 507.792 417.169C494.419 382.25 480.621 346.147 466.54 310.849C465.595 308.673 463.515 307.537 461.2 307.963Z" stroke="#B07CF4" stroke-width="4" stroke-miterlimit="10" stroke-linecap="round" stroke-linejoin="round"/>
<path d="M325.062 170.178C325.062 168.285 323.975 166.676 322.179 165.919C287.306 150.967 252.055 135.211 217.985 119.975C183.915 104.739 148.663 89.0301 113.79 74.0308C112.278 73.3684 110.719 73.4631 109.396 74.3621C107.978 75.3084 107.08 77.0118 107.08 78.7152C107.08 80.6078 108.167 82.2166 109.963 82.9736C144.836 97.9729 180.087 113.682 214.157 128.918C248.227 144.154 283.478 159.863 318.351 174.862C319.864 175.525 321.423 175.43 322.746 174.531C324.164 173.632 325.062 171.929 325.062 170.178Z" stroke="#B07CF4" stroke-width="4" stroke-miterlimit="10" stroke-linecap="round" stroke-linejoin="round"/>
<path d="M516.062 254.117C516.062 256.01 517.148 257.618 518.944 258.375C553.817 273.327 589.069 289.084 623.139 304.319C657.208 319.555 692.46 335.264 727.333 350.264C728.845 350.926 730.404 350.784 731.728 349.932C733.145 348.986 734.043 347.283 734.043 345.579C734.043 343.687 732.956 342.078 731.161 341.321C696.287 326.369 661.036 310.613 626.966 295.377C592.896 280.141 557.645 264.432 522.772 249.433C521.259 248.77 519.7 248.912 518.377 249.764C516.959 250.663 516.062 252.413 516.062 254.117Z" stroke="#B07CF4" stroke-width="4" stroke-miterlimit="10" stroke-linecap="round" stroke-linejoin="round"/>
</g>
<ellipse opacity="0.11" cx="421" cy="212" rx="146" ry="149" fill="#FFB23A"/>
<ellipse opacity="0.11" cx="421" cy="212" rx="109" ry="112" fill="#FFB23A"/>
</g>
<g clip-path="url(#clip0)">
<path d="M313 92.3389V147.907C313 177.468 342.791 201.429 379.531 201.429V92.3389H313ZM364.715 188.097C343.428 183.004 327.851 166.856 327.851 147.907V103.918H364.715V188.097Z" fill="url(#paint0_linear)"/>
<path d="M462.435 92.3389V201.429C499.174 201.429 528.966 177.468 528.966 147.907V92.3389H462.435ZM477.286 103.918H514.149V147.907C514.149 166.856 498.573 182.922 477.286 188.097V103.918Z" fill="url(#paint1_linear)"/>
<path d="M374.775 334.396H467.225C469.898 334.396 472.461 335.38 474.351 337.131C476.241 338.881 477.303 341.256 477.303 343.732V354H364.715V343.732C364.715 341.259 365.774 338.887 367.66 337.136C369.546 335.386 372.105 334.401 374.775 334.396Z" fill="url(#paint2_linear)"/>
<path d="M431.67 226.421H410.33V286.935H431.67V226.421Z" fill="url(#paint3_linear)"/>
<path d="M495.726 70H346.274V80.7763H495.726V70Z" fill="url(#paint4_linear)"/>
<path d="M487.557 80.7764V160.256C487.557 202.591 457.731 236.885 420.991 236.885C384.251 236.885 354.442 202.657 354.442 160.256V80.7764H487.557Z" fill="url(#paint5_linear)"/>
<path d="M443.604 286.935H398.413V300.118H443.604V286.935Z" fill="url(#paint6_linear)"/>
<path d="M447.883 300.135H394.117V334.413H447.883V300.135Z" fill="url(#paint7_linear)"/>
<path d="M439.662 310.665H402.356V323.849H439.662V310.665Z" fill="url(#paint8_linear)"/>
<path d="M420.284 152.247L403.169 162.892C403.025 162.977 402.857 163.019 402.686 163.013C402.515 163.008 402.35 162.954 402.213 162.861C402.076 162.767 401.972 162.637 401.915 162.488C401.859 162.338 401.852 162.177 401.896 162.024L407.536 143.698C407.58 143.547 407.574 143.387 407.521 143.239C407.467 143.09 407.368 142.96 407.236 142.863L391.023 131.087C390.884 130.988 390.782 130.852 390.73 130.697C390.678 130.542 390.68 130.376 390.734 130.221C390.788 130.067 390.893 129.932 391.033 129.835C391.173 129.738 391.343 129.683 391.518 129.679L412.116 128.958C412.283 128.954 412.445 128.904 412.58 128.813C412.716 128.723 412.819 128.596 412.876 128.451L419.948 110.534C420.004 110.382 420.11 110.249 420.251 110.156C420.392 110.062 420.561 110.012 420.735 110.012C420.908 110.012 421.077 110.062 421.219 110.156C421.36 110.249 421.466 110.382 421.521 110.534L428.594 128.451C428.65 128.596 428.753 128.723 428.889 128.813C429.025 128.904 429.187 128.954 429.354 128.958L449.951 129.663C450.126 129.667 450.296 129.721 450.436 129.819C450.577 129.916 450.681 130.051 450.735 130.205C450.789 130.359 450.791 130.525 450.739 130.68C450.687 130.835 450.585 130.972 450.446 131.071L434.234 142.846C434.099 142.942 433.999 143.072 433.945 143.221C433.892 143.37 433.887 143.53 433.933 143.682L439.573 162.041C439.617 162.193 439.611 162.355 439.554 162.504C439.498 162.653 439.394 162.783 439.256 162.877C439.119 162.971 438.954 163.024 438.783 163.03C438.613 163.035 438.444 162.993 438.3 162.909L421.186 152.263C421.053 152.18 420.897 152.135 420.737 152.132C420.577 152.129 420.42 152.169 420.284 152.247Z" fill="url(#paint9_linear)"/>
<path d="M420.744 112.286L427.834 130.187L448.413 130.891L432.218 142.666L437.841 161.025L420.744 150.38L403.647 161.025L409.287 142.666L393.092 130.891L413.672 130.187L420.744 112.286Z" fill="url(#paint10_linear)"/>
<path d="M400.73 182.676L406.919 180.088L404.496 173.537C406.473 174.04 408.175 175.208 409.27 176.813C412.806 182.005 418.269 182.119 423.874 182.054C424.807 181.98 425.73 181.827 426.632 181.595C427.881 181.391 429.072 180.951 430.131 180.303C431.189 179.655 432.092 178.813 432.785 177.828C433.355 176.789 434.147 175.868 435.114 175.122C436.08 174.376 437.201 173.82 438.407 173.488L435.472 179.892L442.969 182.005C441.779 182.589 440.496 182.993 439.167 183.2C437.07 183.254 434.98 182.932 433.015 182.25C430.168 181.038 427.976 182.25 425.536 183.282C427.039 183.724 428.542 184.199 430.044 184.576C430.999 184.821 431.37 185.247 430.946 186.214C430.522 187.18 430.186 187.622 429.001 187.049C427.286 186.222 425.514 185.5 423.697 184.887C422.796 184.544 421.805 184.458 420.851 184.641C419.121 185.269 417.437 186.002 415.812 186.836C413.566 187.868 413.584 187.868 412.488 185.411L418.234 183.593V183.233C414.998 182.692 412.01 180.531 408.474 183.004C407.3 183.683 405.931 184.016 404.547 183.957C403.164 183.899 401.833 183.452 400.73 182.676Z" fill="url(#paint11_linear)"/>
<path d="M399.031 170.459C402.78 172.473 403.717 176.027 405.502 179.368C401.383 179.81 397.458 182.414 393.427 178.877L400.499 177.239L399.031 170.459Z" fill="url(#paint12_linear)"/>
<path d="M455.591 172.671C453.971 173.898 452.07 174.767 450.033 175.212C447.996 175.658 445.876 175.668 443.834 175.242C445.372 171.967 445.743 168.183 449.509 166.104L448.714 171.541L455.591 172.671Z" fill="url(#paint13_linear)"/>
<path d="M437.345 178.844C439.113 175.88 439.661 172.293 443.427 170.655L442.331 177.059L448.589 178.287C445.831 180.858 442.631 181.088 437.345 178.844Z" fill="url(#paint14_linear)"/>
<path d="M387.486 173.718L394.558 172.997L393.427 166.446C397.794 168.444 397.37 172.555 399.067 175.749C395.018 175.831 390.793 177.337 387.486 173.718Z" fill="url(#paint15_linear)"/>
<path d="M460.135 166.217C458.014 169.706 455.026 171.524 450.411 170.377C451.649 167.102 451.101 163.384 454.265 160.403L455.096 166.954L460.135 166.217Z" fill="url(#paint16_linear)"/>
<path d="M382.467 167.085L388.443 167.921L389.026 161.976C392.279 164.76 391.572 168.527 393.075 171.622C389.468 172.211 384.093 170.017 382.467 167.085Z" fill="url(#paint17_linear)"/>
<path d="M383.72 150.348C385.718 153.902 384.587 157.193 383.155 160.584C379.955 158.864 376.083 157.93 375.817 153.246L381.281 155.932L383.72 150.348Z" fill="url(#paint18_linear)"/>
<path d="M448.467 115.087L453.4 116.43L454.266 109.617H454.708C455.928 112.418 457.572 115.104 456.918 118.363C456.688 119.525 456.317 120.213 454.814 119.755C453.7 119.394 452.463 119.378 451.278 119.018C450.422 118.721 449.688 118.181 449.183 117.475C448.679 116.769 448.428 115.933 448.467 115.087Z" fill="url(#paint19_linear)"/>
<path d="M464.467 146.794C461.829 143.947 460.507 140.252 460.789 136.509L464.767 141.258L468.657 137.491C468.852 139.243 468.571 141.011 467.839 142.636C467.107 144.261 465.948 145.69 464.467 146.794Z" fill="url(#paint20_linear)"/>
<path d="M394.33 116.217C392.562 119.787 389.026 120.36 385.49 120.933C384.702 117.418 385.154 113.76 386.78 110.501C388.425 112.515 388.389 114.775 388.548 117.183L394.33 116.217Z" fill="url(#paint21_linear)"/>
<path d="M380.857 127.714L385.808 126.338C385.242 128.5 382.095 131.251 378.417 132.889C376.243 129.483 376.844 126.076 378.417 122.228L380.857 127.714Z" fill="url(#paint22_linear)"/>
<path d="M383.898 161.713L386.126 155.98C386.756 156.488 387.213 157.155 387.443 157.899C387.672 158.644 387.663 159.434 387.416 160.173C387.08 162.106 386.709 164.022 386.355 165.938C383.067 165.004 379.513 164.038 377.409 161.025L377.604 160.533L383.898 161.713Z" fill="url(#paint23_linear)"/>
<path d="M373.679 145.336L378.523 148.955L382.059 143.846C384.039 147.973 380.291 150.593 379.778 154.032C375.447 150.675 373.325 149.152 373.679 145.336Z" fill="url(#paint24_linear)"/>
<path d="M456.104 124.603L461.568 125.815L463.283 120.558C464.803 124.079 466.5 127.305 463.725 130.761C461.179 128.714 456.989 128.664 456.104 124.603Z" fill="url(#paint25_linear)"/>
<path d="M377.462 140.078C376.245 138.694 375.394 137.065 374.976 135.322C374.559 133.58 374.587 131.77 375.058 130.039L378.028 134.412L383.721 131.415C383.208 135.657 379.318 137.147 377.462 140.078Z" fill="url(#paint26_linear)"/>
<path d="M458.846 129.908L464.574 133.036L466.714 129.761C467.592 131.228 467.896 132.931 467.573 134.581C467.251 136.232 466.323 137.728 464.946 138.817C463.301 135.673 459.465 133.904 458.634 130.318L458.846 129.908Z" fill="url(#paint27_linear)"/>
<path d="M467.084 151.69C467.155 153.31 466.605 154.901 465.53 156.181C464.456 157.461 462.926 158.348 461.214 158.683C460.99 158.728 460.758 158.723 460.537 158.669C460.316 158.615 460.111 158.513 459.941 158.372C458.546 155.675 458.27 152.598 459.163 149.725L462.328 154.638L467.084 151.69Z" fill="url(#paint28_linear)"/>
<path d="M465.527 159.257C463.618 162.876 460.223 163.744 456.952 165.005C456.21 161.713 454.972 158.438 457.253 154.9L459.216 160.551L465.527 159.257Z" fill="url(#paint29_linear)"/>
<path d="M373.272 138.785L377.357 141.651L382.113 138.081C382.537 141.7 379.284 144.108 377.887 147.449C375.447 144.927 373.396 142.487 373.272 138.785Z" fill="url(#paint30_linear)"/>
<path d="M382.607 117.02C383.034 117.844 383.406 118.692 383.721 119.558C383.914 120.455 384.044 121.364 384.109 122.277L389.926 121.736C388.158 124.913 384.622 125.012 381.617 126.338C380.563 123.329 380.733 120.068 382.094 117.167L382.607 117.02Z" fill="url(#paint31_linear)"/>
<path d="M460.064 143.534L464.272 148.726L468.586 144.517C468.992 147.923 466.818 150.151 463.087 152.804C461.231 149.987 459.286 147.219 460.064 143.534Z" fill="url(#paint32_linear)"/>
<path d="M451.437 120.589L457.536 121.031L459.145 115.185C461.196 119.852 461.39 121.736 460.047 124.012C457.271 122.882 453.399 124.29 451.437 120.589Z" fill="url(#paint33_linear)"/>
<path d="M446.115 107.356C447.982 107.818 449.634 108.833 450.818 110.247C452.003 111.661 452.655 113.395 452.675 115.185C448.608 114.644 447.371 112.106 446.115 107.356Z" fill="url(#paint34_linear)"/>
<path d="M389.627 115.857C389.457 114.914 389.495 113.949 389.738 113.021C389.982 112.092 390.426 111.219 391.044 110.454C391.662 109.688 392.441 109.047 393.334 108.568C394.227 108.089 395.215 107.783 396.239 107.668C394.082 110.468 393.923 114.53 389.627 115.857Z" fill="url(#paint35_linear)"/>
</g>
<defs>
<linearGradient id="paint0_linear" x1="316.943" y1="169.706" x2="389.824" y2="103.675" gradientUnits="userSpaceOnUse">
<stop stop-color="#FFB139"/>
<stop offset="1" stop-color="#FF9B00"/>
</linearGradient>
<linearGradient id="paint1_linear" x1="32361.4" y1="6733.72" x2="28404.3" y2="4708.38" gradientUnits="userSpaceOnUse">
<stop stop-color="#FFB139"/>
<stop offset="1" stop-color="#FF9B00"/>
</linearGradient>
<linearGradient id="paint2_linear" x1="364.715" y1="344.207" x2="477.285" y2="344.207" gradientUnits="userSpaceOnUse">
<stop stop-color="#FFB855"/>
<stop offset="1" stop-color="#FFC315"/>
</linearGradient>
<linearGradient id="paint3_linear" x1="1444.26" y1="7765.9" x2="2289.5" y2="7515.82" gradientUnits="userSpaceOnUse">
<stop stop-color="#FFB139"/>
<stop offset="1" stop-color="#FF9B00"/>
</linearGradient>
<linearGradient id="paint4_linear" x1="5527.76" y1="344.365" x2="5626.4" y2="-803.559" gradientUnits="userSpaceOnUse">
<stop stop-color="#FFB139"/>
<stop offset="1" stop-color="#FF9B00"/>
</linearGradient>
<linearGradient id="paint5_linear" x1="354.266" y1="192.748" x2="483.2" y2="75.9603" gradientUnits="userSpaceOnUse">
<stop stop-color="#FFC039"/>
<stop offset="1" stop-color="#FFAF15"/>
</linearGradient>
<linearGradient id="paint6_linear" x1="2730.26" y1="2191.2" x2="2887.88" y2="1738.08" gradientUnits="userSpaceOnUse">
<stop stop-color="#FFB139"/>
<stop offset="1" stop-color="#FF9B00"/>
</linearGradient>
<linearGradient id="paint7_linear" x1="396.115" y1="336.607" x2="442.701" y2="294.408" gradientUnits="userSpaceOnUse">
<stop stop-color="#764239"/>
<stop offset="1" stop-color="#8E4F2E"/>
</linearGradient>
<linearGradient id="paint8_linear" x1="2376.19" y1="2391.6" x2="2532.77" y2="2019.79" gradientUnits="userSpaceOnUse">
<stop stop-color="#FFC039"/>
<stop offset="1" stop-color="#FFAF15"/>
</linearGradient>
<linearGradient id="paint9_linear" x1="398.749" y1="159.093" x2="441.744" y2="120.146" gradientUnits="userSpaceOnUse">
<stop stop-color="#FFA339"/>
<stop offset="1" stop-color="#FF9600"/>
</linearGradient>
<linearGradient id="paint10_linear" x1="400.535" y1="157.57" x2="440.103" y2="121.714" gradientUnits="userSpaceOnUse">
<stop stop-color="#FFD655"/>
<stop offset="1" stop-color="#FFC315"/>
</linearGradient>
<linearGradient id="paint11_linear" x1="400.73" y1="180.547" x2="442.969" y2="180.547" gradientUnits="userSpaceOnUse">
<stop stop-color="#FF8739"/>
<stop offset="1" stop-color="#FF8D00"/>
</linearGradient>
<linearGradient id="paint12_linear" x1="942.747" y1="831.087" x2="1025.22" y2="831.087" gradientUnits="userSpaceOnUse">
<stop stop-color="#FF8739"/>
<stop offset="1" stop-color="#FF8D00"/>
</linearGradient>
<linearGradient id="paint13_linear" x1="1313.64" y1="747.892" x2="1392.07" y2="747.892" gradientUnits="userSpaceOnUse">
<stop stop-color="#FF8739"/>
<stop offset="1" stop-color="#FF8D00"/>
</linearGradient>
<linearGradient id="paint14_linear" x1="1228.18" y1="797.13" x2="1299.7" y2="797.13" gradientUnits="userSpaceOnUse">
<stop stop-color="#FF8739"/>
<stop offset="1" stop-color="#FF8D00"/>
</linearGradient>
<linearGradient id="paint15_linear" x1="875.376" y1="765.582" x2="951.344" y2="765.582" gradientUnits="userSpaceOnUse">
<stop stop-color="#FF8739"/>
<stop offset="1" stop-color="#FF8D00"/>
</linearGradient>
<linearGradient id="paint16_linear" x1="1206.17" y1="762.361" x2="1259.65" y2="762.361" gradientUnits="userSpaceOnUse">
<stop stop-color="#FF8739"/>
<stop offset="1" stop-color="#FF8D00"/>
</linearGradient>
<linearGradient id="paint17_linear" x1="799.262" y1="738.049" x2="863.124" y2="738.049" gradientUnits="userSpaceOnUse">
<stop stop-color="#FF8739"/>
<stop offset="1" stop-color="#FF8D00"/>
</linearGradient>
<linearGradient id="paint18_linear" x1="694.446" y1="684.557" x2="740.067" y2="684.557" gradientUnits="userSpaceOnUse">
<stop stop-color="#FF8739"/>
<stop offset="1" stop-color="#FF8D00"/>
</linearGradient>
<linearGradient id="paint19_linear" x1="1107.6" y1="390.599" x2="1149.5" y2="390.599" gradientUnits="userSpaceOnUse">
<stop stop-color="#FF8739"/>
<stop offset="1" stop-color="#FF8D00"/>
</linearGradient>
<linearGradient id="paint20_linear" x1="1126.34" y1="586.477" x2="1162.35" y2="586.477" gradientUnits="userSpaceOnUse">
<stop stop-color="#FF8739"/>
<stop offset="1" stop-color="#FF8D00"/>
</linearGradient>
<linearGradient id="paint21_linear" x1="761.098" y1="401.669" x2="809.305" y2="401.669" gradientUnits="userSpaceOnUse">
<stop stop-color="#FF8739"/>
<stop offset="1" stop-color="#FF8D00"/>
</linearGradient>
<linearGradient id="paint22_linear" x1="695.738" y1="496.345" x2="739.587" y2="496.345" gradientUnits="userSpaceOnUse">
<stop stop-color="#FF8739"/>
<stop offset="1" stop-color="#FF8D00"/>
</linearGradient>
<linearGradient id="paint23_linear" x1="748.948" y1="708.918" x2="807.387" y2="708.918" gradientUnits="userSpaceOnUse">
<stop stop-color="#FF8739"/>
<stop offset="1" stop-color="#FF8D00"/>
</linearGradient>
<linearGradient id="paint24_linear" x1="682.041" y1="635.151" x2="728.077" y2="635.151" gradientUnits="userSpaceOnUse">
<stop stop-color="#FF8739"/>
<stop offset="1" stop-color="#FF8D00"/>
</linearGradient>
<linearGradient id="paint25_linear" x1="1192.87" y1="467.361" x2="1239.48" y2="467.361" gradientUnits="userSpaceOnUse">
<stop stop-color="#FF8739"/>
<stop offset="1" stop-color="#FF8D00"/>
</linearGradient>
<linearGradient id="paint26_linear" x1="689.847" y1="528.902" x2="735.852" y2="528.902" gradientUnits="userSpaceOnUse">
<stop stop-color="#FF8739"/>
<stop offset="1" stop-color="#FF8D00"/>
</linearGradient>
<linearGradient id="paint27_linear" x1="1204.85" y1="485.235" x2="1251.45" y2="485.235" gradientUnits="userSpaceOnUse">
<stop stop-color="#FF8739"/>
<stop offset="1" stop-color="#FF8D00"/>
</linearGradient>
<linearGradient id="paint28_linear" x1="1154.05" y1="611.931" x2="1194.32" y2="611.931" gradientUnits="userSpaceOnUse">
<stop stop-color="#FF8739"/>
<stop offset="1" stop-color="#FF8D00"/>
</linearGradient>
<linearGradient id="paint29_linear" x1="1230.62" y1="709.958" x2="1282.76" y2="709.958" gradientUnits="userSpaceOnUse">
<stop stop-color="#FF8739"/>
<stop offset="1" stop-color="#FF8D00"/>
</linearGradient>
<linearGradient id="paint30_linear" x1="675.924" y1="554.108" x2="720.491" y2="554.108" gradientUnits="userSpaceOnUse">
<stop stop-color="#FF8739"/>
<stop offset="1" stop-color="#FF8D00"/>
</linearGradient>
<linearGradient id="paint31_linear" x1="726.524" y1="411.118" x2="772.207" y2="411.118" gradientUnits="userSpaceOnUse">
<stop stop-color="#FF8739"/>
<stop offset="1" stop-color="#FF8D00"/>
</linearGradient>
<linearGradient id="paint32_linear" x1="1186.54" y1="585.971" x2="1230.01" y2="585.971" gradientUnits="userSpaceOnUse">
<stop stop-color="#FF8739"/>
<stop offset="1" stop-color="#FF8D00"/>
</linearGradient>
<linearGradient id="paint33_linear" x1="1192.61" y1="382.567" x2="1243.34" y2="382.567" gradientUnits="userSpaceOnUse">
<stop stop-color="#FF8739"/>
<stop offset="1" stop-color="#FF8D00"/>
</linearGradient>
<linearGradient id="paint34_linear" x1="939.97" y1="304.632" x2="964.371" y2="304.632" gradientUnits="userSpaceOnUse">
<stop stop-color="#FF8739"/>
<stop offset="1" stop-color="#FF8D00"/>
</linearGradient>
<linearGradient id="paint35_linear" x1="680.291" y1="316.397" x2="705.747" y2="316.397" gradientUnits="userSpaceOnUse">
<stop stop-color="#FF8739"/>
<stop offset="1" stop-color="#FF8D00"/>
</linearGradient>
<clipPath id="clip0">
<rect width="216" height="284" fill="white" transform="translate(313 70)"/>
</clipPath>
</defs>
</svg>
