<svg width="45" height="38" viewBox="0 0 45 38" fill="none" xmlns="http://www.w3.org/2000/svg">
<g id="Group 22">
<g id="book">
<path id="Vector" d="M4.73041 10.9011C4.73041 10.2828 4.24703 9.78149 3.65036 9.78149C3.05369 9.78149 2.57031 10.2828 2.57031 10.9011C2.57031 11.5194 3.05369 12.0204 3.65036 12.0204C4.24703 12.0204 4.73041 11.5194 4.73041 10.9011Z" fill="#FFC315"/>
<path id="Vector_2" d="M0.543457 33.3304C0.543457 34.4004 1.39179 35.2374 2.43437 35.2374H32.8368C33.8793 35.2374 34.728 34.4004 34.728 33.3304V15.0044H0.543457V33.3304ZM7.1174 18.6394C7.1174 18.3507 7.38749 18.1401 7.68658 18.1401H14.6164C14.8802 18.1366 15.1424 18.1778 15.3916 18.2618L17.2306 18.897C17.4919 18.9897 17.7789 18.9906 18.0412 18.8999L19.8801 18.2603C20.129 18.1766 20.3916 18.1361 20.6553 18.1401H27.5849C27.8839 18.1401 28.154 18.3507 28.154 18.6394V30.9567C28.1432 31.2553 27.8942 31.4948 27.5849 31.5044H20.655C20.5176 31.5003 20.3804 31.5199 20.2499 31.5616L18.4109 32.1953C17.9103 32.3712 17.362 32.3729 16.8602 32.2L15.0215 31.561C14.891 31.5193 14.7539 31.5 14.6164 31.5044H7.68658C7.37722 31.4948 7.12828 31.2553 7.1174 30.9567V18.6394Z" fill="#FFC315"/>
<path id="Vector_3" d="M15.3917 30.5789L17.0944 31.1639V19.9436C17.0152 19.9272 16.9373 19.9068 16.8605 19.8826L15.0216 19.2428C14.8911 19.201 14.7539 19.1815 14.6164 19.1856H8.2002V30.4593H14.6161C14.8799 30.455 15.1424 30.4955 15.3917 30.5789Z" fill="#FFC315"/>
<path id="Vector_4" d="M20.6555 30.4593H27.0714V19.1856H20.6555C20.518 19.1815 20.3805 19.201 20.25 19.2428L18.4114 19.8765C18.3346 19.903 18.2564 19.9255 18.1772 19.9439V31.1639L19.8799 30.5786C20.1292 30.4955 20.3917 30.455 20.6555 30.4593ZM20.3265 20.9774H22.5361C22.8349 20.9774 23.0775 21.2113 23.0775 21.5001C23.0775 21.7888 22.8349 22.0227 22.5361 22.0227H20.3265C20.0274 22.0227 19.7851 21.7888 19.7851 21.5001C19.7851 21.2113 20.0274 20.9774 20.3265 20.9774ZM20.3265 23.1426H25.1412C25.4403 23.1426 25.6826 23.3765 25.6826 23.6652C25.6826 23.9539 25.4403 24.1878 25.1412 24.1878H20.3265C20.0274 24.1878 19.7851 23.9539 19.7851 23.6652C19.7851 23.3765 20.0274 23.1426 20.3265 23.1426ZM20.3265 25.3824H25.1412C25.4403 25.3824 25.6826 25.6163 25.6826 25.905C25.6826 26.1938 25.4403 26.4277 25.1412 26.4277H20.3265C20.0274 26.4277 19.7851 26.1938 19.7851 25.905C19.7851 25.6163 20.0274 25.3824 20.3265 25.3824ZM20.3265 27.5476H25.1412C25.4403 27.5476 25.6826 27.7815 25.6826 28.0702C25.6826 28.3589 25.4403 28.5928 25.1412 28.5928H20.3265C20.0274 28.5928 19.7851 28.3589 19.7851 28.0702C19.7851 27.7815 20.0274 27.5476 20.3265 27.5476Z" fill="#FFC315"/>
<path id="Vector_5" d="M15.2703 10.9011C15.2703 10.2828 14.7866 9.78149 14.1902 9.78149C13.5935 9.78149 13.1099 10.2828 13.1099 10.9011C13.1099 11.5194 13.5935 12.0204 14.1902 12.0204C14.7866 12.0204 15.2703 11.5194 15.2703 10.9011Z" fill="#FFC315"/>
<path id="Vector_6" d="M8.91989 9.78149C8.32443 9.78149 7.83984 10.2837 7.83984 10.9011C7.83984 11.5182 8.32443 12.0204 8.91989 12.0204C9.51566 12.0204 10.0002 11.5182 10.0002 10.9011C10.0002 10.2837 9.51566 9.78149 8.91989 9.78149Z" fill="#FFC315"/>
<path id="Vector_7" d="M32.8368 7.76245H2.43437C1.39179 7.76245 0.543457 8.59947 0.543457 9.6695V13.9593H34.728V9.6695C34.728 8.59947 33.8793 7.76245 32.8368 7.76245ZM3.65037 13.0657C2.45794 13.0657 1.48756 12.0945 1.48756 10.9011C1.48756 9.70742 2.45794 8.73625 3.65037 8.73625C4.84311 8.73625 5.81319 9.70742 5.81319 10.9011C5.81319 12.0945 4.84311 13.0657 3.65037 13.0657ZM8.9201 13.0657C7.72767 13.0657 6.75729 12.0945 6.75729 10.9011C6.75729 9.70742 7.72767 8.73625 8.9201 8.73625C10.1128 8.73625 11.0832 9.70742 11.0832 10.9011C11.0832 12.0945 10.1128 13.0657 8.9201 13.0657ZM14.1901 13.0657C12.9974 13.0657 12.027 12.0945 12.027 10.9011C12.027 9.70742 12.9974 8.73625 14.1901 8.73625C15.3826 8.73625 16.353 9.70742 16.353 10.9011C16.353 12.0945 15.3826 13.0657 14.1901 13.0657Z" fill="#FFC315"/>
</g>
<g id="Group 20">
<path id="Ellipse" d="M43.0511 10.5C43.0511 15.7138 38.6626 20 33.1743 20C27.6859 20 23.2974 15.7138 23.2974 10.5C23.2974 5.28624 27.6859 1 33.1743 1C38.6626 1 43.0511 5.28624 43.0511 10.5Z" fill="#FFC315" stroke="white" stroke-width="2"/>
<g id="link">
<g id="Group">
<g id="Group_2">
<path id="Vector_8" d="M34.8324 9.89782C34.7097 9.77866 34.5737 9.67304 34.4268 9.58288C34.0377 9.34239 33.5855 9.2146 33.1235 9.2146C32.4823 9.21345 31.8672 9.45938 31.4146 9.89782L29.2189 12.0191C28.7671 12.4561 28.5131 13.0482 28.5127 13.6656C28.5118 14.9541 29.5931 15.9992 30.9278 16C31.568 16.0022 32.1826 15.7574 32.635 15.3202L34.4475 13.5705C34.4804 13.539 34.4988 13.496 34.4985 13.4512C34.498 13.3592 34.4203 13.285 34.3249 13.2855H34.2559C33.8772 13.2868 33.5019 13.2166 33.1511 13.0789C33.0865 13.0532 33.0122 13.0677 32.963 13.1156L31.6597 14.3753C31.255 14.766 30.5989 14.766 30.1942 14.3753C29.7895 13.9847 29.7895 13.3513 30.1942 12.9606L32.3985 10.8343C32.8029 10.4444 33.458 10.4444 33.8623 10.8343C34.1349 11.0819 34.5599 11.0819 34.8324 10.8343C34.9497 10.721 35.0208 10.5708 35.0327 10.411C35.0453 10.2202 34.9724 10.0332 34.8324 9.89782Z" fill="#FFFBFB"/>
</g>
</g>
<g id="Group_3">
<g id="Group_4">
<path id="Vector_9" d="M38.1627 6.68333C37.2188 5.77222 35.6886 5.77222 34.7448 6.68333L32.934 8.42968C32.8843 8.47791 32.87 8.55046 32.8978 8.61299C32.9253 8.67569 32.9895 8.71594 33.06 8.71463H33.1239C33.5021 8.71396 33.8768 8.78471 34.2269 8.92293C34.2916 8.94861 34.3658 8.93412 34.4151 8.88628L35.7149 7.63316C36.1196 7.24249 36.7757 7.24249 37.1804 7.63316C37.5851 8.02383 37.5851 8.65723 37.1804 9.04791L35.5613 10.6093L35.5474 10.6243L34.9813 11.1675C34.5769 11.5574 33.9218 11.5574 33.5175 11.1675C33.2449 10.9199 32.8199 10.9199 32.5474 11.1675C32.4294 11.2817 32.3582 11.4332 32.3471 11.5941C32.3345 11.785 32.4074 11.9719 32.5474 12.1074C32.7472 12.3011 32.9809 12.459 33.2378 12.5739C33.2741 12.5906 33.3103 12.6039 33.3466 12.6189C33.3828 12.6339 33.4208 12.6456 33.457 12.6589C33.4933 12.6723 33.5313 12.6839 33.5675 12.6939L33.6694 12.7206C33.7384 12.7372 33.8075 12.7506 33.8782 12.7622C33.9635 12.7744 34.0493 12.7822 34.1354 12.7856H34.2563H34.2666L34.3702 12.7739C34.4081 12.7722 34.4479 12.7639 34.4927 12.7639H34.5514L34.6705 12.7472L34.7258 12.7372L34.8259 12.7173H34.8449C35.2689 12.6144 35.6561 12.4025 35.9652 12.104L38.1626 9.98274C39.1065 9.07163 39.1065 7.59444 38.1627 6.68333Z" fill="#FFFBFB"/>
</g>
</g>
</g>
</g>
</g>
<defs>
<clipPath id="clip0">
<rect width="34.1845" height="33" fill="white" transform="translate(0.543457 5)"/>
</clipPath>
<clipPath id="clip1">
<rect width="10.3589" height="10" fill="white" transform="translate(28.5127 6)"/>
</clipPath>
</defs>
</svg>
