<svg width="40" height="34" viewBox="0 0 40 34" fill="none" xmlns="http://www.w3.org/2000/svg">
<g clip-path="url(#clip0)">
<path d="M4.74155 6.65845C4.74072 6.65845 4.73978 6.65845 4.73894 6.65845C4.44575 6.65845 4.16998 6.77274 3.96175 6.98045C3.75122 7.19046 3.63525 7.47009 3.63525 7.76777V24.4019C3.63525 25.0119 4.13345 25.5093 4.74593 25.5109C7.32802 25.5171 11.6541 26.0552 14.6384 29.1783V11.7702C14.6384 11.5635 14.5856 11.3692 14.4859 11.2085C12.0365 7.26384 7.32949 6.6645 4.74155 6.65845Z" fill="#38B21A"/>
<path d="M27.3644 24.4019V7.76765C27.3644 7.46996 27.2484 7.19034 27.0379 6.98033C26.8297 6.77262 26.5537 6.65833 26.2608 6.65833C26.2599 6.65833 26.2589 6.65833 26.2581 6.65833C23.6703 6.66448 18.9632 7.26382 16.5137 11.2085C16.414 11.3692 16.3613 11.5634 16.3613 11.7702V29.1782C19.3457 26.0551 23.6717 25.5169 26.2538 25.5108C26.8662 25.5092 27.3644 25.0117 27.3644 24.4019Z" fill="#38B21A"/>
<path d="M29.8914 10.4945H29.0871V24.4019C29.0871 25.9593 27.8182 27.2292 26.2584 27.2331C24.0682 27.2383 20.457 27.6666 17.8994 30.0872C22.3227 29.0042 26.9857 29.7082 29.6431 30.3138C29.9749 30.3894 30.3178 30.3113 30.5837 30.0994C30.8486 29.8881 31.0006 29.5721 31.0006 29.233V11.6036C31.0007 10.9921 30.503 10.4945 29.8914 10.4945Z" fill="#38B21A"/>
<path d="M1.91345 24.4019V10.4945H1.10911C0.497672 10.4945 0 10.9921 0 11.6036V29.2327C0 29.5719 0.151974 29.8877 0.416884 30.0991C0.682524 30.3109 1.02509 30.3893 1.35743 30.3135C4.01488 29.7078 8.67794 29.0039 13.101 30.0869C10.5436 27.6664 6.93233 27.2382 4.74218 27.233C3.18247 27.2292 1.91345 25.9593 1.91345 24.4019Z" fill="#38B21A"/>
</g>
<circle cx="29.5" cy="10.5" r="9.5" fill="#38B21A" stroke="white" stroke-width="2"/>
<path d="M25.1154 11.3846C25.0385 11.3077 25 11.1923 25 11.1154C25 11.0385 25.0385 10.9231 25.1154 10.8462L25.6538 10.3077C25.8077 10.1539 26.0385 10.1539 26.1923 10.3077L26.2308 10.3462L28.3462 12.6154C28.4231 12.6923 28.5385 12.6923 28.6154 12.6154L33.7692 7.26925H33.8077C33.9615 7.11541 34.1923 7.11541 34.3462 7.26925L34.8846 7.80772C35.0385 7.96156 35.0385 8.19233 34.8846 8.34618L28.7308 14.7308C28.6538 14.8077 28.5769 14.8462 28.4615 14.8462C28.3462 14.8462 28.2692 14.8077 28.1923 14.7308L25.1923 11.5L25.1154 11.3846Z" fill="white"/>
<defs>
<clipPath id="clip0">
<rect width="31" height="31" fill="white" transform="translate(0 3)"/>
</clipPath>
</defs>
</svg>
