<svg width="128" height="128" viewBox="0 0 128 128" fill="none" xmlns="http://www.w3.org/2000/svg">
<circle opacity="0.05" cx="64" cy="64" r="64" fill="#8946DF"/>
<g>
<path d="M37.5179 40.5004C37.5162 40.5004 37.5143 40.5004 37.5126 40.5004C36.9115 40.5004 36.3462 40.7347 35.9193 41.1605C35.4877 41.591 35.25 42.1642 35.25 42.7745V76.8744C35.25 78.1249 36.2713 79.1447 37.5269 79.1479C42.8202 79.1605 51.6885 80.2638 57.8065 86.6661V50.9795C57.8065 50.5556 57.6982 50.1574 57.4939 49.8279C52.4725 41.7414 42.8232 40.5128 37.5179 40.5004Z" fill="#8946DF"/>
<path d="M83.0973 76.1739V42.0738C83.0973 41.4635 82.8596 40.8903 82.428 40.4598C82.0011 40.034 81.4353 39.7997 80.8349 39.7997C80.833 39.7997 80.8311 39.7997 80.8294 39.7997C75.5243 39.8123 65.875 41.0409 60.8534 49.1274C60.6491 49.457 60.541 49.8552 60.541 50.279V85.9654C66.659 79.5631 75.5273 78.4598 80.8206 78.4472C82.076 78.444 83.0973 77.4242 83.0973 76.1739Z" fill="#8946DF"/>
<path d="M88.277 47.6638H86.6281V76.1739C86.6281 79.3666 84.0269 81.97 80.8292 81.9779C76.3394 81.9886 68.9364 82.8666 63.6934 87.8288C72.7611 85.6087 82.3202 87.0519 87.768 88.2934C88.4482 88.4483 89.1511 88.2882 89.6961 87.8539C90.2392 87.4206 90.5507 86.7729 90.5507 86.0777V49.9375C90.5509 48.6838 89.5307 47.6638 88.277 47.6638Z" fill="#8946DF"/>
<path d="M30.9226 76.1739V47.6638H29.2737C28.0202 47.6638 27 48.6838 27 49.9375V86.077C27 86.7725 27.3115 87.4199 27.8546 87.8532C28.3992 88.2874 29.1014 88.4481 29.7827 88.2927C35.2305 87.051 44.7898 85.608 53.8571 87.8282C48.6143 82.8662 41.2113 81.9884 36.7215 81.9777C33.5241 81.97 30.9226 79.3666 30.9226 76.1739Z" fill="#8946DF"/>
</g>
<circle cx="87.4752" cy="47.675" r="19.025" fill="#38B21A" stroke="#F3ECFC" stroke-width="5"/>
<g>
<path d="M87.3137 46.295C87.142 46.2478 86.966 46.222 86.7815 46.222C85.6783 46.222 84.7812 47.1191 84.7812 48.2222C84.7812 49.3253 85.6783 50.2224 86.7815 50.2224C87.8846 50.2224 88.7817 49.3253 88.7817 48.2222C88.7817 48.0377 88.7559 47.8574 88.7087 47.69L94.2801 42.1186L95.1815 42.2388L98.0015 39.4188L95.8682 39.1355L95.5849 37.0022L92.7649 39.8222L92.8851 40.7236L87.3137 46.295Z" fill="white"/>
<path d="M86.9956 44.3805L88.6439 42.7323C86.6222 42.0455 84.2915 42.5091 82.6819 44.123C80.4198 46.385 80.4198 50.0592 82.6819 52.3213C84.9439 54.5833 88.6181 54.5833 90.8801 52.3213C92.494 50.7074 92.9576 48.381 92.2708 46.355L90.6226 48.0032C90.6827 49.0591 90.3093 50.1365 89.5023 50.9435C88 52.4458 85.562 52.4458 84.0597 50.9435C82.5574 49.4412 82.5574 47.0031 84.0597 45.5008C84.8666 44.6939 85.9397 44.3205 86.9956 44.3805Z" fill="white"/>
<path d="M93.6915 44.9386C95.0436 47.7801 94.5414 51.2783 92.1892 53.6305C89.2018 56.6179 84.3601 56.6179 81.3727 53.6305C78.3852 50.6431 78.3852 45.8014 81.3727 42.8139C83.7248 40.4618 87.2231 39.9638 90.0645 41.3116L91.6398 39.7364C87.9055 37.5945 83.0552 38.1182 79.8661 41.3073C76.0459 45.1275 76.0459 51.3169 79.8661 55.1328C83.6862 58.9529 89.8757 58.9529 93.6915 55.1328C96.8807 51.9436 97.4043 47.0933 95.2625 43.359L93.6915 44.9386Z" fill="white"/>
</g>
<defs>
<clipPath id="clip0">
<rect width="63.55" height="63.55" fill="white" transform="translate(27 32.3)"/>
</clipPath>
<clipPath id="clip1">
<rect width="21" height="21" fill="white" transform="translate(77.001 37)"/>
</clipPath>
</defs>
</svg>
