<svg width="128" height="128" viewBox="0 0 128 128" fill="none" xmlns="http://www.w3.org/2000/svg">
<g id="Group 22">
<circle id="Ellipse" opacity="0.05" cx="64" cy="64" r="64" fill="#8946DF"/>
<g id="Group 21">
<g id="open-book (1)">
<g id="Group">
<g id="Group_2">
<g id="Group_3">
<path id="Vector" d="M37.5179 40.5004C37.5162 40.5004 37.5143 40.5004 37.5126 40.5004C36.9115 40.5004 36.3462 40.7347 35.9193 41.1605C35.4877 41.591 35.25 42.1642 35.25 42.7745V76.8744C35.25 78.1249 36.2713 79.1447 37.5269 79.1479C42.8202 79.1605 51.6885 80.2638 57.8065 86.6661V50.9795C57.8065 50.5556 57.6982 50.1574 57.4939 49.8279C52.4725 41.7414 42.8232 40.5128 37.5179 40.5004Z" fill="#8946DF"/>
<path id="Vector_2" d="M83.097 76.1739V42.0738C83.097 41.4635 82.8593 40.8903 82.4277 40.4598C82.0008 40.034 81.4351 39.7997 80.8347 39.7997C80.8328 39.7997 80.8308 39.7997 80.8291 39.7997C75.5241 39.8123 65.8747 41.0409 60.8532 49.1274C60.6488 49.457 60.5408 49.8552 60.5408 50.279V85.9654C66.6587 79.5631 75.5271 78.4598 80.8204 78.4472C82.0757 78.444 83.097 77.4242 83.097 76.1739Z" fill="#8946DF"/>
<path id="Vector_3" d="M88.277 47.6638H86.6281V76.1739C86.6281 79.3666 84.0269 81.97 80.8292 81.9779C76.3394 81.9886 68.9364 82.8666 63.6934 87.8288C72.7611 85.6087 82.3202 87.0519 87.768 88.2934C88.4482 88.4483 89.1511 88.2882 89.6961 87.8539C90.2392 87.4206 90.5507 86.7729 90.5507 86.0777V49.9375C90.5509 48.6838 89.5307 47.6638 88.277 47.6638Z" fill="#8946DF"/>
<path id="Vector_4" d="M30.9226 76.1739V47.6638H29.2737C28.0202 47.6638 27 48.6838 27 49.9375V86.077C27 86.7725 27.3115 87.4199 27.8546 87.8532C28.3992 88.2874 29.1014 88.4481 29.7827 88.2927C35.2305 87.051 44.7898 85.608 53.8571 87.8282C48.6143 82.8662 41.2113 81.9884 36.7215 81.9777C33.5241 81.97 30.9226 79.3666 30.9226 76.1739Z" fill="#8946DF"/>
</g>
</g>
</g>
</g>
<g id="Group 20">
<circle id="Ellipse_2" cx="87.475" cy="47.675" r="19.025" fill="#38B21A" stroke="#F3ECFC" stroke-width="5"/>
<g id="Group 13">
<path id="Vector 2" d="M94.6526 47.6746L80.3026 47.6746" stroke="white" stroke-width="4" stroke-linecap="round"/>
<path id="Vector 2.1" d="M87.4758 40.4991V54.8491" stroke="white" stroke-width="4" stroke-linecap="round"/>
</g>
</g>
</g>
</g>
<defs>
<clipPath id="clip0">
<rect width="63.55" height="63.55" fill="white" transform="translate(27 32.3)"/>
</clipPath>
</defs>
</svg>
