<svg width="128" height="128" viewBox="0 0 128 128" fill="none" xmlns="http://www.w3.org/2000/svg">
<circle opacity="0.05" cx="64" cy="64" r="64" fill="#8946DF"/>
<path d="M44.0224 40.366C37.3797 40.366 31.9756 46.0958 31.9756 53.1388C31.9756 60.1817 37.3797 65.9116 44.0224 65.9116C50.6651 65.9116 56.0693 60.1817 56.0693 53.1388C56.0693 46.0958 50.6652 40.366 44.0224 40.366Z" fill="#8946DF"/>
<path d="M71.4119 42.1936C71.3847 42.1936 71.3571 42.1937 71.3299 42.1939C68.5422 42.2169 65.9383 43.394 63.998 45.5084C62.0917 47.5855 61.0552 50.3257 61.079 53.224C61.103 56.1223 62.1846 58.8449 64.1248 60.8904C66.0803 62.9518 68.6707 64.0838 71.4275 64.0838C71.4552 64.0838 71.4829 64.0837 71.5108 64.0836C74.2985 64.0605 76.9024 62.8833 78.8427 60.769C80.7489 58.6919 81.7855 55.9518 81.7616 53.0533C81.712 47.0471 77.0772 42.1936 71.4119 42.1936Z" fill="#8946DF"/>
<path d="M71.9194 66.175H70.9191C67.1205 66.175 63.5926 67.3526 60.6795 69.3612C59.6514 70.07 59.7166 71.5477 60.6235 72.4063C60.7812 72.5556 60.9372 72.7073 61.0913 72.8614C63.2285 74.9987 64.9069 77.4892 66.0799 80.2632C66.8895 82.1765 67.4329 84.1684 67.7061 86.2141C67.847 87.2691 68.7155 88.1046 69.7798 88.1046H87.9998C89.1044 88.1046 89.9998 87.2092 89.9998 86.1046V84.2542C89.9998 74.2858 81.889 66.175 71.9194 66.175Z" fill="#8946DF"/>
<path d="M64.0061 88.1046C63.6413 82.2278 60.6622 77.0586 56.2163 73.7457C52.982 71.3352 48.9704 69.9082 44.625 69.9082H43.421C32.6947 69.9083 24 78.6029 24 89.3292C24 90.6022 25.0319 91.6341 26.3048 91.6341H61.7399C63.0128 91.6341 64.0447 90.6022 64.0447 89.3292C64.0447 88.918 64.0318 88.5094 64.0061 88.1046Z" fill="#8946DF"/>
<circle cx="88.4742" cy="45.6749" r="19.025" fill="#38B21A" stroke="#F3ECFC" stroke-width="5"/>
<path d="M89.9972 43.2656C89.9972 42.6184 90.5218 42.0938 91.1691 42.0938C91.8163 42.0938 92.3409 42.6184 92.3409 43.2656V44.0469C92.3409 43.3996 92.8656 42.875 93.5128 42.875C94.1601 42.875 94.6847 43.3996 94.6847 44.0469V47.975C94.6847 51.0738 93.1222 51.0355 93.1222 53.8125V54.8281C93.1222 55.2598 92.7726 55.6094 92.3409 55.6094H86.8722C86.4406 55.6094 86.0909 55.2598 86.0909 54.8281V53.8125C86.0909 51.7531 85.687 52.5891 81.5538 46.9582C81.0824 46.3156 81.3413 45.4 82.0808 45.1039C82.5347 44.9227 83.0527 45.0297 83.3972 45.3766L85.3097 47.302V37.5625C85.3097 36.9152 85.8343 36.3906 86.4816 36.3906C87.1288 36.3906 87.6534 36.9152 87.6534 37.5625V42.4844C87.6534 41.8371 88.1781 41.3125 88.8253 41.3125C89.4726 41.3125 89.9972 41.8371 89.9972 42.4844V43.2656Z" fill="white"/>
<path d="M93.1226 47.9531C93.3382 47.9531 93.5132 47.7781 93.5132 47.5625C93.5132 47.3469 93.3382 47.1719 93.1226 47.1719C92.9069 47.1719 92.7319 47.3469 92.7319 47.5625C92.7319 47.7781 92.9069 47.9531 93.1226 47.9531Z" fill="#38B21A"/>
<path d="M91.558 53.4199C91.7725 53.4414 91.9641 53.2847 91.9854 53.0699C92.1039 51.8802 92.4946 51.1562 92.8391 50.5179C93.0583 50.1126 93.2653 49.7298 93.3878 49.2104C93.4374 49.0004 93.3073 48.79 93.0973 48.7405C92.8872 48.6909 92.6769 48.8211 92.6274 49.0311C92.5288 49.4495 92.3625 49.757 92.1518 50.1465C91.791 50.815 91.342 51.647 91.208 52.9926C91.1867 53.2072 91.3434 53.3986 91.558 53.4199Z" fill="#38B21A"/>
</svg>
