<svg width="128" height="128" viewBox="0 0 128 128" fill="none" xmlns="http://www.w3.org/2000/svg">
<circle opacity="0.2" cx="64" cy="64" r="64" fill="#FF5271"/>
<path d="M44.0224 40.3657C37.3797 40.3657 31.9756 46.0956 31.9756 53.1385C31.9756 60.1815 37.3797 65.9113 44.0224 65.9113C50.6651 65.9113 56.0693 60.1815 56.0693 53.1385C56.0693 46.0956 50.6652 40.3657 44.0224 40.3657Z" fill="#FF5271"/>
<path d="M71.4119 42.1938C71.3847 42.1938 71.3571 42.194 71.3299 42.1941C68.5422 42.2172 65.9383 43.3942 63.998 45.5087C62.0917 47.5857 61.0552 50.3259 61.079 53.2242C61.103 56.1226 62.1846 58.8452 64.1248 60.8907C66.0803 62.952 68.6707 64.0841 71.4275 64.0841C71.4552 64.0841 71.4829 64.0839 71.5108 64.0838C74.2985 64.0607 76.9024 62.8836 78.8427 60.7692C80.7489 58.6922 81.7855 55.952 81.7616 53.0536C81.712 47.0473 77.0772 42.1938 71.4119 42.1938Z" fill="#FF5271"/>
<path d="M71.9194 66.1753H70.9191C67.1205 66.1753 63.5926 67.3529 60.6795 69.3614C59.6514 70.0703 59.7166 71.548 60.6235 72.4065C60.7812 72.5558 60.9372 72.7075 61.0913 72.8617C63.2285 74.9989 64.9069 77.4894 66.0799 80.2635C66.8895 82.1768 67.4329 84.1687 67.7061 86.2143C67.847 87.2693 68.7155 88.1048 69.7798 88.1048H87.9998C89.1044 88.1048 89.9998 87.2094 89.9998 86.1048V84.2544C89.9998 74.2861 81.889 66.1753 71.9194 66.1753Z" fill="#FF5271"/>
<path d="M64.0061 88.1046C63.6413 82.2278 60.6622 77.0586 56.2163 73.7457C52.982 71.3352 48.9704 69.9082 44.625 69.9082H43.421C32.6947 69.9083 24 78.6029 24 89.3292C24 90.6022 25.0319 91.6341 26.3048 91.6341H61.7399C63.0128 91.6341 64.0447 90.6022 64.0447 89.3292C64.0447 88.918 64.0318 88.5094 64.0061 88.1046Z" fill="#FF5271"/>
<circle cx="88.4742" cy="45.6749" r="19.025" fill="#FF5271" stroke="#F3ECFC" stroke-width="5"/>
<path d="M91.3373 51.3761V40.5252C91.3373 40.047 90.9499 39.6594 90.4718 39.6594C89.9938 39.6594 89.6064 40.047 89.6064 40.5252V51.3761C89.6064 51.8546 89.9938 52.2419 90.4718 52.2419C90.9499 52.2419 91.3373 51.8546 91.3373 51.3761ZM87.3934 51.3761V40.5252C87.3934 40.047 87.0059 39.6594 86.5279 39.6594C86.0498 39.6594 85.6624 40.047 85.6624 40.5252V51.3761C85.6624 51.8546 86.0498 52.2419 86.5279 52.2419C87.0059 52.2419 87.3934 51.8546 87.3934 51.3761ZM95.2132 39.6594C94.7351 39.6594 94.3477 40.047 94.3477 40.5252V53.6309C94.3477 53.9821 94.0624 54.2684 93.7116 54.2684H83.2893C82.9379 54.2684 82.652 53.9821 82.652 53.6309V40.5252C82.652 40.047 82.2646 39.6594 81.7865 39.6594C81.3085 39.6594 80.9211 40.047 80.9211 40.5252V53.6309C80.9211 54.9368 81.9836 56 83.2893 56H93.7113C95.0164 56 96.0784 54.9368 96.0784 53.6309V40.5252C96.0787 40.0467 95.6912 39.6594 95.2132 39.6594ZM97.1345 36.9619H93.2162V34.8658C93.2162 34.3876 92.8288 34 92.3508 34H84.6492C84.1712 34 83.7838 34.3876 83.7838 34.8658V36.9619H79.8655C79.3874 36.9619 79 37.3495 79 37.8277C79 38.3059 79.3874 38.6934 79.8655 38.6934H97.1345C97.6126 38.6934 98 38.3059 98 37.8277C98 37.3495 97.6126 36.9619 97.1345 36.9619ZM91.4853 36.9619H85.5147V35.7316H91.485V36.9619H91.4853Z" fill="white"/>
</svg>
