<svg width="26" height="26" viewBox="0 0 26 26" fill="none" xmlns="http://www.w3.org/2000/svg">
<path d="M13 0C5.83192 0 0 5.83153 0 13C0 20.1685 5.83153 26 13 26C20.1685 26 26 20.1685 26 13C26 5.83153 20.1681 0 13 0ZM2.38103 13C2.38103 7.14466 7.14466 2.38103 13 2.38103C15.6382 2.38103 18.0533 3.3505 19.9125 4.94936L4.94936 19.9125C3.3505 18.0533 2.38103 15.6382 2.38103 13ZM13 23.619C10.6396 23.619 8.4574 22.844 6.69227 21.5364L21.536 6.69267C22.8436 8.4578 23.6186 10.64 23.6186 13.0004C23.619 18.8553 18.8553 23.619 13 23.619Z" fill="white"/>
</svg>
