<svg width="38" height="39" viewBox="0 0 38 39" fill="none" xmlns="http://www.w3.org/2000/svg">
<g>
<path d="M5.80078 14.6309C5.80078 16.2326 7.09941 17.5312 8.70117 17.5312H9.66797V11.7305H8.70117C7.09941 11.7305 5.80078 13.0291 5.80078 14.6309Z" fill="#17A4E0"/>
<path d="M8.90039 33H9.86719V27.1992H8.90039C7.29863 27.1992 6 28.4978 6 30.0996C6 31.7014 7.29863 33 8.90039 33Z" fill="#17A4E0"/>
<path d="M31.2012 29.1328H33.1348V27.1992H11.8008V33H33.1348V31.0664H31.2012C30.6672 31.0664 30.2344 30.6336 30.2344 30.0996C30.2344 29.5656 30.6672 29.1328 31.2012 29.1328Z" fill="#17A4E0"/>
<path d="M9.80078 19.4648H8.83398C7.23222 19.4648 5.93359 20.7635 5.93359 22.3652C5.93359 23.967 7.23222 25.2656 8.83398 25.2656H9.80078V19.4648Z" fill="#17A4E0"/>
<path d="M31.1348 21.3984H33.0684V19.4648H11.7344V25.2656H33.0684V23.332H31.1348C30.6008 23.332 30.168 22.8992 30.168 22.3652C30.168 21.8312 30.6008 21.3984 31.1348 21.3984Z" fill="#17A4E0"/>
<path d="M17.4668 0V11.7305H11.6016V17.5312H33V15.5977H31.0664C30.5324 15.5977 30.0996 15.1649 30.0996 14.6309C30.0996 14.0969 30.5324 13.6641 31.0664 13.6641H33V11.7305H19.4004V7.79883H33L29.1328 3.93164L33 0H17.4668Z" fill="#17A4E0"/>
</g>
<circle cx="27.5" cy="28.5" r="9.5" fill="#17A4E0" stroke="white" stroke-width="2"/>
<path d="M23.1154 29.3846C23.0385 29.3077 23 29.1923 23 29.1154C23 29.0385 23.0385 28.9231 23.1154 28.8462L23.6538 28.3077C23.8077 28.1539 24.0385 28.1539 24.1923 28.3077L24.2308 28.3462L26.3462 30.6154C26.4231 30.6923 26.5385 30.6923 26.6154 30.6154L31.7692 25.2693H31.8077C31.9615 25.1154 32.1923 25.1154 32.3462 25.2693L32.8846 25.8077C33.0385 25.9616 33.0385 26.1923 32.8846 26.3462L26.7308 32.7308C26.6538 32.8077 26.5769 32.8462 26.4615 32.8462C26.3462 32.8462 26.2692 32.8077 26.1923 32.7308L23.1923 29.5L23.1154 29.3846Z" fill="white"/>
<defs>
<clipPath id="clip0">
<rect width="33" height="33" fill="white"/>
</clipPath>
</defs>
</svg>
