<svg width="29" height="29" viewBox="0 0 29 29" fill="none" xmlns="http://www.w3.org/2000/svg">
<g>
<path d="M20.8308 8.08204C21.2464 8.43138 21.7745 8.62345 22.3162 8.62345C23.0036 8.62345 23.6505 8.32197 24.0923 7.79632C24.9129 6.81845 24.7847 5.35507 23.8069 4.53389C23.3907 4.18455 22.8626 3.99219 22.3203 3.99219C21.6332 3.99219 20.9863 4.29366 20.5451 4.81931C19.7242 5.79748 19.8527 7.26056 20.8308 8.08204Z" fill="white"/>
<path d="M26.2961 10.7324C26.1525 10.7324 26.0074 10.7452 25.8656 10.7702C24.5321 11.0054 23.6378 12.2823 23.873 13.6164C24.0799 14.7922 25.0952 15.6455 26.2869 15.6455C26.4302 15.6455 26.5758 15.6328 26.7183 15.6081C28.0517 15.3726 28.9457 14.0959 28.7105 12.7625C28.503 11.5863 27.4874 10.7324 26.2961 10.7324Z" fill="white"/>
<path d="M26.2107 18.7645C25.8159 18.5361 25.3682 18.416 24.9162 18.416C23.9892 18.416 23.1258 18.914 22.6629 19.7156C22.3166 20.3158 22.2238 21.0151 22.4037 21.6853C22.5835 22.3554 23.0137 22.9159 23.6134 23.2622C24.0086 23.4909 24.4563 23.6113 24.9088 23.6113C25.8352 23.6113 26.6986 23.1136 27.1612 22.3123C27.8766 21.0719 27.4502 19.4804 26.2107 18.7645Z" fill="white"/>
<path d="M18.8247 23.3828C18.5066 23.3828 18.1915 23.4387 17.8882 23.5487C17.2014 23.7988 16.6535 24.3015 16.3443 24.9642C16.0354 25.6269 16.003 26.3702 16.2527 27.0573C16.6452 28.1354 17.6792 28.8599 18.8256 28.8599C19.1438 28.8599 19.4589 28.804 19.7613 28.6937C20.4475 28.4437 20.9951 27.9412 21.3046 27.2773C21.6138 26.6143 21.6465 25.871 21.3974 25.1851C21.0055 24.1074 19.9712 23.3828 18.8247 23.3828Z" fill="white"/>
<path d="M11.8637 23.4155C11.5444 23.2996 11.2132 23.2407 10.8796 23.2407C9.67431 23.2407 8.58734 24.0024 8.17497 25.1361C7.91156 25.8589 7.94575 26.6405 8.27071 27.3371C8.59537 28.034 9.17186 28.5623 9.89462 28.8255C10.2133 28.9417 10.5448 29 10.8793 29C12.0852 29 13.1719 28.2383 13.5839 27.1055C13.8468 26.3842 13.8123 25.6026 13.487 24.9054C13.1615 24.2073 12.5853 23.6784 11.8637 23.4155Z" fill="white"/>
<path d="M7.40773 19.5039C6.86959 18.5724 5.86676 17.9941 4.7899 17.9941C4.26337 17.9941 3.74277 18.1345 3.28343 18.3988C2.58475 18.8022 2.08527 19.454 1.87685 20.232C1.66784 21.011 1.77487 21.8247 2.17832 22.5231C2.71646 23.4549 3.71958 24.0335 4.79644 24.0335C5.32268 24.0335 5.84328 23.8931 6.30232 23.6285C7.74369 22.7964 8.2396 20.9459 7.40773 19.5039Z" fill="white"/>
<path d="M3.41784 16.3495C4.95137 16.3495 6.25864 15.2509 6.52563 13.7373C6.67191 12.9057 6.48609 12.0673 6.00177 11.3766C5.51804 10.6851 4.79379 10.2237 3.96192 10.0768C3.77759 10.0447 3.59117 10.0283 3.40892 10.0283C1.87539 10.0283 0.568114 11.1266 0.301129 12.6402C0.154852 13.4712 0.340671 14.3096 0.824991 15.0012C1.30901 15.6924 2.03356 16.1542 2.86484 16.3008C3.04828 16.3332 3.2344 16.3495 3.41784 16.3495Z" fill="white"/>
<path d="M7.3885 9.60918C8.16121 9.60918 8.914 9.33476 9.50832 8.83676C10.1826 8.27097 10.5962 7.47506 10.6732 6.59561C10.7502 5.71615 10.4808 4.86048 9.91475 4.18617C9.28623 3.43694 8.36367 3.00732 7.38433 3.00732C6.61043 3.00732 5.85764 3.28145 5.26421 3.77945C4.58902 4.34613 4.17456 5.14204 4.09786 6.0203C4.02085 6.89797 4.29052 7.75394 4.85749 8.42974C5.48689 9.17927 6.40915 9.60918 7.3885 9.60918Z" fill="white"/>
<path d="M14.8525 7.18073C16.8354 7.18073 18.4429 5.57327 18.4429 3.59036C18.4429 1.60746 16.8354 0 14.8525 0C12.8697 0 11.2622 1.60746 11.2622 3.59036C11.2622 5.57327 12.8697 7.18073 14.8525 7.18073Z" fill="white"/>
</g>
<defs>
<clipPath id="clip0">
<rect width="29" height="29" fill="white"/>
</clipPath>
</defs>
</svg>
