<svg width="19" height="19" viewBox="0 0 19 19" fill="none" xmlns="http://www.w3.org/2000/svg">
<path d="M9.37388 0.000863367C4.1276 0.0710808 -0.0680913 4.3814 0.00171302 9.62787C0.0719304 14.8721 4.38183 19.069 9.6279 18.9992C14.8731 18.9286 19.0697 14.6183 18.9999 9.3722C18.9296 4.12758 14.6195 -0.0691475 9.37388 0.000863367ZM9.34579 15.2826L9.29333 15.2818C8.48542 15.2579 7.91583 14.6627 7.93876 13.8667C7.96127 13.0844 8.54469 12.5165 9.32596 12.5165L9.37284 12.5173C10.2033 12.5419 10.7665 13.1311 10.7431 13.95C10.72 14.7345 10.1456 15.2826 9.34579 15.2826ZM12.7441 8.53785C12.5541 8.80778 12.1363 9.14296 11.6099 9.55311L11.0302 9.95335C10.7119 10.2008 10.5199 10.4335 10.4478 10.6625C10.391 10.8428 10.3631 10.8905 10.3582 11.2573L10.3573 11.3505H8.14383L8.15024 11.1632C8.17729 10.3932 8.19629 9.94034 8.51537 9.56612C9.01597 8.97836 10.1202 8.26731 10.1671 8.23716C10.3253 8.11799 10.4587 7.98231 10.5581 7.83733C10.7904 7.51702 10.8933 7.26485 10.8933 7.01703C10.8933 6.67317 10.7912 6.35512 10.5895 6.07198C10.3955 5.79875 10.0271 5.66039 9.49428 5.66039C8.96579 5.66039 8.60396 5.82808 8.38753 6.17215C8.1649 6.52592 8.05234 6.89745 8.05234 7.27704V7.37142H5.77007L5.7742 7.27291C5.83306 5.87496 6.33202 4.86837 7.25662 4.28103C7.83756 3.90702 8.56039 3.71743 9.40382 3.71743C10.5079 3.71743 11.4399 3.9857 12.1737 4.51481C12.9172 5.05094 13.2943 5.8539 13.2943 6.90137C13.2943 7.48728 13.1092 8.03766 12.7441 8.53785Z" fill="#FF5271"/>
</svg>
