<svg width="30" height="30" viewBox="0 0 30 30" fill="none" xmlns="http://www.w3.org/2000/svg">
<path d="M8.83764 19.3012C8.83764 18.803 8.49193 18.5059 7.88197 18.5059C7.63289 18.5059 7.46421 18.5304 7.37598 18.554V20.1525C7.48045 20.176 7.60888 20.1838 7.7859 20.1838C8.43606 20.1838 8.83764 19.8553 8.83764 19.3012Z" fill="white"/>
<path d="M19.6288 0H7.57954C5.81926 0 4.38658 1.43367 4.38658 3.19295V14.9999H4.07472C3.36427 14.9999 2.78809 15.5756 2.78809 16.2866V24.0896C2.78809 24.8006 3.3642 25.3762 4.07472 25.3762H4.38658V26.807C4.38658 28.5682 5.81926 29.9999 7.57954 29.9999H24.0202C25.7793 29.9999 27.2122 28.5681 27.2122 26.807V7.55687L19.6288 0ZM24.0202 28.0445H7.57954C6.89795 28.0445 6.34292 27.4895 6.34292 26.807V25.3762H21.669C22.3796 25.3762 22.9557 24.8006 22.9557 24.0896V16.2866C22.9557 15.5756 22.3796 14.9999 21.669 14.9999H6.34292V3.19295C6.34292 2.51236 6.89801 1.95734 7.57954 1.95734L18.8972 1.94551V6.12892C18.8972 7.35085 19.8887 8.34324 21.1115 8.34324L25.2096 8.33148L25.2557 26.8069C25.2557 27.4895 24.7017 28.0445 24.0202 28.0445Z" fill="white"/>
<path d="M5.231 20.536C5.231 20.0507 5.336 19.619 5.546 19.241C5.756 18.8583 6.04767 18.562 6.421 18.352C6.799 18.1373 7.226 18.03 7.702 18.03C8.28533 18.03 8.78467 18.184 9.2 18.492C9.61533 18.8 9.893 19.22 10.033 19.752H8.717C8.61433 19.5513 8.47433 19.3997 8.297 19.297C8.11967 19.1897 7.91667 19.136 7.688 19.136C7.31933 19.136 7.02067 19.2643 6.792 19.521C6.56333 19.773 6.449 20.1113 6.449 20.536C6.449 20.9607 6.56333 21.3013 6.792 21.558C7.02067 21.8147 7.31933 21.943 7.688 21.943C7.91667 21.943 8.11967 21.8893 8.297 21.782C8.47433 21.6747 8.61433 21.5207 8.717 21.32H10.033C9.893 21.852 9.61533 22.272 9.2 22.58C8.78467 22.8833 8.28533 23.035 7.702 23.035C7.226 23.035 6.799 22.93 6.421 22.72C6.04767 22.5053 5.756 22.209 5.546 21.831C5.336 21.453 5.231 21.0213 5.231 20.536ZM12.544 23.049C12.1847 23.049 11.8627 22.9907 11.578 22.874C11.2934 22.7573 11.0647 22.5847 10.892 22.356C10.724 22.1273 10.6354 21.852 10.626 21.53H11.9C11.9187 21.7167 11.9817 21.859 12.089 21.957C12.1964 22.055 12.3364 22.104 12.509 22.104C12.6864 22.104 12.8264 22.062 12.929 21.978C13.0317 21.8893 13.083 21.7727 13.083 21.628C13.083 21.5067 13.041 21.4063 12.957 21.327C12.8777 21.2477 12.7774 21.1823 12.656 21.131C12.5394 21.0797 12.3714 21.0213 12.152 20.956C11.8347 20.858 11.5757 20.76 11.375 20.662C11.1744 20.564 11.0017 20.4193 10.857 20.228C10.7124 20.0367 10.64 19.787 10.64 19.479C10.64 19.0217 10.8057 18.6647 11.137 18.408C11.4684 18.1467 11.9 18.016 12.432 18.016C12.9734 18.016 13.4097 18.1467 13.741 18.408C14.0724 18.6647 14.2497 19.024 14.273 19.486H12.978C12.9687 19.318 12.9104 19.1897 12.803 19.101C12.7004 19.0077 12.5627 18.961 12.39 18.961C12.2454 18.961 12.1287 19.0007 12.04 19.08C11.9514 19.1593 11.907 19.2737 11.907 19.423C11.907 19.5817 11.9817 19.7053 12.131 19.794C12.2804 19.8827 12.5137 19.9783 12.831 20.081C13.1484 20.1883 13.405 20.291 13.601 20.389C13.8017 20.487 13.9744 20.6293 14.119 20.816C14.2637 21.0027 14.336 21.243 14.336 21.537C14.336 21.817 14.2637 22.0713 14.119 22.3C13.979 22.5287 13.7737 22.7107 13.503 22.846C13.2324 22.9813 12.9127 23.049 12.544 23.049ZM15.9757 18.086L17.1937 21.796L18.4117 18.086H19.6857L17.9427 23H16.4447L14.7017 18.086H15.9757Z" fill="#67DF54"/>
</svg>
