<svg width="64" height="62" viewBox="0 0 64 62" fill="none" xmlns="http://www.w3.org/2000/svg">
<g>
<path fill-rule="evenodd" clip-rule="evenodd" d="M36.8919 14.8481H43.333C44.2335 14.8481 44.9635 15.5782 44.9635 16.4788V25.3927C44.9635 31.538 41.6375 34.969 35.5905 35.0891C35.0221 36.4946 34.2777 37.7734 33.3659 38.8756C32.0858 40.4228 30.5366 41.5805 28.8206 42.3013V50.6673H35.2615C36.162 50.6673 36.892 51.3974 36.892 52.298V60.3695C36.892 61.27 36.162 62.0002 35.2615 62.0002H13.7373C12.8368 62.0002 12.1066 61.27 12.1066 60.3695V52.298C12.1066 51.3974 12.8368 50.6673 13.7373 50.6673H20.1783V42.3013C18.4621 41.5805 16.9131 40.4228 15.633 38.8756C14.7211 37.7734 13.9767 36.4948 13.4083 35.0891C7.36122 34.969 4.03516 31.5378 4.03516 25.3927V16.4788C4.03516 15.5782 4.76521 14.8481 5.66569 14.8481H12.1066V14.6307C12.1066 13.7302 12.8368 13 13.7373 13H35.2614C36.1618 13 36.8919 13.7302 36.8919 14.6307V14.8481ZM7.29638 18.1094V25.3927C7.29638 29.3896 8.89721 31.3984 12.444 31.769C12.2226 30.5875 12.1066 29.353 12.1066 28.0833V18.1094H7.29638ZM33.6308 58.7386V53.9284H15.3679V58.7386H33.6308ZM23.4393 43.1132V50.6673H25.5594V43.1132C25.2091 43.1461 24.8562 43.1665 24.4993 43.1665C24.1425 43.1665 23.7896 43.1461 23.4393 43.1132ZM36.5547 31.769C40.1015 31.3983 41.7023 29.3896 41.7023 25.3927V18.1094H36.8919V28.0833C36.8919 29.353 36.7761 30.5875 36.5547 31.769Z" fill="white"/>
</g>
<circle cx="47" cy="17" r="15" fill="#59CDFF" stroke="#4800A5" stroke-width="4"/>
<g>
<path d="M47.0582 14.0921C47.0582 14.0921 45.6846 16.6786 45.6849 17.4382C45.6839 18.1957 46.2986 18.8104 47.0578 18.8111C47.8164 18.8104 48.431 18.1957 48.431 17.4378C48.43 16.679 47.0582 14.0921 47.0582 14.0921Z" fill="white"/>
<path d="M47.5918 9.35032L49.6272 9.35066L49.6261 7.60569C49.6261 7.60569 47.6041 6.74056 44.3936 7.60638L44.3936 9.351L46.4287 9.35032L46.4294 9.351L46.4297 9.79211C44.6933 9.92537 42.9948 10.6508 41.6667 11.9789C38.7149 14.9307 38.7145 19.7145 41.667 22.667C44.6181 25.6181 49.4027 25.6185 52.3545 22.6667C55.3062 19.7149 55.3059 14.9303 52.3548 11.9792C51.026 10.6504 49.3268 9.92571 47.5921 9.79211L47.5918 9.35032ZM51.1319 13.3818C51.1353 13.3866 51.1394 13.3914 51.1449 13.3969L51.2214 13.3203C52.1286 14.3122 52.6497 15.5706 52.7105 16.9128H52.6141C52.6155 16.9339 52.6186 16.9548 52.6196 16.9756L51.1616 16.976L51.162 17.4335L52.7105 17.4335C52.6483 18.777 52.1293 20.034 51.2211 21.0276L51.2009 21.0075C51.1774 21.0351 51.1558 21.0621 51.1309 21.0898L50.0505 20.0094L49.759 20.3009L50.8535 21.3953C50.7014 21.5337 50.5429 21.6594 50.3799 21.7793C49.4567 22.4893 48.3465 22.8942 47.1698 22.9475L47.1701 21.3973L46.7396 21.398L46.7396 22.885C46.7089 22.8823 46.6805 22.8771 46.6497 22.8771L46.6504 22.9475C45.2687 22.8853 44.0147 22.3332 43.0566 21.4578L44.1514 20.363L43.797 20.0087L42.7788 21.0269C42.7747 21.0228 42.7703 21.017 42.7662 21.0129L42.689 21.0901C41.8132 20.1317 41.2614 18.8781 41.1999 17.4957L41.2953 17.4967C41.2946 17.4748 41.2908 17.4547 41.2894 17.4328L42.7495 17.4345L42.7491 16.9756L41.1999 16.9756C41.2604 15.6325 41.7825 14.3737 42.6897 13.3825L42.7098 13.4027C42.7324 13.376 42.7549 13.3466 42.7788 13.32L43.8592 14.4004L44.1507 14.1089L43.057 13.0152C43.2076 12.8768 43.3679 12.7507 43.5305 12.6311C44.4548 11.9215 45.5642 11.5173 46.7396 11.464V13.0111L47.1715 13.0118L47.1701 11.5261C47.2009 11.5275 47.2303 11.533 47.26 11.5354L47.2603 11.4633C48.6031 11.5248 49.8605 12.0448 50.8535 12.953L49.7584 14.0481L50.1127 14.4024L51.1326 13.3825L51.1319 13.3818Z" fill="white"/>
</g>
<defs>
<clipPath id="clip0">
<rect y="13" width="49" height="49" fill="white"/>
</clipPath>
<clipPath id="clip1">
<rect x="35.5" y="16.5" width="16.2784" height="16.2784" transform="rotate(-45 35.5 16.5)" fill="white"/>
</clipPath>
</defs>
</svg>
