<svg width="79" height="80" viewBox="0 0 79 80" fill="none" xmlns="http://www.w3.org/2000/svg">
<g>
<path fill-rule="evenodd" clip-rule="evenodd" d="M45.1751 22.263H53.0622C54.1648 22.263 55.0587 23.157 55.0587 24.2598V35.1748C55.0587 42.6996 50.986 46.9008 43.5816 47.0479C42.8856 48.7689 41.9741 50.3348 40.8575 51.6845C39.2901 53.579 37.3931 54.9966 35.2919 55.8792V66.1232H43.1787C44.2814 66.1232 45.1753 67.0172 45.1753 68.12V78.0035C45.1753 79.1061 44.2814 80.0002 43.1787 80.0002H16.8226C15.72 80.0002 14.8258 79.1061 14.8258 78.0035V68.12C14.8258 67.0172 15.72 66.1232 16.8226 66.1232H24.7095V55.8792C22.608 54.9966 20.7113 53.579 19.1438 51.6845C18.0272 50.3348 17.1157 48.7691 16.4198 47.0479C9.01511 46.9008 4.94238 42.6994 4.94238 35.1748V24.2598C4.94238 23.157 5.83632 22.263 6.93895 22.263H14.8258V21.9968C14.8258 20.8941 15.72 20 16.8226 20H43.1785C44.2812 20 45.1751 20.8941 45.1751 21.9968V22.263ZM8.93572 26.2564V35.1748C8.93572 40.0689 10.8959 42.5287 15.2389 42.9824C14.9678 41.5358 14.8258 40.024 14.8258 38.4693V26.2564H8.93572ZM41.182 76.0065V70.1164H18.8192V76.0065H41.182ZM28.7026 56.8733V66.1232H31.2985V56.8733C30.8697 56.9135 30.4375 56.9386 30.0006 56.9386C29.5636 56.9386 29.1315 56.9135 28.7026 56.8733ZM44.7622 42.9824C49.1052 42.5285 51.0654 40.0689 51.0654 35.1748V26.2564H45.1751V38.4693C45.1751 40.024 45.0333 41.5358 44.7622 42.9824Z" fill="#8946DF"/>
</g>
<circle cx="57.2496" cy="21.525" r="19.025" fill="#38B21A" stroke="#F9F6FD" stroke-width="5"/>
<path d="M58.9972 18.2656C58.9972 17.6184 59.5218 17.0938 60.1691 17.0938C60.8163 17.0938 61.3409 17.6184 61.3409 18.2656V19.0469C61.3409 18.3996 61.8656 17.875 62.5128 17.875C63.1601 17.875 63.6847 18.3996 63.6847 19.0469V22.975C63.6847 26.0738 62.1222 26.0355 62.1222 28.8125V29.8281C62.1222 30.2598 61.7726 30.6094 61.3409 30.6094H55.8722C55.4406 30.6094 55.0909 30.2598 55.0909 29.8281V28.8125C55.0909 26.7531 54.687 27.5891 50.5538 21.9582C50.0824 21.3156 50.3413 20.4 51.0808 20.1039C51.5347 19.9227 52.0527 20.0297 52.3972 20.3766L54.3097 22.302V12.5625C54.3097 11.9152 54.8343 11.3906 55.4816 11.3906C56.1288 11.3906 56.6534 11.9152 56.6534 12.5625V17.4844C56.6534 16.8371 57.1781 16.3125 57.8253 16.3125C58.4726 16.3125 58.9972 16.8371 58.9972 17.4844V18.2656Z" fill="white"/>
<path d="M62.1221 22.9531C62.3377 22.9531 62.5127 22.7781 62.5127 22.5625C62.5127 22.3469 62.3377 22.1719 62.1221 22.1719C61.9064 22.1719 61.7314 22.3469 61.7314 22.5625C61.7314 22.7781 61.9064 22.9531 62.1221 22.9531Z" fill="#38B21A"/>
<path d="M60.558 28.4199C60.7725 28.4414 60.9641 28.2847 60.9854 28.0699C61.1039 26.8802 61.4946 26.1562 61.8391 25.5179C62.0583 25.1126 62.2653 24.7298 62.3878 24.2104C62.4374 24.0004 62.3073 23.79 62.0973 23.7405C61.8872 23.6909 61.6769 23.8211 61.6274 24.0311C61.5288 24.4495 61.3625 24.757 61.1518 25.1465C60.791 25.815 60.342 26.647 60.208 27.9926C60.1867 28.2072 60.3434 28.3986 60.558 28.4199Z" fill="#38B21A"/>
<defs>
<clipPath id="clip0">
<rect width="60" height="60" fill="white" transform="translate(0 20)"/>
</clipPath>
</defs>
</svg>
