<svg width="13" height="23" viewBox="0 0 13 23" fill="none" xmlns="http://www.w3.org/2000/svg">
<path d="M12.2225 14.6908C12.2225 11.7321 9.66895 10.7377 7.41002 9.86607C5.66671 9.19085 4.16895 8.61384 4.16895 7.3125C4.16895 6.19531 5.2493 5.42188 6.80845 5.42188C8.64997 5.42188 10.1355 6.73549 10.1477 6.74777C10.246 6.82143 10.3564 6.85826 10.4792 6.8337C10.602 6.82143 10.7002 6.74777 10.7616 6.63728L11.756 4.84487C11.8419 4.69754 11.8174 4.51339 11.6946 4.37835C11.6455 4.32924 10.3196 2.97879 7.82743 2.69643V0.535714C7.82743 0.314732 7.65555 0.142856 7.43457 0.142856H5.7772C5.5685 0.142856 5.38435 0.314732 5.38435 0.535714V2.74553C2.8185 3.23661 1.05064 5.10268 1.05064 7.36161C1.05064 10.4431 3.80064 11.548 6.01046 12.4196C7.66783 13.0826 9.11649 13.6596 9.11649 14.8382C9.11649 16.2254 7.81515 16.8638 6.61203 16.8638C4.43903 16.8638 2.72028 15.2187 2.69573 15.2065C2.62207 15.1205 2.51158 15.0837 2.40109 15.096C2.2906 15.1083 2.18011 15.1574 2.11872 15.2433L0.854213 16.9007C0.743722 17.048 0.755999 17.2567 0.878767 17.404C0.940151 17.4777 2.51158 19.1964 5.38435 19.6016V21.75C5.38435 21.971 5.5685 22.1429 5.7772 22.1429H7.43457C7.65555 22.1429 7.82743 21.971 7.82743 21.75V19.6016C10.4301 19.1719 12.2225 17.1953 12.2225 14.6908Z" fill="white"/>
</svg>
