<svg width="53" height="53" viewBox="0 0 53 53" fill="none" xmlns="http://www.w3.org/2000/svg">
<g>
<path d="M26.0262 23.4586C25.5929 23.3395 25.1487 23.2745 24.6829 23.2745C21.8988 23.2745 19.6348 25.5385 19.6348 28.3226C19.6348 31.1067 21.8988 33.3707 24.6829 33.3707C27.467 33.3707 29.731 31.1067 29.731 28.3226C29.731 27.8568 29.666 27.4018 29.5469 26.9793L43.608 12.9182L45.8829 13.2215L53.0001 6.1043L47.6162 5.38933L46.9012 0.00537109L39.784 7.12259L40.0873 9.3975L26.0262 23.4586Z" fill="#17A4E0"/>
<path d="M25.2244 18.6271L29.3843 14.4673C24.282 12.734 18.3997 13.9039 14.3374 17.9771C8.62843 23.6861 8.62843 32.959 14.3374 38.668C20.0463 44.3769 29.3193 44.3769 35.0282 38.668C39.1014 34.5948 40.2714 28.7234 38.5381 23.6102L34.3783 27.7701C34.5299 30.435 33.5874 33.154 31.5509 35.1906C27.7593 38.9821 21.6063 38.9821 17.8147 35.1906C14.0232 31.3991 14.0232 25.246 17.8147 21.4545C19.8513 19.4179 22.5595 18.4754 25.2244 18.6271Z" fill="#8946DF"/>
<path d="M42.1238 20.0354C45.5361 27.2068 44.2687 36.0356 38.3322 41.9721C30.7925 49.5118 18.573 49.5118 11.0333 41.9721C3.49361 34.4324 3.49361 22.2128 11.0333 14.6731C16.9697 8.73669 25.7986 7.48007 32.97 10.8816L36.9456 6.90593C27.521 1.50031 15.2798 2.82192 7.23097 10.8708C-2.41032 20.5121 -2.41032 36.1331 7.23097 45.7636C16.8723 55.4049 32.4933 55.4049 42.1238 45.7636C50.1726 37.7147 51.4942 25.4735 46.0886 16.0489L42.1238 20.0354Z" fill="#8946DF"/>
</g>
<defs>
<clipPath id="clip0">
<rect width="53" height="53" fill="white"/>
</clipPath>
</defs>
</svg>
