<svg width="53" height="53" viewBox="0 0 53 53" fill="none" xmlns="http://www.w3.org/2000/svg">
<g>
<path d="M26.0281 23.4587C25.5948 23.3395 25.1507 23.2745 24.6849 23.2745C21.9008 23.2745 19.6367 25.5386 19.6367 28.3227C19.6367 31.1067 21.9008 33.3708 24.6849 33.3708C27.4689 33.3708 29.733 31.1067 29.733 28.3227C29.733 27.8568 29.668 27.4019 29.5488 26.9794L43.6099 12.9183L45.8849 13.2216L53.0021 6.10436L47.6181 5.38939L46.9031 0.00543213L39.7859 7.12265L40.0892 9.39756L26.0281 23.4587Z" fill="#59CDFF"/>
<path d="M25.2235 18.6271L29.3833 14.4673C24.281 12.734 18.3987 13.904 14.3364 17.9772C8.62745 23.6861 8.62745 32.9591 14.3364 38.668C20.0453 44.377 29.3183 44.377 35.0273 38.668C39.1004 34.5949 40.2704 28.7234 38.5371 23.6103L34.3773 27.7701C34.5289 30.435 33.5865 33.1541 31.5499 35.1907C27.7584 38.9822 21.6053 38.9822 17.8138 35.1907C14.0222 31.3991 14.0222 25.2461 17.8138 21.4545C19.8503 19.418 22.5586 18.4755 25.2235 18.6271Z" fill="white"/>
<path d="M42.1238 20.0354C45.5361 27.2068 44.2687 36.0356 38.3322 41.9721C30.7925 49.5118 18.573 49.5118 11.0333 41.9721C3.49361 34.4324 3.49361 22.2128 11.0333 14.6731C16.9697 8.73669 25.7986 7.48007 32.97 10.8816L36.9456 6.90593C27.521 1.50031 15.2798 2.82192 7.23097 10.8708C-2.41032 20.5121 -2.41032 36.1331 7.23097 45.7636C16.8723 55.4049 32.4933 55.4049 42.1238 45.7636C50.1726 37.7147 51.4942 25.4735 46.0886 16.0489L42.1238 20.0354Z" fill="white"/>
</g>
<defs>
<clipPath id="clip0">
<rect width="53" height="53" fill="white"/>
</clipPath>
</defs>
</svg>
