<svg width="19" height="22" viewBox="0 0 19 22" fill="none" xmlns="http://www.w3.org/2000/svg">
<path d="M12.3373 17.3761V6.52517C12.3373 6.04696 11.9499 5.65938 11.4718 5.65938C10.9938 5.65938 10.6064 6.04696 10.6064 6.52517V17.3761C10.6064 17.8546 10.9938 18.2419 11.4718 18.2419C11.9499 18.2419 12.3373 17.8546 12.3373 17.3761ZM8.39335 17.3761V6.52517C8.39335 6.04696 8.00591 5.65938 7.52788 5.65938C7.04985 5.65938 6.66241 6.04696 6.66241 6.52517V17.3761C6.66241 17.8546 7.04985 18.2419 7.52788 18.2419C8.00591 18.2419 8.39335 17.8546 8.39335 17.3761ZM16.2132 5.65938C15.7351 5.65938 15.3477 6.04696 15.3477 6.52517V19.6309C15.3477 19.9821 15.0624 20.2684 14.7116 20.2684H4.28928C3.9379 20.2684 3.652 19.9821 3.652 19.6309V6.52517C3.652 6.04696 3.26456 5.65938 2.78653 5.65938C2.3085 5.65938 1.92106 6.04696 1.92106 6.52517V19.6309C1.92106 20.9368 2.98357 22 4.28928 22H14.7113C16.0164 22 17.0784 20.9368 17.0784 19.6309V6.52517C17.0787 6.04667 16.6912 5.65938 16.2132 5.65938ZM18.1345 2.96187H14.2162V0.86579C14.2162 0.387585 13.8288 0 13.3508 0H5.64923C5.1712 0 4.78375 0.387585 4.78375 0.86579V2.96187H0.865472C0.387443 2.96187 0 3.34945 0 3.82766C0 4.30586 0.387443 4.69345 0.865472 4.69345H18.1345C18.6126 4.69345 19 4.30586 19 3.82766C19 3.34945 18.6126 2.96187 18.1345 2.96187ZM12.4853 2.96187H6.5147V1.73158H12.485V2.96187H12.4853Z" fill="#8946DF"/>
</svg>
