<svg width="26" height="30" viewBox="0 0 26 30" fill="none" xmlns="http://www.w3.org/2000/svg">
<path d="M16.8826 23.6947V8.89795C16.8826 8.24586 16.3524 7.71733 15.6983 7.71733C15.0442 7.71733 14.514 8.24586 14.514 8.89795V23.6947C14.514 24.3472 15.0442 24.8753 15.6983 24.8753C16.3524 24.8753 16.8826 24.3472 16.8826 23.6947ZM11.4856 23.6947V8.89795C11.4856 8.24586 10.9555 7.71733 10.3013 7.71733C9.64716 7.71733 9.11698 8.24586 9.11698 8.89795V23.6947C9.11698 24.3472 9.64716 24.8753 10.3013 24.8753C10.9555 24.8753 11.4856 24.3472 11.4856 23.6947ZM22.1865 7.71733C21.5323 7.71733 21.0021 8.24586 21.0021 8.89795V26.7694C21.0021 27.2484 20.6117 27.6388 20.1316 27.6388H5.86954C5.3887 27.6388 4.99748 27.2484 4.99748 26.7694V8.89795C4.99748 8.24586 4.46729 7.71733 3.81315 7.71733C3.159 7.71733 2.62882 8.24586 2.62882 8.89795V26.7694C2.62882 28.5502 4.08278 30 5.86954 30H20.1312C21.9172 30 23.3704 28.5502 23.3704 26.7694V8.89795C23.3708 8.24546 22.8406 7.71733 22.1865 7.71733ZM24.8157 4.03891H19.4538V1.18062C19.4538 0.528525 18.9236 0 18.2695 0H7.73052C7.07637 0 6.54619 0.528525 6.54619 1.18062V4.03891H1.18433C0.530185 4.03891 0 4.56743 0 5.21953C0 5.87163 0.530185 6.40015 1.18433 6.40015H24.8157C25.4698 6.40015 26 5.87163 26 5.21953C26 4.56743 25.4698 4.03891 24.8157 4.03891ZM17.0851 4.03891H8.91485V2.36124H17.0848V4.03891H17.0851Z" fill="#EB5757"/>
</svg>
