<svg width="29" height="29" viewBox="0 0 29 29" fill="none" xmlns="http://www.w3.org/2000/svg">
<g clip-path="url(#clip0)">
<path d="M25.571 7.84223L18.0058 0.277029C17.8365 0.107617 17.5969 0 17.3371 0H4.09802C3.57579 0 3.15234 0.423389 3.15234 0.945672V28.0544C3.15234 28.5766 3.57573 29.0001 4.09802 29.0001H24.9023C25.4246 29.0001 25.848 28.5767 25.848 28.0544V8.51088C25.848 8.27066 25.7529 8.02405 25.571 7.84223ZM18.2828 3.22863L20.4511 5.39689L22.6194 7.56521H18.2828V3.22863ZM23.9567 27.1087H5.04363V1.89129H16.3915V8.51088C16.3915 9.0331 16.8149 9.45655 17.3371 9.45655H23.9567V27.1087Z" fill="#4800A5"/>
<path d="M21.1194 13.8696H7.88024C7.35802 13.8696 6.93457 14.293 6.93457 14.8153C6.93457 15.3375 7.35796 15.761 7.88024 15.761H21.1194C21.6416 15.761 22.0651 15.3376 22.0651 14.8153C22.065 14.293 21.6416 13.8696 21.1194 13.8696Z" fill="#17A4E0"/>
<path d="M21.1194 17.6523H7.88024C7.35802 17.6523 6.93457 18.0757 6.93457 18.598C6.93457 19.1203 7.35796 19.5437 7.88024 19.5437H21.1194C21.6416 19.5437 22.0651 19.1203 22.0651 18.598C22.0651 18.0757 21.6416 17.6523 21.1194 17.6523Z" fill="#17A4E0"/>
<path d="M21.1193 21.4348H13.5541C13.0318 21.4348 12.6084 21.8582 12.6084 22.3805C12.6084 22.9028 13.0318 23.3262 13.5541 23.3262H21.1193C21.6415 23.3262 22.0649 22.9028 22.0649 22.3805C22.0649 21.8582 21.6416 21.4348 21.1193 21.4348Z" fill="#17A4E0"/>
</g>
<defs>
<clipPath id="clip0">
<rect width="29" height="29" transform="matrix(-1 0 0 1 29 0)" fill="white"/>
</clipPath>
</defs>
</svg>
