<svg width="48" height="48" viewBox="0 0 48 48" fill="none" xmlns="http://www.w3.org/2000/svg">
<path d="M6.07247 26.923C6.34467 27.1951 6.65792 27.3313 7.01179 27.3313C7.36566 27.3313 7.67891 27.1951 7.95111 26.923L24.0003 10.8736L40.05 26.923C40.3221 27.1951 40.6355 27.3313 40.9888 27.3313C41.3432 27.3313 41.6565 27.1951 41.9285 26.923L43.9702 24.8809C44.2423 24.6089 44.3774 24.2955 44.3774 23.9422C44.3774 23.5882 44.2414 23.2749 43.9702 23.0029L24.9389 3.97253C24.667 3.69991 24.3542 3.56445 24.0003 3.56445C23.6464 3.56445 23.333 3.70034 23.061 3.97253L4.03107 23.0027C3.75844 23.2749 3.62256 23.5877 3.62256 23.9425C3.62256 24.2955 3.75887 24.6087 4.03107 24.8809L6.07247 26.923Z" fill="#17A4E0"/>
<path d="M24.9389 20.3073C24.667 20.0347 24.3542 19.8988 24.0003 19.8988C23.6464 19.8988 23.333 20.0351 23.061 20.3073L4.03107 39.3375C3.75844 39.6097 3.62256 39.9228 3.62256 40.2773C3.62256 40.6308 3.75887 40.9439 4.03107 41.2161L6.07247 43.2581C6.34467 43.5303 6.65792 43.6655 7.01179 43.6655C7.36566 43.6655 7.67891 43.5295 7.95111 43.2581L24.0003 27.2082L40.05 43.2581C40.3221 43.5303 40.6355 43.666 40.9888 43.666C41.3432 43.666 41.6565 43.5305 41.9285 43.2581L43.9702 41.2161C44.2423 40.9439 44.3774 40.6307 44.3774 40.2773C44.3774 39.9228 44.2414 39.6097 43.9702 39.3375L24.9389 20.3073Z" fill="#8946DF"/>
</svg>
