<svg width="55" height="55" viewBox="0 0 55 55" fill="none" xmlns="http://www.w3.org/2000/svg">
<path d="M16.6855 6.13867C11.1499 6.13867 6.64648 10.9136 6.64648 16.7827C6.64648 22.6518 11.1499 27.4267 16.6855 27.4267C22.221 27.4267 26.7246 22.6518 26.7246 16.7827C26.7246 10.9136 22.2212 6.13867 16.6855 6.13867Z" fill="#8946DF"/>
<path d="M43.958 12.7556C43.7194 12.5161 43.4358 12.3261 43.1236 12.1964C42.8113 12.0667 42.4766 12 42.1385 12C41.8004 12 41.4657 12.0667 41.1534 12.1964C40.8412 12.3261 40.5577 12.5161 40.319 12.7556L30.742 22.3398C30.6094 22.4772 30.5265 22.6551 30.5066 22.845L30.0057 27.0452C29.9917 27.1656 30.0035 27.2877 30.0403 27.4032C30.077 27.5187 30.1379 27.6252 30.2188 27.7154C30.2997 27.8057 30.3989 27.8777 30.5098 27.9268C30.6207 27.9758 30.7407 28.0008 30.8619 28H30.9625L35.1559 27.4948C35.3469 27.4725 35.5249 27.3865 35.6611 27.2507L45.2445 17.6751C45.484 17.4364 45.674 17.1528 45.8036 16.8406C45.9333 16.5283 46 16.1935 46 15.8554C46 15.5173 45.9333 15.1825 45.8036 14.8703C45.674 14.558 45.484 14.2744 45.2445 14.0358L43.958 12.7556ZM34.6614 25.8378L31.8337 26.1675L32.1655 23.3395L39.1288 16.3735L41.6269 18.8717L34.6614 25.8378ZM44.0329 16.4634L42.8363 17.6601L40.3404 15.1639L41.537 13.9673C41.6165 13.8876 41.711 13.8245 41.8149 13.7814C41.9188 13.7383 42.0303 13.7161 42.1428 13.7161C42.2553 13.7161 42.3667 13.7383 42.4707 13.7814C42.5746 13.8245 42.6691 13.8876 42.7486 13.9673L44.0329 15.2517C44.1125 15.3312 44.1757 15.4257 44.2188 15.5296C44.2619 15.6336 44.284 15.745 44.284 15.8575C44.284 15.9701 44.2619 16.0815 44.2188 16.1855C44.1757 16.2894 44.1125 16.3839 44.0329 16.4634Z" fill="#59CDFF"/>
<path d="M33.3384 45.9205C33.0344 41.0231 30.5519 36.7155 26.8469 33.9548C24.1517 31.946 20.8087 30.7568 17.1875 30.7568H16.1842C7.24561 30.7569 0 38.0024 0 46.941C0 48.0018 0.859928 48.8617 1.9207 48.8617H31.4499C32.5107 48.8617 33.3706 48.0018 33.3706 46.941C33.3706 46.5983 33.3599 46.2578 33.3384 45.9205Z" fill="#8946DF"/>
</svg>
