<svg width="27" height="27" viewBox="0 0 27 27" fill="none" xmlns="http://www.w3.org/2000/svg">
<g clip-path="url(#clip0)">
<path d="M26.2962 19.5191L23.4855 16.4852C23.3241 16.311 23.0984 16.2097 22.8611 16.2051C22.8551 16.2051 22.8491 16.2051 22.844 16.2051C22.7457 16.2051 22.6517 16.2299 22.5605 16.2615L22.0514 13.5607C21.8789 12.6318 21.1741 11.8798 20.2568 11.6457L11.4841 9.38784L15.0937 5.77748L15.4566 6.14046C15.6472 6.33048 15.905 6.43772 16.1742 6.43772C16.4432 6.43772 16.7012 6.33048 16.8917 6.14046L18.8528 4.17903C19.2491 3.78269 19.2491 3.14035 18.8528 2.744L16.8908 0.78257C16.4944 0.386279 15.8521 0.386279 15.4558 0.78257L13.4945 2.74363C13.0984 3.13992 13.0984 3.78216 13.4945 4.1785L13.8569 4.54063L4.55713 13.8417L4.19415 13.4791C3.79792 13.0828 3.15558 13.0828 2.75913 13.4791L0.797218 15.441C0.400927 15.8373 0.400927 16.4797 0.797218 16.876L2.75913 18.8379C3.15553 19.2342 3.79786 19.2342 4.19415 18.8379L6.15612 16.876C6.55246 16.4797 6.55246 15.8373 6.15612 15.441L5.79399 15.0785L9.4044 11.4676L11.6584 20.2386C11.89 21.1509 12.6399 21.8555 13.5715 22.0344L16.2767 22.5456C16.2434 22.6413 16.2196 22.7412 16.2212 22.8446C16.2253 23.082 16.3271 23.308 16.5013 23.4693L19.5352 26.2811C19.7036 26.437 19.9159 26.5143 20.1297 26.5143C20.3535 26.5143 20.5781 26.4284 20.748 26.2581L26.2735 20.7319C26.6056 20.3997 26.6159 19.8637 26.2962 19.5191ZM13.3529 19.8053L11.5439 12.7655L14.6844 15.9053C14.5522 16.4553 14.694 17.0583 15.1236 17.488C15.7814 18.1466 16.8489 18.1457 17.5033 17.4888C18.1609 16.8316 18.1617 15.7669 17.5033 15.108C17.0754 14.6788 16.4722 14.5357 15.9214 14.6685L12.7799 11.527L19.823 13.3399C20.0835 13.4065 20.2825 13.6184 20.3319 13.8827L20.9736 17.2851C21.0163 17.5076 20.9452 17.7366 20.7804 17.9002L17.9174 20.7652C17.7543 20.9285 17.5124 20.9968 17.2955 20.9583L13.8986 20.3165C13.6332 20.2651 13.4188 20.0653 13.3529 19.8053ZM20.1064 24.426L18.3563 22.8041L22.8201 18.3409L24.4412 20.0906L20.1064 24.426Z" fill="white"/>
</g>
<defs>
<clipPath id="clip0">
<rect width="26.0294" height="26.0294" fill="white" transform="matrix(1 0 0 -1 0.5 26.5146)"/>
</clipPath>
</defs>
</svg>
