<svg width="17" height="17" viewBox="0 0 17 17" fill="none" xmlns="http://www.w3.org/2000/svg">
<path d="M15.4771 9.63304V7.07371C15.4771 6.96707 15.4417 6.86043 15.3354 6.78934C15.2646 6.71824 15.1583 6.6827 15.0521 6.71824C14.3083 6.86043 13.6708 6.96707 13.0333 7.07371C12.5021 7.1448 11.9708 7.25144 11.5104 7.35808C11.9708 6.57606 12.2542 5.61631 12.2542 4.62101C12.2542 2.06168 10.5896 0 8.53542 0C6.48125 0 4.81667 2.06168 4.81667 4.62101C4.81667 5.61631 5.06458 6.57606 5.56042 7.35808C5.06458 7.25144 4.56875 7.18034 4.0375 7.07371C3.4 6.96707 2.7625 6.86043 2.01875 6.71824C1.9125 6.6827 1.80625 6.71824 1.73542 6.78934C1.66458 6.86043 1.59375 6.96707 1.59375 7.07371V9.63304C0.672917 9.66858 0 10.5572 0 11.6592C0 12.7611 0.672917 13.6498 1.52292 13.6853V14.7517C1.52292 14.9294 1.62917 15.0716 1.80625 15.1072C2.55 15.2493 3.25833 15.356 3.86042 15.4626C5.70208 15.747 7.0125 15.9958 8.2875 16.92C8.42917 17.0267 8.57083 17.0267 8.7125 16.92C9.9875 15.9603 11.2979 15.747 13.1396 15.4626C13.7417 15.356 14.45 15.2493 15.1938 15.1072C15.3708 15.0716 15.4771 14.9294 15.4771 14.7517V13.6853C16.3271 13.6498 17 12.7611 17 11.6592C17 10.5572 16.3271 9.66858 15.4771 9.63304ZM8.5 0.675379C9.91667 0.675379 11.1208 1.99059 11.4396 3.69681C10.7312 3.62572 10.2 3.05698 9.91667 2.55933C9.775 2.34605 9.5625 2.20387 9.31458 2.23941C9.06667 2.23941 8.85417 2.3816 8.7125 2.59488C8.21667 3.51908 6.48125 3.80345 5.525 3.839C5.80833 2.06168 7.0125 0.675379 8.5 0.675379ZM1.59375 13.0099C1.09792 13.0099 0.708333 12.4056 0.708333 11.6592C0.708333 10.9482 1.09792 10.3084 1.59375 10.3084C1.94792 10.344 2.26667 10.5572 2.44375 11.3393V11.3748C2.51458 12.4056 2.16042 12.8677 1.59375 13.0099ZM8.14583 15.9958C6.90625 15.2493 5.59583 15.0361 3.96667 14.7872C3.4 14.6806 2.86875 14.6095 2.23125 14.4673V13.5076L2.26667 13.472C3.32917 12.6545 3.43542 11.3748 2.72708 10.2018C2.72708 10.1307 2.26667 9.73968 2.23125 9.77522V7.46472C2.83333 7.57135 3.36458 7.67799 3.86042 7.74908C5.63125 8.03345 6.90625 8.24673 8.14583 9.09984V15.9958ZM8.5 8.49556C7.89792 8.069 7.26042 7.78463 6.5875 7.57135C5.87917 6.82488 5.48958 5.72295 5.48958 4.54992C6.30417 4.51437 8.60625 4.26555 9.31458 2.91479C9.88125 3.839 10.6604 4.33664 11.5104 4.37219C11.5104 4.40774 11.5104 4.47883 11.5104 4.51438C11.5104 5.6874 11.1208 6.78934 10.4125 7.53581C9.73958 7.82018 9.10208 8.10455 8.5 8.49556ZM14.7688 14.5029C14.1312 14.6095 13.5646 14.7162 13.0333 14.8228C11.4396 15.0716 10.0938 15.2849 8.85417 16.0314V9.13539C10.0938 8.28228 11.3687 8.069 13.1396 7.78463C13.6354 7.71354 14.1667 7.6069 14.7688 7.50026V9.81077C14.7688 9.81077 14.7333 9.81077 14.7333 9.84631C14.6979 9.88186 14.3438 10.1662 14.3438 10.2018C14.025 10.6283 13.8479 11.0904 13.8479 11.6592C13.8833 12.5123 14.1312 13.1521 14.8042 13.5787V14.5029H14.7688ZM15.4062 13.0099C15.0521 12.9744 14.8042 12.7611 14.6625 12.3701C14.2729 11.3748 14.7687 10.3795 15.4062 10.344C15.9021 10.344 16.2917 10.9482 16.2917 11.6947C16.2917 12.3701 15.9021 13.0099 15.4062 13.0099Z" fill="#4800A5"/>
</svg>
