<svg width="22" height="18" viewBox="0 0 22 18" fill="none" xmlns="http://www.w3.org/2000/svg">
<path d="M2.11157 5.68553C2.38986 5.88191 3.22875 6.46516 4.62828 7.43499C6.02785 8.40481 7.10001 9.15155 7.84482 9.67525C7.92665 9.73266 8.1005 9.85744 8.36645 10.0498C8.63245 10.2423 8.85347 10.3978 9.02934 10.5164C9.20534 10.635 9.41811 10.7681 9.66785 10.9153C9.91751 11.0625 10.1529 11.1732 10.3738 11.2464C10.5949 11.3203 10.7994 11.3569 10.9877 11.3569H11H11.0124C11.2006 11.3569 11.4053 11.3203 11.6263 11.2464C11.8472 11.1732 12.0827 11.0624 12.3322 10.9153C12.5818 10.7679 12.7945 10.635 12.9705 10.5164C13.1465 10.3978 13.3674 10.2423 13.6335 10.0498C13.8994 9.85727 14.0734 9.73266 14.1553 9.67525C14.9081 9.15155 16.8235 7.82152 19.9007 5.68527C20.4982 5.26804 20.9973 4.76459 21.3983 4.17528C21.7996 3.58622 22 2.96826 22 2.32175C22 1.7815 21.8055 1.31903 21.4167 0.934398C21.0279 0.549676 20.5675 0.357422 20.0357 0.357422H1.9642C1.33404 0.357422 0.849081 0.570187 0.509423 0.995716C0.169808 1.42133 0 1.95333 0 2.59167C0 3.10728 0.225149 3.66603 0.675231 4.26755C1.12527 4.86913 1.60421 5.34183 2.11157 5.68553Z" fill="white"/>
<path d="M20.7722 6.99919C18.0879 8.81599 16.0497 10.2279 14.6585 11.2347C14.192 11.5784 13.8136 11.8466 13.5229 12.0388C13.2323 12.2311 12.8458 12.4276 12.3628 12.628C11.88 12.8287 11.43 12.9288 11.0126 12.9288H11H10.9877C10.5703 12.9288 10.1201 12.8287 9.63728 12.628C9.15447 12.4276 8.76768 12.2311 8.47713 12.0388C8.18667 11.8466 7.80809 11.5784 7.34163 11.2347C6.23665 10.4245 4.20283 9.0125 1.24008 6.99919C0.773443 6.68839 0.360126 6.33213 0 5.93115V15.6786C0 16.2192 0.192254 16.6814 0.576976 17.066C0.961612 17.4509 1.42412 17.6432 1.96433 17.6432H20.0358C20.5759 17.6432 21.0384 17.4509 21.4231 17.066C21.8079 16.6812 22 16.2192 22 15.6786V5.93115C21.648 6.32383 21.2389 6.68009 20.7722 6.99919Z" fill="white"/>
</svg>
