<svg width="55" height="55" viewBox="0 0 55 55" fill="none" xmlns="http://www.w3.org/2000/svg">
<path d="M16.6855 6.13818C11.1499 6.13818 6.64648 10.9131 6.64648 16.7822C6.64648 22.6513 11.1499 27.4262 16.6855 27.4262C22.221 27.4262 26.7246 22.6513 26.7246 16.7822C26.7246 10.9131 22.2212 6.13818 16.6855 6.13818Z" fill="#8946DF"/>
<path d="M39.5095 7.66138C39.4868 7.66138 39.4638 7.66148 39.4412 7.66159C37.1181 7.68082 34.9481 8.66169 33.3312 10.4237C31.7427 12.1546 30.8789 14.4381 30.8988 16.8534C30.9188 19.2686 31.8201 21.5375 33.4369 23.2421C35.0665 24.9598 37.2252 25.9032 39.5225 25.9032C39.5456 25.9032 39.5687 25.9031 39.5919 25.903C41.915 25.8838 44.0849 24.9028 45.7018 23.1409C47.2904 21.41 48.1542 19.1265 48.1343 16.7111C48.0929 11.7059 44.2306 7.66138 39.5095 7.66138Z" fill="#59CDFF"/>
<path d="M39.9329 27.646H39.0993C36.0768 27.646 33.2601 28.5406 30.8985 30.0785C29.852 30.7599 29.9179 32.2399 30.8073 33.1165C30.8415 33.1502 30.8755 33.184 30.9095 33.218C32.6905 34.999 34.0892 37.0744 35.0667 39.3861C35.6999 40.8827 36.1377 42.437 36.3774 44.0319C36.5355 45.0844 37.4021 45.9206 38.4664 45.9206H52.9999C54.1045 45.9206 54.9999 45.0252 54.9999 43.9206V42.7119C54.9999 34.405 48.2409 27.646 39.9329 27.646Z" fill="#59CDFF"/>
<path d="M33.3384 45.9205C33.0344 41.0231 30.5519 36.7155 26.8469 33.9548C24.1517 31.946 20.8087 30.7568 17.1875 30.7568H16.1842C7.24561 30.7569 0 38.0024 0 46.941C0 48.0018 0.859928 48.8617 1.9207 48.8617H31.4499C32.5107 48.8617 33.3706 48.0018 33.3706 46.941C33.3706 46.5983 33.3599 46.2578 33.3384 45.9205Z" fill="#8946DF"/>
</svg>
