<svg width="26" height="29" viewBox="0 0 26 29" fill="none" xmlns="http://www.w3.org/2000/svg">
<path d="M25.618 0.0964183C25.3812 -0.0352445 25.0924 -0.0318577 24.8603 0.105309L12.9996 7.10376L1.13838 0.105309C0.905887 -0.0318577 0.616673 -0.0352445 0.381177 0.0964183C0.145681 0.228081 0 0.474049 0 0.740762V21.0321C0 21.2924 0.138805 21.5342 0.365707 21.6675L12.6132 28.8942C12.6214 28.8988 12.6309 28.9005 12.639 28.9052C12.6816 28.9285 12.7267 28.9471 12.774 28.9619C12.789 28.9666 12.8036 28.9721 12.8191 28.9759C12.8771 28.9903 12.9373 29 13 29C13.0627 29 13.1225 28.9903 13.1809 28.9759C13.1964 28.9721 13.211 28.967 13.226 28.9619C13.2733 28.9471 13.318 28.9285 13.361 28.9052C13.3691 28.9005 13.3786 28.8992 13.3868 28.8942L25.6343 21.6675C25.8608 21.5342 26 21.2924 26 21.0321V0.740762C25.9991 0.474049 25.8535 0.227658 25.618 0.0964183ZM1.50408 2.04808L12.2475 8.38737V26.951L1.50408 20.6117V2.04808ZM24.4951 20.6121L13.7516 26.9514V8.38737L24.4951 2.04808V20.6121ZM15.8539 11.9617C15.6403 11.6104 15.7559 11.1557 16.1126 10.9453L21.3618 7.84801C21.719 7.63761 22.1805 7.75191 22.3932 8.10287C22.6068 8.45425 22.4912 8.90894 22.1345 9.11934L16.8853 12.2166C16.7641 12.2877 16.6309 12.322 16.4998 12.322C16.2437 12.322 15.9944 12.1933 15.8539 11.9617ZM15.8539 16.6076C15.6403 16.2567 15.7559 15.8015 16.1126 15.5916L21.3618 12.4943C21.719 12.2835 22.1805 12.3982 22.3932 12.7496C22.6068 13.1006 22.4912 13.5557 22.1345 13.7656L16.8853 16.862C16.7641 16.9336 16.6309 16.9675 16.4998 16.9675C16.2437 16.9675 15.9944 16.8388 15.8539 16.6076ZM22.3928 17.3946C22.6064 17.7456 22.4908 18.2007 22.1341 18.4107L16.8848 21.5075C16.7636 21.579 16.6304 21.6129 16.4994 21.6129C16.2432 21.6129 15.994 21.4842 15.8535 21.2526C15.6399 20.9017 15.7555 20.4466 16.1122 20.2366L21.3614 17.1398C21.7185 16.9289 22.1801 17.0441 22.3928 17.3946ZM3.60636 8.10287C3.82037 7.75191 4.28234 7.63845 4.63816 7.84801L9.88698 10.9453C10.2432 11.1557 10.3593 11.6108 10.1457 11.9617C10.0047 12.1933 9.75548 12.322 9.49978 12.322C9.36829 12.322 9.23507 12.2877 9.11388 12.2166L3.86506 9.11934C3.50881 8.90894 3.39278 8.45383 3.60636 8.10287ZM10.1453 16.6076C10.0043 16.8392 9.75505 16.9679 9.49936 16.9679C9.36786 16.9679 9.23464 16.934 9.11345 16.8625L3.86463 13.7656C3.50838 13.5552 3.39235 13.1006 3.60593 12.7492C3.81994 12.3982 4.28191 12.2852 4.63773 12.4943L9.88655 15.5916C10.2428 15.8011 10.3588 16.2562 10.1453 16.6076ZM10.1453 21.2531C10.0043 21.4846 9.75505 21.6133 9.49936 21.6133C9.36786 21.6133 9.23464 21.5795 9.11345 21.5079L3.86463 18.4111C3.50838 18.2011 3.39235 17.746 3.60593 17.395C3.81994 17.0449 4.28191 16.9298 4.63773 17.1402L9.88655 20.237C10.2428 20.447 10.3588 20.9021 10.1453 21.2531Z" fill="white"/>
</svg>
