<svg width="112" height="53" viewBox="0 0 112 53" fill="none" xmlns="http://www.w3.org/2000/svg">
<path d="M13.6512 8.02222C9.12214 8.02222 5.4375 11.929 5.4375 16.7309C5.4375 21.5329 9.12214 25.4397 13.6512 25.4397C18.1803 25.4397 21.865 21.5329 21.865 16.7309C21.865 11.929 18.1804 8.02222 13.6512 8.02222Z" fill="#8946DF"/>
<path d="M32.3257 9.26831C32.3071 9.26831 32.2883 9.2684 32.2698 9.26849C30.3691 9.28422 28.5937 10.0867 27.2707 11.5284C25.971 12.9446 25.2643 14.8129 25.2805 16.789C25.2969 18.7652 26.0344 20.6215 27.3572 22.0161C28.6905 23.4216 30.4567 24.1935 32.3363 24.1935C32.3552 24.1935 32.3741 24.1934 32.3931 24.1933C34.2938 24.1775 36.0692 23.3749 37.3921 21.9333C38.6919 20.5172 39.3986 18.6489 39.3823 16.6727C39.3485 12.5775 36.1884 9.26831 32.3257 9.26831Z" fill="#8946DF"/>
<path d="M32.6721 25.6194H31.99C29.5592 25.6194 27.291 26.3267 25.3793 27.5458C24.4661 28.1281 24.5234 29.4124 25.2893 30.1783C26.7465 31.6355 27.8908 33.3335 28.6906 35.225C29.1635 36.3426 29.5032 37.4995 29.708 38.6851C29.8891 39.734 30.7531 40.5713 31.8175 40.5713H42.9996C44.1042 40.5713 44.9996 39.6759 44.9996 38.5713V37.946C44.9996 31.1495 39.4695 25.6194 32.6721 25.6194Z" fill="#8946DF"/>
<path d="M27.2769 40.5712C27.0281 36.5643 24.997 33.0398 21.9656 30.7811C19.7604 29.1375 17.0253 28.1646 14.0625 28.1646H13.2416C5.92822 28.1646 0 34.0928 0 41.4062C0 42.2741 0.703578 42.9776 1.57148 42.9776H25.7317C26.5996 42.9776 27.3032 42.2741 27.3032 41.4062C27.3032 41.1258 27.2944 40.8472 27.2769 40.5712Z" fill="#8946DF"/>
<path d="M80.6512 8.02222C76.1221 8.02222 72.4375 11.929 72.4375 16.7309C72.4375 21.5329 76.1221 25.4397 80.6512 25.4397C85.1803 25.4397 88.865 21.5329 88.865 16.7309C88.865 11.929 85.1804 8.02222 80.6512 8.02222Z" fill="#17A4E0"/>
<path d="M99.3257 9.26831C99.3071 9.26831 99.2883 9.2684 99.2698 9.26849C97.3691 9.28422 95.5937 10.0867 94.2707 11.5284C92.971 12.9446 92.2643 14.8129 92.2805 16.789C92.2969 18.7652 93.0344 20.6215 94.3572 22.0161C95.6905 23.4216 97.4567 24.1935 99.3363 24.1935C99.3552 24.1935 99.3741 24.1934 99.3931 24.1933C101.294 24.1775 103.069 23.3749 104.392 21.9333C105.692 20.5172 106.399 18.6489 106.382 16.6727C106.348 12.5775 103.188 9.26831 99.3257 9.26831Z" fill="#17A4E0"/>
<path d="M99.6721 25.6194H98.99C96.5592 25.6194 94.291 26.3267 92.3793 27.5458C91.4661 28.1281 91.5234 29.4124 92.2893 30.1783C93.7465 31.6355 94.8908 33.3335 95.6906 35.225C96.1635 36.3426 96.5032 37.4995 96.708 38.6851C96.8891 39.734 97.7531 40.5713 98.8175 40.5713H110C111.104 40.5713 112 39.6759 112 38.5713V37.946C112 31.1495 106.47 25.6194 99.6721 25.6194Z" fill="#17A4E0"/>
<path d="M94.2769 40.5712C94.0281 36.5643 91.997 33.0398 88.9656 30.7811C86.7604 29.1375 84.0253 28.1646 81.0625 28.1646H80.2416C72.9282 28.1646 67 34.0928 67 41.4062C67 42.2741 67.7036 42.9776 68.5715 42.9776H92.7317C93.5996 42.9776 94.3032 42.2741 94.3032 41.4062C94.3032 41.1258 94.2944 40.8472 94.2769 40.5712Z" fill="#17A4E0"/>
<line x1="56.5" y1="2.18557e-08" x2="56.5" y2="53" stroke="#D8D8D8"/>
</svg>
