<svg width="112" height="53" viewBox="0 0 112 53" fill="none" xmlns="http://www.w3.org/2000/svg">
<path d="M13.6512 8.02222C9.12214 8.02222 5.4375 11.929 5.4375 16.7309C5.4375 21.5329 9.12214 25.4397 13.6512 25.4397C18.1803 25.4397 21.865 21.5329 21.865 16.7309C21.865 11.929 18.1804 8.02222 13.6512 8.02222Z" fill="white"/>
<path d="M32.3267 9.26837C32.3081 9.26837 32.2893 9.26846 32.2708 9.26855C30.37 9.28428 28.5946 10.0868 27.2717 11.5285C25.972 12.9447 25.2653 14.813 25.2815 16.7891C25.2979 18.7652 26.0354 20.6216 27.3582 22.0162C28.6915 23.4217 30.4577 24.1935 32.3373 24.1935C32.3562 24.1935 32.3751 24.1934 32.3941 24.1933C34.2948 24.1776 36.0702 23.375 37.3931 21.9334C38.6928 20.5172 39.3996 18.6489 39.3833 16.6727C39.3495 12.5775 36.1894 9.26837 32.3267 9.26837Z" fill="white"/>
<path d="M32.6721 25.6194H31.99C29.5592 25.6194 27.291 26.3267 25.3793 27.5458C24.4661 28.1281 24.5234 29.4124 25.2893 30.1783C26.7465 31.6355 27.8908 33.3335 28.6906 35.225C29.1635 36.3426 29.5032 37.4995 29.708 38.6851C29.8891 39.734 30.7531 40.5713 31.8175 40.5713H42.9996C44.1042 40.5713 44.9996 39.6759 44.9996 38.5713V37.946C44.9996 31.1495 39.4695 25.6194 32.6721 25.6194Z" fill="white"/>
<path d="M27.2769 40.5713C27.0281 36.5644 24.997 33.04 21.9656 30.7812C19.7604 29.1376 17.0253 28.1647 14.0625 28.1647H13.2416C5.92822 28.1648 0 34.0929 0 41.4063C0 42.2742 0.703578 42.9778 1.57148 42.9778H25.7317C26.5996 42.9778 27.3032 42.2742 27.3032 41.4063C27.3032 41.1259 27.2944 40.8473 27.2769 40.5713Z" fill="white"/>
<path d="M80.6512 8.02222C76.1221 8.02222 72.4375 11.929 72.4375 16.7309C72.4375 21.5329 76.1221 25.4397 80.6512 25.4397C85.1803 25.4397 88.865 21.5329 88.865 16.7309C88.865 11.929 85.1804 8.02222 80.6512 8.02222Z" fill="#59CDFF"/>
<path d="M99.3267 9.26837C99.3081 9.26837 99.2893 9.26846 99.2708 9.26855C97.37 9.28428 95.5946 10.0868 94.2717 11.5285C92.972 12.9447 92.2653 14.813 92.2815 16.7891C92.2979 18.7652 93.0354 20.6216 94.3582 22.0162C95.6915 23.4217 97.4577 24.1935 99.3373 24.1935C99.3562 24.1935 99.3751 24.1934 99.3941 24.1933C101.295 24.1776 103.07 23.375 104.393 21.9334C105.693 20.5172 106.4 18.6489 106.383 16.6727C106.349 12.5775 103.189 9.26837 99.3267 9.26837Z" fill="#59CDFF"/>
<path d="M99.6721 25.6194H98.99C96.5592 25.6194 94.291 26.3267 92.3793 27.5458C91.4661 28.1281 91.5234 29.4124 92.2893 30.1783C93.7465 31.6355 94.8908 33.3335 95.6906 35.225C96.1635 36.3426 96.5032 37.4995 96.708 38.6851C96.8891 39.734 97.7531 40.5713 98.8175 40.5713H110C111.104 40.5713 112 39.6759 112 38.5713V37.946C112 31.1495 106.47 25.6194 99.6721 25.6194Z" fill="#59CDFF"/>
<path d="M94.2769 40.5713C94.0281 36.5644 91.997 33.04 88.9656 30.7812C86.7604 29.1376 84.0253 28.1647 81.0625 28.1647H80.2416C72.9282 28.1648 67 34.0929 67 41.4063C67 42.2742 67.7036 42.9778 68.5715 42.9778H92.7317C93.5996 42.9778 94.3032 42.2742 94.3032 41.4063C94.3032 41.1259 94.2944 40.8473 94.2769 40.5713Z" fill="#59CDFF"/>
<line x1="56.5" y1="2.18557e-08" x2="56.5" y2="53" stroke="#7424DC"/>
</svg>
