<svg width="26" height="26" viewBox="0 0 26 26" fill="none" xmlns="http://www.w3.org/2000/svg">
<path d="M13 19.5C16.5899 19.5 19.5 16.5899 19.5 13C19.5 9.41015 16.5899 6.5 13 6.5C9.41015 6.5 6.5 9.41015 6.5 13C6.5 16.5899 9.41015 19.5 13 19.5Z" stroke="#59CDFF" stroke-width="1.3" stroke-linecap="round" stroke-linejoin="round"/>
<path d="M11.1086 11.05C11.2615 10.6156 11.5631 10.2492 11.9601 10.0159C12.3571 9.78258 12.8239 9.69729 13.2778 9.77514C13.7317 9.853 14.1434 10.089 14.4399 10.4413C14.7365 10.7936 14.8988 11.2395 14.8981 11.7C14.8981 13 12.9481 13.65 12.9481 13.65" stroke="#59CDFF" stroke-width="1.3" stroke-linecap="round" stroke-linejoin="round"/>
<circle cx="13.0001" cy="16.2496" r="0.325" stroke="#59CDFF" stroke-width="0.65"/>
</svg>
