<svg width="30" height="31" viewBox="0 0 30 31" fill="none" xmlns="http://www.w3.org/2000/svg">
<circle cx="15" cy="15" r="15" fill="#17A4E0"/>
<path d="M15.0185 9.36C14.4758 9.36 14.0211 9.19133 13.6545 8.854C13.3025 8.502 13.1265 8.06933 13.1265 7.556C13.1265 7.04267 13.3025 6.61733 13.6545 6.28C14.0211 5.928 14.4758 5.752 15.0185 5.752C15.5611 5.752 16.0085 5.928 16.3605 6.28C16.7271 6.61733 16.9105 7.04267 16.9105 7.556C16.9105 8.06933 16.7271 8.502 16.3605 8.854C16.0085 9.19133 15.5611 9.36 15.0185 9.36ZM16.5365 10.812V23H13.4565V10.812H16.5365Z" fill="white"/>
</svg>
