<svg width="22" height="22" viewBox="0 0 22 22" fill="none" xmlns="http://www.w3.org/2000/svg">
<path d="M18.7767 3.22468C14.4772 -1.07489 7.52185 -1.07489 3.22236 3.22468C-0.913868 7.36098 -1.06626 13.9682 2.75431 18.2895L2.86316 18.3766C2.44953 19.2692 1.73114 20.3794 0.599118 20.9346C0.229035 21.1196 0.316114 21.6747 0.718852 21.7401C1.95972 21.936 3.73394 21.7183 5.39932 20.4665L5.42108 20.4883C9.6335 22.9701 15.1521 22.3932 18.7659 18.7793C23.0762 14.4906 23.0762 7.52425 18.7767 3.22468ZM11.4621 4.21521C12.4527 4.21521 13.2364 5.03159 13.2364 6.03301C13.2255 7.02354 12.4309 7.82903 11.4621 7.82903C10.4607 7.81815 9.65527 7.00177 9.66616 6.01124C9.66616 5.00982 10.4716 4.20433 11.4621 4.21521ZM14.0201 16.3084C13.9765 16.4608 13.8786 16.6241 13.7697 16.733C13.1166 17.3861 12.3438 17.7888 11.3968 17.7997C10.9614 17.8106 10.5261 17.7888 10.0907 17.7235C9.37227 17.6255 8.45794 16.733 8.58856 15.786C8.67564 15.1437 8.77361 14.4906 8.88245 13.8484C9.06749 12.7273 9.2743 11.6061 9.47023 10.485C9.48112 10.4197 9.492 10.3435 9.492 10.2673C9.492 9.79922 9.33961 9.63594 8.88245 9.57063C8.68653 9.53798 8.47971 9.52709 8.29467 9.46178C8.06609 9.3747 7.95724 9.20054 7.97901 9.0155C8.00078 8.81957 8.12052 8.69983 8.38175 8.64541C8.51237 8.62364 8.65387 8.61275 8.79537 8.61275C9.33961 8.61275 9.89474 8.61275 10.439 8.61275C11.0159 8.61275 11.6037 8.61275 12.1805 8.61275C12.5942 8.61275 12.8554 8.80868 12.8554 9.2332C12.8663 9.58152 12.801 9.92984 12.7466 10.2782C12.518 11.5626 12.2785 12.8361 12.0499 14.1206C11.9737 14.5451 11.8867 14.9696 11.8322 15.3941C11.8105 15.6009 11.8322 15.8186 11.8867 16.0145C11.952 16.2867 12.1588 16.4282 12.4309 16.3955C12.6595 16.3738 12.8881 16.2867 13.0949 16.2105C13.269 16.1452 13.4214 16.0254 13.5956 15.9492C13.8677 15.8513 14.0854 16.0363 14.0201 16.3084Z" fill="#59CDFF"/>
</svg>
