<svg width="30" height="30" viewBox="0 0 30 30" fill="none" xmlns="http://www.w3.org/2000/svg">
<g>
<path d="M26.4736 8.83276V12.5757L28.8507 10.8099L26.4736 8.83276Z" fill="white"/>
<path d="M16.4452 0.524478C15.6076 -0.169775 14.3927 -0.177321 13.555 0.516931L12.5967 1.33192H17.4187L16.4452 0.524478Z" fill="white"/>
<path d="M17.2529 21.3145C16.6039 21.7974 15.8191 22.0616 15.0116 22.054C14.2042 22.054 13.4118 21.7974 12.7629 21.3145L0.741741 12.342V27.7288C0.734195 28.9739 1.73784 29.9926 2.98297 30.0002H27.0177C28.2628 29.9926 29.2665 28.9739 29.2589 27.7288V12.342L17.2529 21.3145Z" fill="white"/>
<path d="M1.15625 10.8098L3.45785 12.5228V8.90063L1.15625 10.8098Z" fill="white"/>
<path d="M4.9668 2.84106V13.6472L13.645 20.1068C14.4524 20.6954 15.5617 20.6954 16.3691 20.1068L24.9643 13.7001V2.84106H4.9668ZM10.3246 8.87803H14.3996C14.8146 8.87803 15.1542 9.21761 15.1542 9.63265C15.1542 10.0477 14.8146 10.3873 14.3996 10.3873H10.3246C9.90957 10.3873 9.56999 10.0477 9.56999 9.63265C9.56999 9.21761 9.90957 8.87803 10.3246 8.87803ZM19.6819 14.1604H10.3246C9.90957 14.1604 9.56999 13.8208 9.56999 13.4058C9.56999 12.9907 9.90957 12.6511 10.3246 12.6511H19.6819C20.097 12.6511 20.4366 12.9907 20.4366 13.4058C20.4366 13.8208 20.097 14.1604 19.6819 14.1604Z" fill="white"/>
</g>
<defs>
<clipPath id="clip0">
<rect width="30" height="30" fill="white"/>
</clipPath>
</defs>
</svg>
