<svg width="18" height="18" viewBox="0 0 18 18" fill="none" xmlns="http://www.w3.org/2000/svg">
<g>
<path d="M15.8843 5.2998V7.54556L17.3105 6.48607L15.8843 5.2998Z" fill="white"/>
<path d="M9.86724 0.314687C9.36466 -0.101865 8.6357 -0.106392 8.13312 0.310159L7.55811 0.799154H10.4513L9.86724 0.314687Z" fill="white"/>
<path d="M10.3515 12.7887C9.96214 13.0785 9.49126 13.237 9.00679 13.2325C8.52233 13.2325 8.04691 13.0785 7.65753 12.7887L0.44485 7.40527V16.6373C0.440322 17.3844 1.04251 17.9956 1.78959 18.0002H16.2104C16.9575 17.9956 17.5597 17.3844 17.5552 16.6373V7.40527L10.3515 12.7887Z" fill="white"/>
<path d="M0.693848 6.48585L2.07481 7.51364V5.34033L0.693848 6.48585Z" fill="white"/>
<path d="M2.97998 1.70459V8.18829L8.18687 12.064C8.67134 12.4172 9.33692 12.4172 9.82138 12.064L14.9785 8.21999V1.70459H2.97998ZM6.19467 5.32677H8.63965C8.88867 5.32677 9.09242 5.53052 9.09242 5.77954C9.09242 6.02857 8.88867 6.23232 8.63965 6.23232H6.19467C5.94565 6.23232 5.7419 6.02857 5.7419 5.77954C5.7419 5.53052 5.94565 5.32677 6.19467 5.32677ZM11.8091 8.49618H6.19467C5.94565 8.49618 5.7419 8.29243 5.7419 8.04341C5.7419 7.79438 5.94565 7.59063 6.19467 7.59063H11.8091C12.0581 7.59063 12.2618 7.79438 12.2618 8.04341C12.2618 8.29243 12.0581 8.49618 11.8091 8.49618Z" fill="#59CDFF"/>
</g>
<defs>
<clipPath id="clip0">
<rect width="18" height="18" fill="white"/>
</clipPath>
</defs>
</svg>
