<svg width="42" height="38" viewBox="0 0 42 38" fill="none" xmlns="http://www.w3.org/2000/svg">
<g clip-path="url(#clip0)">
<path d="M4.04179 10.9011C4.04179 10.2828 3.57516 9.78149 2.99917 9.78149C2.42317 9.78149 1.95654 10.2828 1.95654 10.9011C1.95654 11.5194 2.42317 12.0204 2.99917 12.0204C3.57516 12.0204 4.04179 11.5194 4.04179 10.9011Z" fill="#FFC315"/>
<path d="M0 33.3305C0 34.4005 0.818934 35.2375 1.82539 35.2375H31.1743C32.1808 35.2375 33 34.4005 33 33.3305V15.0045H0V33.3305ZM6.34615 18.6396C6.34615 18.3508 6.60688 18.1403 6.89561 18.1403H13.5853C13.8399 18.1368 14.0931 18.1779 14.3337 18.2619L16.1089 18.8971C16.3612 18.9898 16.6382 18.9907 16.8914 18.9L18.6666 18.2604C18.9069 18.1767 19.1604 18.1362 19.415 18.1403H26.1044C26.3931 18.1403 26.6538 18.3508 26.6538 18.6396V30.9568C26.6433 31.2555 26.403 31.4949 26.1044 31.5045H19.4147C19.282 31.5004 19.1496 31.52 19.0236 31.5617L17.2484 32.1954C16.7651 32.3713 16.2358 32.373 15.7514 32.2001L13.9764 31.5611C13.8504 31.5194 13.718 31.5001 13.5853 31.5045H6.89561C6.59697 31.4949 6.35665 31.2555 6.34615 30.9568V18.6396Z" fill="#FFC315"/>
<path d="M14.3334 30.579L15.9771 31.1641V19.9437C15.9007 19.9274 15.8254 19.9069 15.7514 19.8827L13.9761 19.2429C13.8501 19.2012 13.7177 19.1816 13.585 19.1857H7.39111V30.4595H13.5847C13.8393 30.4551 14.0928 30.4956 14.3334 30.579Z" fill="#FFC315"/>
<path d="M19.4148 30.4595H25.6084V19.1857H19.4148C19.2821 19.1816 19.1494 19.2012 19.0234 19.2429L17.2485 19.8766C17.1744 19.9032 17.0989 19.9256 17.0225 19.944V31.1641L18.6662 30.5787C18.9068 30.4956 19.1602 30.4551 19.4148 30.4595ZM19.0972 20.9776H21.2303C21.5187 20.9776 21.7529 21.2115 21.7529 21.5002C21.7529 21.7889 21.5187 22.0228 21.2303 22.0228H19.0972C18.8085 22.0228 18.5746 21.7889 18.5746 21.5002C18.5746 21.2115 18.8085 20.9776 19.0972 20.9776ZM19.0972 23.1427H23.7451C24.0339 23.1427 24.2678 23.3766 24.2678 23.6653C24.2678 23.9541 24.0339 24.188 23.7451 24.188H19.0972C18.8085 24.188 18.5746 23.9541 18.5746 23.6653C18.5746 23.3766 18.8085 23.1427 19.0972 23.1427ZM19.0972 25.3825H23.7451C24.0339 25.3825 24.2678 25.6164 24.2678 25.9052C24.2678 26.1939 24.0339 26.4278 23.7451 26.4278H19.0972C18.8085 26.4278 18.5746 26.1939 18.5746 25.9052C18.5746 25.6164 18.8085 25.3825 19.0972 25.3825ZM19.0972 27.5477H23.7451C24.0339 27.5477 24.2678 27.7816 24.2678 28.0703C24.2678 28.359 24.0339 28.5929 23.7451 28.5929H19.0972C18.8085 28.5929 18.5746 28.359 18.5746 28.0703C18.5746 27.7816 18.8085 27.5477 19.0972 27.5477Z" fill="#FFC315"/>
<path d="M14.2164 10.9011C14.2164 10.2828 13.7495 9.78149 13.1738 9.78149C12.5978 9.78149 12.1309 10.2828 12.1309 10.9011C12.1309 11.5194 12.5978 12.0204 13.1738 12.0204C13.7495 12.0204 14.2164 11.5194 14.2164 10.9011Z" fill="#FFC315"/>
<path d="M8.08657 9.78149C7.51174 9.78149 7.04395 10.2837 7.04395 10.9011C7.04395 11.5182 7.51174 12.0204 8.08657 12.0204C8.66169 12.0204 9.12949 11.5182 9.12949 10.9011C9.12949 10.2837 8.66169 9.78149 8.08657 9.78149Z" fill="#FFC315"/>
<path d="M31.1743 7.76245H1.82539C0.818934 7.76245 0 8.59947 0 9.6695V13.9593H33V9.6695C33 8.59947 32.1808 7.76245 31.1743 7.76245ZM2.99926 13.0657C1.84814 13.0657 0.911385 12.0945 0.911385 10.9011C0.911385 9.70742 1.84814 8.73625 2.99926 8.73625C4.15066 8.73625 5.08713 9.70742 5.08713 10.9011C5.08713 12.0945 4.15066 13.0657 2.99926 13.0657ZM8.08639 13.0657C6.93527 13.0657 5.99852 12.0945 5.99852 10.9011C5.99852 9.70742 6.93527 8.73625 8.08639 8.73625C9.2378 8.73625 10.1746 9.70742 10.1746 10.9011C10.1746 12.0945 9.2378 13.0657 8.08639 13.0657ZM13.1738 13.0657C12.0224 13.0657 11.0856 12.0945 11.0856 10.9011C11.0856 9.70742 12.0224 8.73625 13.1738 8.73625C14.3249 8.73625 15.2617 9.70742 15.2617 10.9011C15.2617 12.0945 14.3249 13.0657 13.1738 13.0657Z" fill="#FFC315"/>
</g>
<circle cx="31.5" cy="10.5" r="9.5" fill="#FFC315" stroke="white" stroke-width="2"/>
<g clip-path="url(#clip1)">
<path d="M33.1007 9.89782C32.9823 9.77866 32.8509 9.67304 32.7092 9.58288C32.3336 9.34239 31.897 9.2146 31.451 9.2146C30.8321 9.21345 30.2382 9.45938 29.8013 9.89782L27.6817 12.0191C27.2455 12.4561 27.0004 13.0482 27 13.6656C26.9992 14.9541 28.043 15.9992 29.3314 16C29.9494 16.0022 30.5427 15.7574 30.9795 15.3202L32.7291 13.5705C32.7609 13.539 32.7787 13.496 32.7784 13.4512C32.7779 13.3592 32.7029 13.285 32.6108 13.2855H32.5442C32.1786 13.2868 31.8163 13.2166 31.4777 13.0789C31.4153 13.0532 31.3436 13.0677 31.2961 13.1156L30.038 14.3753C29.6473 14.766 29.0139 14.766 28.6232 14.3753C28.2326 13.9847 28.2326 13.3513 28.6232 12.9606L30.7512 10.8343C31.1415 10.4444 31.7739 10.4444 32.1643 10.8343C32.4273 11.0819 32.8377 11.0819 33.1008 10.8343C33.2139 10.721 33.2826 10.5708 33.2941 10.411C33.3062 10.2202 33.2358 10.0332 33.1007 9.89782Z" fill="#FFFBFB"/>
<path d="M36.3156 6.68321C35.4045 5.7721 33.9273 5.7721 33.0162 6.68321L31.2681 8.42956C31.2201 8.47779 31.2063 8.55034 31.2332 8.61286C31.2597 8.67557 31.3217 8.71581 31.3898 8.71451H31.4514C31.8166 8.71384 32.1783 8.78459 32.5162 8.92281C32.5786 8.94849 32.6503 8.934 32.6979 8.88615L33.9526 7.63304C34.3433 7.24237 34.9767 7.24237 35.3674 7.63304C35.7581 8.02371 35.7581 8.65711 35.3674 9.04779L33.8043 10.6092L33.791 10.6242L33.2444 11.1674C32.8541 11.5573 32.2217 11.5573 31.8313 11.1674C31.5683 10.9198 31.1579 10.9198 30.8949 11.1674C30.781 11.2815 30.7123 11.4331 30.7016 11.594C30.6894 11.7849 30.7598 11.9718 30.8949 12.1072C31.0877 12.3009 31.3134 12.4589 31.5614 12.5738C31.5964 12.5905 31.6314 12.6038 31.6664 12.6188C31.7014 12.6338 31.738 12.6455 31.773 12.6588C31.808 12.6721 31.8447 12.6838 31.8797 12.6938L31.978 12.7204C32.0446 12.7371 32.1113 12.7504 32.1796 12.7621C32.2619 12.7743 32.3448 12.7821 32.4279 12.7854H32.5445H32.5545L32.6545 12.7738C32.6912 12.7721 32.7295 12.7638 32.7728 12.7638H32.8295L32.9445 12.7471L32.9978 12.7371L33.0944 12.7171H33.1128C33.5221 12.6143 33.8959 12.4024 34.1942 12.1039L36.3155 9.98262C37.2267 9.07151 37.2267 7.59431 36.3156 6.68321Z" fill="#FFFBFB"/>
</g>
<defs>
<clipPath id="clip0">
<rect width="33" height="33" fill="white" transform="translate(0 5)"/>
</clipPath>
<clipPath id="clip1">
<rect width="10" height="10" fill="white" transform="translate(27 6)"/>
</clipPath>
</defs>
</svg>
