<svg width="119" height="129" viewBox="0 0 119 129" fill="none" xmlns="http://www.w3.org/2000/svg">
<path d="M92.9881 58.319C92.9881 39.5065 77.6694 24.4565 59.1256 24.4565C57.7819 24.4565 56.4381 24.4565 55.0944 24.7253C40.3131 26.3378 27.6819 38.4315 25.5319 52.944C24.1881 62.619 26.6069 71.7565 32.5194 79.2815C38.9694 87.344 42.1944 96.4815 42.1944 105.619C40.8506 106.963 40.0444 108.844 40.0444 110.994C40.0444 112.875 40.8506 114.757 41.9256 116.1C40.8506 117.444 40.0444 119.325 40.0444 121.207C40.0444 125.507 43.5381 129 47.8381 129H70.1444C74.4444 129 77.9381 125.507 77.9381 121.207C77.9381 119.325 77.1319 117.444 76.0569 116.1C77.1319 114.757 77.9381 112.875 77.9381 110.994C77.9381 108.844 77.1319 107.232 75.7881 105.619C75.7881 95.944 79.0131 87.0753 84.6569 80.3565C90.3006 74.1753 92.9881 66.3815 92.9881 58.319ZM45.4194 110.994C45.4194 109.65 46.4944 108.575 47.8381 108.575H70.1444C71.4881 108.575 72.5631 109.65 72.5631 110.994C72.5631 112.338 71.4881 113.413 70.1444 113.413H47.8381C46.7631 113.413 45.4194 112.338 45.4194 110.994ZM70.4131 123.625H48.1069C46.7631 123.625 45.6881 122.55 45.6881 121.207C45.6881 119.863 46.7631 118.788 48.1069 118.788H70.4131C71.7569 118.788 72.8319 119.863 72.8319 121.207C72.8319 122.55 71.4881 123.625 70.4131 123.625ZM70.6819 103.2H61.8131V79.819L72.0256 69.6065C73.1006 68.5315 73.1006 66.919 72.0256 65.844C70.9506 64.769 69.3381 64.769 68.2631 65.844L59.1256 74.9815L49.9881 65.844C48.9131 64.769 47.3006 64.769 46.2256 65.844C45.1506 66.919 45.1506 68.5315 46.2256 69.6065L56.4381 79.819V103.2H47.5694C47.0319 93.5253 43.2694 84.3878 36.8194 76.0565C31.7131 69.6065 29.5631 61.8128 30.9069 53.7503C32.7881 41.3878 43.2694 31.444 55.9006 29.8315C56.9756 29.8315 58.0506 29.5628 59.1256 29.5628C74.9819 29.5628 87.6131 42.4628 87.6131 58.0503C87.6131 64.769 85.1944 71.4878 80.8944 76.594C74.7131 83.8503 71.2194 93.2565 70.6819 103.2Z" fill="#FFC315"/>
<path d="M115.562 56.4375H100.243C98.6307 56.4375 97.5557 57.5125 97.5557 59.125C97.5557 60.7375 98.6307 61.8125 100.243 61.8125H115.562C117.174 61.8125 118.249 60.7375 118.249 59.125C118.249 57.5125 116.906 56.4375 115.562 56.4375Z" fill="#FFC315"/>
<path d="M20.6938 59.125C20.6938 57.5125 19.6187 56.4375 18.0063 56.4375H2.6875C1.075 56.4375 0 57.5125 0 59.125C0 60.7375 1.075 61.8125 2.6875 61.8125H18.0063C19.6187 61.8125 20.6938 60.4688 20.6938 59.125Z" fill="#FFC315"/>
<path d="M59.125 19.8875C60.7375 19.8875 61.8125 18.8125 61.8125 17.2V2.6875C61.8125 1.075 60.7375 0 59.125 0C57.5125 0 56.4375 1.075 56.4375 2.6875V17.2C56.4375 18.8125 57.5125 19.8875 59.125 19.8875Z" fill="#FFC315"/>
<path d="M88.4185 32.5193C89.2247 32.5193 89.7622 32.2506 90.2997 31.7131L100.781 21.2318C101.856 20.1568 101.856 18.5443 100.781 17.4693C99.706 16.3943 98.0935 16.3943 97.0185 17.4693L86.5372 27.9506C85.4622 29.0256 85.4622 30.6381 86.5372 31.7131C87.0747 32.2506 87.881 32.5193 88.4185 32.5193Z" fill="#FFC315"/>
<path d="M31.9818 86.2682C30.9068 85.1932 29.2943 85.1932 28.2193 86.2682L17.4693 97.0182C16.3943 98.0932 16.3943 99.7057 17.4693 100.781C18.8131 101.856 19.8881 101.856 21.2318 100.781L31.9818 90.0307C33.0568 88.9557 33.0568 87.3432 31.9818 86.2682Z" fill="#FFC315"/>
<path d="M101.049 97.0193L90.0307 86.0006C88.9557 84.9256 87.3432 84.9256 86.2682 86.0006C85.1932 87.0756 85.1932 88.6881 86.2682 89.7631L97.2869 100.782C98.6307 101.857 99.9744 101.857 101.049 100.782C101.856 99.9756 101.856 98.0943 101.049 97.0193Z" fill="#FFC315"/>
<path d="M27.6818 31.444C28.2193 31.9815 29.0256 32.2503 29.5631 32.2503C30.3693 32.2503 30.9068 31.9815 31.4443 31.444C32.5193 30.369 32.5193 28.7565 31.4443 27.6815L21.2318 17.2003C20.1568 16.1253 18.5443 16.1253 17.4693 17.2003C16.3943 18.2753 16.3943 19.8878 17.4693 20.9628L27.6818 31.444Z" fill="#FFC315"/>
</svg>
