<svg width="22" height="22" viewBox="0 0 22 22" fill="none" xmlns="http://www.w3.org/2000/svg">
<path d="M11.7068 16.1019C11.7068 17.275 11.7068 18.4505 11.7068 19.6235C11.7068 19.8092 11.7215 20.0023 11.6995 20.1856C11.7141 20.0781 11.7288 19.9681 11.7435 19.8606C11.7337 19.9168 11.719 19.9681 11.6995 20.0194C11.741 19.9216 11.7826 19.8239 11.8217 19.7286C11.7948 19.7897 11.763 19.8434 11.7239 19.8972C11.7875 19.8141 11.851 19.7335 11.9145 19.6504C11.873 19.7017 11.829 19.7457 11.7777 19.7848C11.8608 19.7213 11.9414 19.6577 12.0245 19.5942C11.9805 19.6259 11.9341 19.6528 11.8852 19.6748C11.983 19.6333 12.0807 19.5917 12.176 19.5526C12.1247 19.5722 12.0734 19.5868 12.0196 19.5966C12.1272 19.582 12.2371 19.5673 12.3447 19.5526C12.2274 19.5673 12.1052 19.56 11.9879 19.56C11.741 19.56 11.4918 19.56 11.2449 19.56C10.4189 19.56 9.59289 19.56 8.76687 19.56C7.76001 19.56 6.7507 19.56 5.74384 19.56C4.87872 19.56 4.0136 19.56 3.14848 19.56C2.73792 19.56 2.32735 19.5673 1.91679 19.56C1.88013 19.56 1.84103 19.5575 1.80437 19.5526C1.9119 19.5673 2.02187 19.582 2.1294 19.5966C2.07564 19.5868 2.02432 19.5722 1.97299 19.5526C2.07075 19.5942 2.1685 19.6357 2.26381 19.6748C2.21493 19.6528 2.1685 19.6259 2.12451 19.5942C2.2076 19.6577 2.28825 19.7213 2.37134 19.7848C2.32002 19.7457 2.27359 19.7017 2.23449 19.6504C2.29803 19.7335 2.36157 19.8141 2.42511 19.8972C2.386 19.8434 2.35423 19.7897 2.32735 19.7286C2.3689 19.8263 2.41044 19.9241 2.44954 20.0194C2.42999 19.9681 2.41533 19.9143 2.40555 19.8606C2.42022 19.9681 2.43488 20.0781 2.44954 20.1856C2.42755 19.9999 2.44221 19.8068 2.44221 19.6186C2.44221 19.1812 2.44221 18.7413 2.44221 18.3038C2.44221 17.6513 2.44221 16.9988 2.44221 16.3463C2.44221 15.5472 2.44221 14.748 2.44221 13.9513C2.44221 13.0765 2.44221 12.1991 2.44221 11.3242C2.44221 10.4395 2.44221 9.55488 2.44221 8.67021C2.44221 7.84663 2.44221 7.02306 2.44221 6.19704C2.44221 5.50299 2.44221 4.80649 2.44221 4.11244C2.44221 3.6139 2.44221 3.1178 2.44221 2.61925C2.44221 2.38709 2.43977 2.15737 2.44221 1.9252C2.44221 1.88366 2.44466 1.84211 2.44954 1.80057C2.43488 1.9081 2.42022 2.01807 2.40555 2.1256C2.41533 2.07183 2.42999 2.02051 2.44954 1.96919C2.408 2.06695 2.36645 2.1647 2.32735 2.26001C2.35423 2.20136 2.386 2.14759 2.42511 2.09627C2.36157 2.17936 2.29803 2.26001 2.23449 2.3431C2.2687 2.30156 2.30536 2.26734 2.3469 2.23313C2.26381 2.29667 2.18316 2.36021 2.10007 2.42375C2.15139 2.38465 2.20516 2.35532 2.26626 2.32844C2.1685 2.36998 2.07075 2.41153 1.97544 2.45063C2.02676 2.43108 2.07808 2.41886 2.13184 2.40908C2.02432 2.42375 1.91434 2.43841 1.80681 2.45307C1.92412 2.43841 2.04387 2.44574 2.16361 2.44574C2.41044 2.44574 2.65971 2.44574 2.90654 2.44574C3.73256 2.44574 4.55858 2.44574 5.3846 2.44574C6.39146 2.44574 7.40077 2.44574 8.40763 2.44574C9.27275 2.44574 10.1379 2.44574 11.003 2.44574C11.4136 2.44574 11.8241 2.43841 12.2347 2.44574C12.2713 2.44574 12.3104 2.44819 12.3471 2.45307C12.2396 2.43841 12.1296 2.42375 12.0221 2.40908C12.0758 2.41886 12.1272 2.43108 12.1785 2.45063C12.0807 2.40908 11.983 2.36754 11.8877 2.32844C11.9463 2.35288 12.0001 2.38465 12.0538 2.42375C11.9707 2.36021 11.8901 2.29667 11.807 2.23313C11.8486 2.26734 11.8852 2.30156 11.9194 2.3431C11.8559 2.26001 11.7923 2.17936 11.7288 2.09627C11.7679 2.14759 11.7997 2.19891 11.8266 2.26001C11.785 2.16226 11.7435 2.0645 11.7044 1.96919C11.7239 2.02051 11.7386 2.07183 11.7484 2.1256C11.7337 2.01807 11.719 1.9081 11.7044 1.80057C11.7239 1.95453 11.7117 2.11582 11.7117 2.26979C11.7117 2.5826 11.7117 2.89785 11.7117 3.21066C11.7117 3.93893 11.7117 4.66964 11.7117 5.3979C11.7117 5.56897 11.7117 5.74004 11.7117 5.90866C11.7117 6.22148 11.8486 6.55139 12.0685 6.77378C12.2811 6.9864 12.6281 7.14525 12.9336 7.13059C13.2489 7.11592 13.5764 7.01328 13.7987 6.77378C14.0187 6.53429 14.1555 6.24103 14.1555 5.90866C14.1555 5.03866 14.1555 4.17109 14.1555 3.30109C14.1555 2.86853 14.1555 2.43841 14.1555 2.00585C14.1555 1.63439 14.0896 1.26537 13.8941 0.940336C13.5446 0.353814 12.9165 0.0165638 12.2396 0.00434461C11.6995 -0.00543076 11.1594 0.00434461 10.6193 0.00434461C9.51958 0.00434461 8.42229 0.00434461 7.32256 0.00434461C6.18862 0.00434461 5.05468 0.00434461 3.92074 0.00434461C3.27556 0.00434461 2.62794 0.00434461 1.98277 0.00434461C1.79948 0.00434461 1.61375 0.0238953 1.43535 0.0629967C0.9588 0.165638 0.57023 0.495557 0.298963 0.886571C0.0985682 1.17739 0.01059 1.54885 0.00325846 1.89832C0.000814614 1.98386 0.00325846 2.06695 0.00325846 2.15248C0.00325846 2.71212 0.00325846 3.2742 0.00325846 3.83384C0.00325846 4.77472 0.00325846 5.7156 0.00325846 6.65648C0.00325846 7.80753 0.00325846 8.96102 0.00325846 10.1121C0.00325846 11.3047 0.00325846 12.4973 0.00325846 13.6899C0.00325846 14.7554 0.00325846 15.8184 0.00325846 16.884C0.00325846 17.6513 0.00325846 18.4162 0.00325846 19.1836C0.00325846 19.4818 -0.00407307 19.7824 0.00325846 20.0805C0.0203653 20.9334 0.611775 21.7814 1.48423 21.9476C1.65774 21.9818 1.81903 21.9989 1.9901 21.9989C2.22471 21.9989 2.45688 21.9989 2.69148 21.9989C3.65191 21.9989 4.61234 21.9989 5.57277 21.9989C6.75315 21.9989 7.93597 21.9989 9.11634 21.9989C9.99613 21.9989 10.8735 21.9989 11.7532 21.9989C11.9145 21.9989 12.0783 22.0014 12.2396 21.9989C12.9092 21.9867 13.5935 21.6275 13.9087 21.0165C14.0822 20.6817 14.1531 20.3322 14.1531 19.9608C14.1531 18.9466 14.1531 17.9324 14.1531 16.9182C14.1531 16.6445 14.1531 16.3708 14.1531 16.0995C14.1531 15.7867 14.0162 15.4568 13.7963 15.2344C13.5837 15.0217 13.2367 14.8629 12.9312 14.8776C12.6159 14.8922 12.2884 14.9949 12.0661 15.2344C11.8437 15.4763 11.7068 15.772 11.7068 16.1019Z" fill="white"/>
<path d="M6.09591 12.2323C6.57001 12.2323 7.04167 12.2323 7.51578 12.2323C8.65216 12.2323 9.78855 12.2323 10.9249 12.2323C12.2984 12.2323 13.6743 12.2323 15.0477 12.2323C16.2354 12.2323 17.4231 12.2323 18.6133 12.2323C19.19 12.2323 19.7692 12.2396 20.3459 12.2323C20.3533 12.2323 20.3631 12.2323 20.3704 12.2323C20.6832 12.2323 21.0131 12.0954 21.2355 11.8755C21.4481 11.6628 21.607 11.3158 21.5923 11.0103C21.5776 10.6951 21.475 10.3676 21.2355 10.1452C20.996 9.92527 20.7027 9.78841 20.3704 9.78841C19.8963 9.78841 19.4246 9.78841 18.9505 9.78841C17.8141 9.78841 16.6777 9.78841 15.5414 9.78841C14.1679 9.78841 12.792 9.78841 11.4186 9.78841C10.2309 9.78841 9.04318 9.78841 7.85303 9.78841C7.27628 9.78841 6.69709 9.78108 6.12034 9.78841C6.11301 9.78841 6.10324 9.78841 6.09591 9.78841C5.78309 9.78841 5.45318 9.92527 5.23079 10.1452C5.01817 10.3578 4.85932 10.7049 4.87399 11.0103C4.88865 11.3256 4.99129 11.6531 5.23079 11.8755C5.47028 12.093 5.76354 12.2323 6.09591 12.2323Z" fill="white"/>
<path d="M16.0081 8.34387C16.4016 8.73733 16.795 9.13079 17.1885 9.52425C17.8166 10.1523 18.4422 10.7779 19.0703 11.406C19.2144 11.5502 19.3611 11.6968 19.5053 11.841C19.5053 11.2643 19.5053 10.69 19.5053 10.1132C19.1118 10.5067 18.7183 10.9001 18.3249 11.2936C17.6968 11.9217 17.0712 12.5473 16.4431 13.1753C16.2989 13.3195 16.1523 13.4662 16.0081 13.6103C15.7857 13.8327 15.6513 14.1602 15.6513 14.4755C15.6513 14.7761 15.7833 15.1329 16.0081 15.3406C16.2403 15.5532 16.5458 15.7121 16.8732 15.6974C17.1983 15.6827 17.5038 15.5728 17.7384 15.3406C18.1318 14.9471 18.5253 14.5537 18.9187 14.1602C19.5468 13.5321 20.1724 12.9065 20.8005 12.2785C20.9447 12.1343 21.0913 11.9876 21.2355 11.8435C21.7023 11.3767 21.7023 10.5824 21.2355 10.1157C20.842 9.7222 20.4486 9.32874 20.0551 8.93528C19.4271 8.30721 18.8014 7.68159 18.1734 7.05352C18.0292 6.90934 17.8826 6.76271 17.7384 6.61852C17.516 6.39613 17.1885 6.26172 16.8732 6.26172C16.5727 6.26172 16.2159 6.39369 16.0081 6.61852C15.7955 6.85068 15.6367 7.15616 15.6513 7.48364C15.666 7.80378 15.776 8.10926 16.0081 8.34387Z" fill="white"/>
</svg>
