<svg width="33" height="33" viewBox="0 0 33 33" fill="none" xmlns="http://www.w3.org/2000/svg">
<g>
<path d="M5.2548 10.2923C5.71686 10.5595 6.30841 10.4017 6.57583 9.93945C8.8469 6.01323 13.0922 3.37741 17.9436 3.37742C25.1795 3.37742 31.0663 9.2643 31.0663 16.5002C31.0663 23.7361 25.1795 29.623 17.9436 29.623C13.089 29.623 8.84561 26.9847 6.57589 23.0611C6.30854 22.5988 5.71686 22.4411 5.25486 22.7083C4.79267 22.9756 4.63476 23.5671 4.90204 24.0293C7.51407 28.5447 12.3925 31.5566 17.9436 31.5566C26.2653 31.5566 33 24.8226 33 16.5002C33 8.17846 26.266 1.44376 17.9436 1.44376C12.3901 1.44376 7.51291 4.45778 4.90198 8.97123C4.63469 9.43343 4.7926 10.0249 5.2548 10.2923Z" fill="white"/>
<path d="M0.408245 17.2899L3.93918 19.7792C4.57894 20.2302 5.46318 19.771 5.46318 18.989L5.46318 17.4665L22.4169 17.4665C22.9509 17.4665 23.3838 17.0337 23.3838 16.4997C23.3838 15.9657 22.9509 15.5329 22.4169 15.5329L5.4633 15.5329L5.46331 14.0104C5.46331 13.2233 4.57437 12.7727 3.93938 13.2202L0.408438 15.7095C-0.130775 16.0894 -0.141668 16.9014 0.408245 17.2899Z" fill="white"/>
</g>
<defs>
<clipPath id="clip0">
<rect width="33" height="33" fill="white" transform="translate(33 33) rotate(-180)"/>
</clipPath>
</defs>
</svg>
