<svg width="46" height="45" viewBox="0 0 46 45" fill="none" xmlns="http://www.w3.org/2000/svg">
<path d="M37.513 12.1878L40.2681 8.45209L39.1629 7.34694L37.6531 5.83708L36.5479 4.73193L32.8122 7.48703C30.742 6.07056 28.376 5.0588 25.8232 4.57627L25.1384 0H23.5662H21.4338H19.8616L19.1768 4.57627C16.624 5.04324 14.2425 6.055 12.1878 7.48703L8.45209 4.73193L7.34694 5.83708L5.83708 7.34694L4.73193 8.45209L7.48703 12.1878C6.07056 14.2425 5.07437 16.6084 4.6074 19.1768L0 19.8772V21.4493V23.5818V25.1539L4.62297 25.8544C5.1055 28.3916 6.10169 30.7575 7.51816 32.7966L4.73193 36.5479L5.83708 37.6531L7.34694 39.1629L8.45209 40.2681L12.2345 37.4818C14.2892 38.8827 16.6396 39.8789 19.1768 40.3459L19.8772 45H21.4493H23.5818H25.1539L25.8544 40.3459C28.3916 39.8789 30.742 38.8827 32.7966 37.4818L36.579 40.2681L37.6842 39.1629L39.194 37.6531L40.2992 36.5479L37.513 32.781C38.9294 30.7264 39.9256 28.376 40.4082 25.8388L45.0311 25.1384V23.5662V21.4338V19.8616L40.4237 19.1612C39.9256 16.624 38.9294 14.258 37.513 12.1878ZM22.5078 36.8748C14.5694 36.8748 8.12522 30.4306 8.12522 22.4922C8.12522 14.5538 14.5694 8.10965 22.5078 8.10965C30.4462 8.10965 36.8903 14.5538 36.8903 22.4922C36.8748 30.4306 30.4462 36.8748 22.5078 36.8748Z" fill="#8946DF"/>
<path d="M30.4313 26.773C27.9719 26.1504 25.9796 24.7495 25.9796 24.7495L24.423 29.6682L24.1273 30.5865V30.571L23.8782 31.3492L23.0532 29.03C25.1234 26.1348 22.5084 26.2437 22.5084 26.2437C22.5084 26.2437 19.8779 26.1348 21.9636 29.03L21.1387 31.3804L20.8896 30.5865L19.0373 24.7495C19.0373 24.7495 17.0449 26.1504 14.5856 26.773C13.3559 27.0843 12.9201 28.1272 12.78 29.1078C14.9747 32.1431 18.5237 34.0265 22.4773 34.0265C23.3801 34.0265 24.2829 33.9176 25.1857 33.7152C28.0498 33.0615 30.5247 31.4115 32.2369 29.0455C32.0812 28.0805 31.6298 27.0687 30.4313 26.773Z" fill="#59CDFF"/>
<path d="M18.3832 21.4805C18.6011 22.8503 19.644 24.5936 21.3874 25.2163C22.1034 25.4653 22.8817 25.4653 23.5977 25.2163C25.3099 24.5936 26.3995 22.8659 26.6174 21.4961C26.8509 21.4805 27.1466 21.1537 27.4735 20.0018C27.9249 18.4297 27.4424 18.1962 27.0377 18.2273C27.1155 18.0094 27.1777 17.7915 27.2089 17.5736C27.8938 13.4954 25.8702 13.3398 25.8702 13.3398C25.8702 13.3398 25.5434 12.7016 24.6561 12.219C24.0646 11.8766 23.2552 11.5964 22.1656 11.6898C21.8232 11.7054 21.4808 11.7676 21.1694 11.8766C20.7647 12.0167 20.4067 12.2035 20.0799 12.437C19.6752 12.686 19.3016 13.0129 18.9591 13.3709C18.4299 13.9157 17.9474 14.6161 17.745 15.5034C17.5738 16.1571 17.6049 16.842 17.7606 17.5736C17.8073 17.7915 17.854 18.0094 17.9318 18.2273C17.5271 18.1962 17.0601 18.4297 17.496 20.0018C17.854 21.1381 18.1497 21.465 18.3832 21.4805Z" fill="#59CDFF"/>
</svg>
