<svg width="27" height="27" viewBox="0 0 27 27" fill="none" xmlns="http://www.w3.org/2000/svg">
<g>
<path d="M25.3129 22.4408L22.3278 16.0396C20.6796 18.4395 18.1061 20.1484 15.1271 20.6666L17.6259 26.0251C17.9454 26.7108 18.9341 26.665 19.1914 25.9569L20.4722 22.4387L20.7361 22.3156L24.2544 23.5964C24.9604 23.8554 25.6319 23.1238 25.3129 22.4408Z" fill="white"/>
<path d="M13.2355 0.485352C8.09131 0.485352 3.90576 4.67065 3.90576 9.81507C3.90576 14.9595 8.09136 19.1448 13.2355 19.1448C18.3796 19.1448 22.5652 14.9595 22.5652 9.81507C22.5652 4.67065 18.3797 0.485352 13.2355 0.485352ZM17.7751 9.12956L16.1207 10.7423L16.5117 13.02C16.6312 13.7155 15.8985 14.2379 15.2808 13.914L13.2355 12.8389L11.1902 13.914C10.569 14.2402 9.84052 13.7115 9.95938 13.02L10.3503 10.7422L8.69599 9.12951C8.19319 8.63932 8.47225 7.78365 9.16599 7.68284L11.4526 7.35071L12.4752 5.27888C12.7847 4.6497 13.6862 4.64914 13.996 5.27888L15.0186 7.35071L17.3052 7.68284C17.9989 7.7836 18.2779 8.63932 17.7751 9.12956Z" fill="white"/>
<path d="M4.14326 16.0396L1.15822 22.4408C0.837681 23.127 1.51526 23.8546 2.21673 23.5962L5.73497 22.3154L5.99893 22.4385L7.27971 25.9568C7.53649 26.6634 8.52505 26.7121 8.84518 26.025L11.344 20.6666C8.36501 20.1484 5.79156 18.4395 4.14326 16.0396Z" fill="white"/>
</g>
<defs>
<clipPath id="clip0">
<rect width="26.0294" height="26.0294" fill="white" transform="translate(0.220703 0.485352)"/>
</clipPath>
</defs>
</svg>
