<svg width="22" height="22" viewBox="0 0 22 22" fill="none" xmlns="http://www.w3.org/2000/svg">
<g clip-path="url(#clip0)">
<path d="M17.8495 6.67507L16.723 5.70113C16.5928 5.58892 16.5435 5.40939 16.6018 5.24782L17.091 3.84302C17.1763 3.60065 17.0237 3.34483 16.7769 3.29546L15.3092 3.0127C15.1432 2.98128 15.0085 2.85112 14.9771 2.68057L14.6988 1.21742C14.6495 0.966084 14.3936 0.817973 14.1513 0.903249L12.7465 1.39246C12.5849 1.44632 12.4054 1.40144 12.2932 1.27128L11.3147 0.144744C11.1487 -0.0482481 10.848 -0.0482481 10.6819 0.144744L9.70796 1.27128C9.59576 1.40144 9.41623 1.45081 9.25466 1.39246L7.84985 0.903249C7.60749 0.817973 7.35166 0.970572 7.30229 1.21742L7.01954 2.68057C6.98812 2.84664 6.85796 2.98128 6.68741 3.0127L5.22426 3.29546C4.97292 3.34483 4.82481 3.60065 4.91008 3.84302L5.3993 5.24782C5.45316 5.40939 5.40827 5.58892 5.27812 5.70113L4.15158 6.67507C3.95859 6.84113 3.95859 7.14184 4.15158 7.3079L5.27812 8.28184C5.40827 8.39404 5.45764 8.57357 5.3993 8.73515L4.91008 10.1399C4.82481 10.3823 4.97741 10.6381 5.22426 10.6875L6.68741 10.9703C6.85347 11.0017 6.98812 11.1318 7.01954 11.3024L7.30229 12.7655C7.35166 13.0169 7.60749 13.165 7.84985 13.0797L9.25466 12.5905C9.41623 12.5366 9.59576 12.5815 9.70796 12.7117L10.6819 13.8382C10.848 14.0312 11.1487 14.0312 11.3147 13.8382L12.2887 12.7117C12.4009 12.5815 12.5804 12.5322 12.742 12.5905L14.1468 13.0797C14.3891 13.165 14.645 13.0124 14.6943 12.7655L14.9771 11.3024C15.0085 11.1363 15.1387 11.0017 15.3092 10.9703L16.7724 10.6875C17.0237 10.6381 17.1718 10.3823 17.0866 10.1399L16.5973 8.73515C16.5435 8.57357 16.5884 8.39404 16.7185 8.28184L17.8451 7.3079C18.0425 7.14184 18.0425 6.84113 17.8495 6.67507ZM14.0436 6.65262L12.6657 7.81507L13.0965 9.56546C13.1773 9.8931 12.8183 10.1534 12.531 9.97837L11.0006 9.02239L9.47009 9.97389C9.18284 10.1534 8.82379 9.8931 8.90458 9.56097L9.33544 7.81058L7.95757 6.64814C7.69725 6.42821 7.83639 6.00632 8.173 5.98388L9.96828 5.85373L10.646 4.18412C10.7717 3.86994 11.216 3.86994 11.3462 4.18412L12.0239 5.85373L13.8191 5.98388C14.1647 6.01081 14.2994 6.4327 14.0436 6.65262Z" fill="#FF5271"/>
<path d="M12.8994 14.0806L12.3429 14.7269C12.0062 15.1173 11.517 15.3417 11.0009 15.3417C10.4847 15.3417 9.99553 15.1173 9.65891 14.7269L9.10238 14.0806L8.2945 14.3588C8.1419 14.4127 7.98482 14.4441 7.82324 14.4531V19.6953C7.82324 20.0454 8.00726 20.373 8.30797 20.5525L10.4803 21.8586C10.7989 22.0471 11.1939 22.0471 11.5125 21.8586L13.6848 20.5525C13.9855 20.373 14.1695 20.0454 14.1695 19.6953V14.4531C14.008 14.4441 13.8509 14.4127 13.6983 14.3588L12.8994 14.0806Z" fill="#FF5271"/>
</g>
<defs>
<clipPath id="clip0">
<rect width="22" height="22" fill="white"/>
</clipPath>
</defs>
</svg>
