<svg width="32" height="30" viewBox="0 0 32 30" fill="none" xmlns="http://www.w3.org/2000/svg">
<path d="M30.5013 25.3047L26.9374 17.927C24.9695 20.693 21.897 22.6627 18.3403 23.2599L21.3237 29.4358C21.7051 30.226 22.8856 30.1733 23.1927 29.3572L24.7219 25.3023L25.037 25.1604L29.2376 26.6366C30.0805 26.9352 30.8822 26.0919 30.5013 25.3047Z" fill="#8946DF"/>
<path d="M16.0822 0C9.94054 0 4.94336 4.82373 4.94336 10.7529C4.94336 16.6821 9.9406 21.5058 16.0822 21.5058C22.2239 21.5058 27.2211 16.6821 27.2211 10.7529C27.2211 4.82373 22.224 0 16.0822 0ZM21.5021 9.96281L19.527 11.8215L19.9937 14.4468C20.1364 15.2483 19.2616 15.8504 18.5242 15.4771L16.0823 14.238L13.6404 15.4771C12.8987 15.853 12.0289 15.2437 12.1708 14.4467L12.6376 11.8215L10.6625 9.96275C10.0622 9.39779 10.3953 8.4116 11.2236 8.29541L13.9536 7.91262L15.1746 5.52475C15.544 4.79959 16.6203 4.79894 16.9902 5.52475L18.2112 7.91262L20.9411 8.29541C21.7693 8.41154 22.1024 9.39779 21.5021 9.96281Z" fill="#8946DF"/>
<path d="M5.22698 17.927L1.66309 25.3047C1.2804 26.0956 2.08937 26.9342 2.92687 26.6364L7.12734 25.1602L7.44248 25.3021L8.97161 29.3571C9.27819 30.1715 10.4584 30.2276 10.8407 29.4357L13.824 23.2599C10.2674 22.6627 7.19489 20.6931 5.22698 17.927Z" fill="#8946DF"/>
</svg>
