<svg width="42" height="42" viewBox="0 0 42 42" fill="none" xmlns="http://www.w3.org/2000/svg">
<path d="M39.0037 14.5117C38.8339 13.2349 38.8099 11.0359 39.9958 10.2975C40.017 10.284 40.0328 10.2644 40.0513 10.2476C41.0209 9.93753 41.6918 9.50234 41.1651 8.91673L26.8632 4.60742L3.70521 7.82712C3.70521 7.82712 1.05333 8.20616 1.29023 12.3262C1.41883 14.5686 2.12213 15.6699 2.73719 16.2119L0.836863 16.7845C0.309419 17.3702 0.980255 17.8055 1.94991 18.1151C1.96834 18.1324 1.98388 18.1518 2.00544 18.1653C3.19056 18.9044 3.16774 21.1031 2.99728 22.3801C-1.26025 23.5891 0.268056 23.983 0.268056 23.983L1.20199 24.209C0.545064 24.8027 -0.107347 25.9284 0.0148626 28.0633C0.251887 32.1826 2.4301 32.4669 2.4301 32.4669L17.5846 37.3927L40.4585 31.8522C40.4585 31.8522 41.9873 31.4576 37.7286 30.2486C37.5574 28.9736 37.5336 26.7751 38.7214 26.0342C38.7433 26.021 38.7592 26.0011 38.7768 25.9845C39.7465 25.6744 40.4168 25.2396 39.89 24.654L38.8958 24.3538C39.5589 23.954 40.5548 22.909 40.7109 20.1945C40.8186 18.3274 40.3315 17.2339 39.7677 16.5901L41.7328 16.1146C41.7329 16.1153 43.2617 15.7208 39.0037 14.5117ZM19.8711 14.4589L23.7176 13.6684L36.7167 10.9971L38.6534 10.5987C38.0346 11.7313 38.0605 13.2813 38.1629 14.2776C38.1854 14.5029 38.2112 14.7087 38.2362 14.8652L36.1164 15.3922L19.7094 19.4738L19.8711 14.4589ZM3.34799 18.4678L5.28441 18.8661L17.7682 21.4324L18.8588 21.6558L22.1294 22.328L22.2907 27.343L5.42781 23.1476L3.76538 22.7345C3.78982 22.5778 3.81564 22.3722 3.83908 22.1462C3.94086 21.1508 3.96731 19.6004 3.34799 18.4678ZM2.59568 12.1279C2.57224 11.032 2.76752 10.2395 3.16223 9.83663C3.41342 9.57942 3.70985 9.5259 3.91316 9.5259C4.02058 9.5259 4.09792 9.54082 4.10318 9.54082L14.0814 12.7939L19.0596 14.4169L18.8963 19.4669L4.93032 15.5514L4.1933 15.345C4.16623 15.3373 4.1295 15.3321 4.10117 15.3308C4.04364 15.3267 2.66286 15.1996 2.59568 12.1279ZM17.6207 35.2048L2.91806 31.0827C2.89086 31.0748 2.85451 31.0696 2.82618 31.0682C2.76765 31.0643 1.38624 30.9373 1.31943 27.8664C1.29562 26.7692 1.49191 25.9774 1.88586 25.5741C2.13767 25.3169 2.43424 25.2634 2.63717 25.2634C2.74484 25.2634 2.82192 25.2778 2.82756 25.2778C2.82756 25.2778 2.82819 25.2778 2.82756 25.2778L17.783 30.1547L17.6207 35.2048ZM36.8866 30.0147C36.9097 30.2408 36.9356 30.4462 36.9606 30.6029L18.4334 35.2119L18.5954 30.1969L22.5563 29.3826L23.1413 29.5241L25.3338 28.8115L35.4403 26.7347L37.3778 26.3361C36.7583 27.4686 36.784 29.0192 36.8866 30.0147ZM37.9071 23.1991C37.8734 23.1999 37.8397 23.2044 37.8079 23.2144L36.4106 23.6056L23.1057 27.3363L22.943 22.2864L27.3082 20.8626L37.878 17.4155C37.8794 17.4149 38.434 17.2917 38.8411 17.7057C39.2352 18.1086 39.4308 18.9011 39.4077 19.997C39.3388 23.0676 37.9574 23.1952 37.9071 23.1991Z" fill="#4800A5"/>
<path d="M36 8.5L27.5 6L21.5 7L29.5 10L36 8.5Z" fill="#17A4E0"/>
</svg>
