<svg width="41" height="41" viewBox="0 0 41 41" fill="none" xmlns="http://www.w3.org/2000/svg">
<path d="M20.5 0C9.19631 0 0 9.19631 0 20.5C0 31.8037 9.19631 41 20.5 41C31.8037 41 41 31.8037 41 20.5C41 9.19631 31.8037 0 20.5 0ZM20.5 36.6379C11.6016 36.6379 4.36163 29.3988 4.36163 20.5C4.36163 11.6012 11.6016 4.36205 20.5 4.36205C29.3984 4.36205 36.6384 11.6012 36.6384 20.5C36.6384 29.3988 29.3984 36.6379 20.5 36.6379Z" fill="white"/>
<path d="M31.1824 19.867H21.9696V8.78987C21.9696 7.8577 21.2139 7.10193 20.2817 7.10193C19.3495 7.10193 18.5938 7.8577 18.5938 8.78987V21.5549C18.5938 22.4871 19.3495 23.2428 20.2817 23.2428H31.1824C32.1146 23.2428 32.8703 22.4871 32.8703 21.5549C32.8703 20.6227 32.1146 19.867 31.1824 19.867Z" fill="#59CDFF"/>
</svg>
