<svg width="41" height="41" viewBox="0 0 41 41" fill="none" xmlns="http://www.w3.org/2000/svg">
<path d="M7.5 2C7.5 1.72386 7.72386 1.5 8 1.5H33C33.2761 1.5 33.5 1.72386 33.5 2V37.4041C33.5 37.7962 33.0693 38.0357 32.7363 37.8289L22.3449 31.3773C21.2142 30.6753 19.7831 30.6753 18.6524 31.3775L8.26377 37.8286C7.93069 38.0354 7.5 37.7959 7.5 37.4038V2Z" stroke="white" stroke-width="3"/>
<path d="M11 6.5C11 5.67157 11.6716 5 12.5 5H28.5C29.3284 5 30 5.67157 30 6.5C30 7.32843 29.3284 8 28.5 8H12.5C11.6716 8 11 7.32843 11 6.5Z" fill="#59CDFF"/>
</svg>
