<svg width="42" height="42" viewBox="0 0 42 42" fill="none" xmlns="http://www.w3.org/2000/svg">
<g>
<path d="M37.0348 11.3577L26.0783 0.401215C25.8331 0.155859 25.4862 0 25.1099 0H5.936C5.17967 0 4.56641 0.613184 4.56641 1.36959V40.6305C4.56641 41.3868 5.17959 42.0001 5.936 42.0001H36.0664C36.8227 42.0001 37.436 41.3869 37.436 40.6305V12.3261C37.436 11.9782 37.2982 11.621 37.0348 11.3577ZM26.4795 4.67595L29.6197 7.81618L32.7601 10.9565H26.4795V4.67595ZM34.6969 39.2609H7.30551V2.73911H23.7403V12.3261C23.7403 13.0824 24.3535 13.6957 25.1099 13.6957H34.6969V39.2609Z" fill="white"/>
<path d="M30.5865 20.087H11.4126C10.6562 20.087 10.043 20.7002 10.043 21.4566C10.043 22.213 10.6562 22.8262 11.4126 22.8262H30.5865C31.3429 22.8262 31.9561 22.213 31.9561 21.4566C31.9561 20.7002 31.3429 20.087 30.5865 20.087Z" fill="#59CDFF"/>
<path d="M30.5865 25.5652H11.4126C10.6562 25.5652 10.043 26.1784 10.043 26.9348C10.043 27.6912 10.6562 28.3044 11.4126 28.3044H30.5865C31.3429 28.3044 31.9561 27.6912 31.9561 26.9348C31.9561 26.1784 31.3429 25.5652 30.5865 25.5652Z" fill="#59CDFF"/>
<path d="M30.5879 31.0435H19.6313C18.875 31.0435 18.2617 31.6566 18.2617 32.4131C18.2617 33.1695 18.8749 33.7826 19.6313 33.7826H30.5878C31.3441 33.7826 31.9574 33.1695 31.9574 32.4131C31.9574 31.6566 31.3442 31.0435 30.5879 31.0435Z" fill="#59CDFF"/>
</g>
<defs>
<clipPath id="clip0">
<rect width="42" height="42" transform="matrix(-1 0 0 1 42 0)" fill="white"/>
</clipPath>
</defs>
</svg>
