<svg width="41" height="41" viewBox="0 0 41 41" fill="none" xmlns="http://www.w3.org/2000/svg">
<path d="M20.5 0C9.19631 0 0 9.19631 0 20.5C0 31.8037 9.19631 41 20.5 41C31.8037 41 41 31.8037 41 20.5C41 9.19631 31.8037 0 20.5 0ZM20.5 36.6379C11.6016 36.6379 4.36163 29.3988 4.36163 20.5C4.36163 11.6012 11.6016 4.36205 20.5 4.36205C29.3984 4.36205 36.6384 11.6012 36.6384 20.5C36.6384 29.3988 29.3984 36.6379 20.5 36.6379Z" fill="#4800A5"/>
<path d="M31.1834 19.8671H21.9706V8.78999C21.9706 7.85782 21.2148 7.10205 20.2827 7.10205C19.3505 7.10205 18.5947 7.85782 18.5947 8.78999V21.555C18.5947 22.4872 19.3505 23.2429 20.2827 23.2429H31.1834C32.1155 23.2429 32.8713 22.4872 32.8713 21.555C32.8713 20.6228 32.1155 19.8671 31.1834 19.8671Z" fill="#17A4E0"/>
</svg>
