<svg width="42" height="42" viewBox="0 0 42 42" fill="none" xmlns="http://www.w3.org/2000/svg">
<path d="M39.0037 14.5116C38.8339 13.2348 38.8099 11.0358 39.9958 10.2974C40.017 10.2839 40.0328 10.2643 40.0513 10.2475C41.0209 9.93741 41.6918 9.50222 41.1651 8.91661L26.8632 4.6073L3.70521 7.827C3.70521 7.827 1.05333 8.20604 1.29023 12.3261C1.41883 14.5685 2.12213 15.6697 2.73719 16.2117L0.836863 16.7844C0.309419 17.37 0.980255 17.8054 1.94991 18.1149C1.96834 18.1322 1.98388 18.1517 2.00544 18.1652C3.19056 18.9042 3.16774 21.103 2.99728 22.38C-1.26025 23.589 0.268056 23.9829 0.268056 23.9829L1.20199 24.2089C0.545064 24.8025 -0.107347 25.9282 0.0148626 28.0632C0.251887 32.1825 2.4301 32.4668 2.4301 32.4668L17.5846 37.3925L40.4585 31.8521C40.4585 31.8521 41.9873 31.4575 37.7286 30.2485C37.5574 28.9735 37.5336 26.7749 38.7214 26.034C38.7433 26.0209 38.7592 26.0009 38.7768 25.9844C39.7465 25.6743 40.4168 25.2395 39.89 24.6539L38.8958 24.3537C39.5589 23.9538 40.5548 22.9088 40.7109 20.1944C40.8186 18.3273 40.3315 17.2338 39.7677 16.59L41.7328 16.1145C41.7329 16.1152 43.2617 15.7206 39.0037 14.5116ZM19.8711 14.4588L23.7176 13.6683L36.7167 10.9969L38.6534 10.5986C38.0346 11.7312 38.0605 13.2812 38.1629 14.2774C38.1854 14.5028 38.2112 14.7086 38.2362 14.865L36.1164 15.3921L19.7094 19.4737L19.8711 14.4588ZM3.34799 18.4677L5.28441 18.866L17.7682 21.4323L18.8588 21.6557L22.1294 22.3279L22.2907 27.3429L5.42781 23.1475L3.76538 22.7344C3.78982 22.5777 3.81564 22.3721 3.83908 22.1461C3.94086 21.1506 3.96731 19.6003 3.34799 18.4677ZM2.59568 12.1278C2.57224 11.0319 2.76752 10.2394 3.16223 9.83651C3.41342 9.5793 3.70985 9.52578 3.91316 9.52578C4.02058 9.52578 4.09792 9.5407 4.10318 9.5407L14.0814 12.7937L19.0596 14.4168L18.8963 19.4668L4.93032 15.5513L4.1933 15.3449C4.16623 15.3372 4.1295 15.3319 4.10117 15.3307C4.04364 15.3266 2.66286 15.1995 2.59568 12.1278ZM17.6207 35.2047L2.91806 31.0826C2.89086 31.0747 2.85451 31.0695 2.82618 31.0681C2.76765 31.0642 1.38624 30.9372 1.31943 27.8663C1.29562 26.769 1.49191 25.9772 1.88586 25.574C2.13767 25.3168 2.43424 25.2633 2.63717 25.2633C2.74484 25.2633 2.82192 25.2777 2.82756 25.2777C2.82756 25.2777 2.82819 25.2777 2.82756 25.2777L17.783 30.1546L17.6207 35.2047ZM36.8866 30.0146C36.9097 30.2407 36.9356 30.4461 36.9606 30.6028L18.4334 35.2118L18.5954 30.1968L22.5563 29.3825L23.1413 29.524L25.3338 28.8114L35.4403 26.7346L37.3778 26.336C36.7583 27.4685 36.784 29.0191 36.8866 30.0146ZM37.9071 23.199C37.8734 23.1998 37.8397 23.2043 37.8079 23.2143L36.4106 23.6055L23.1057 27.3362L22.943 22.2863L27.3082 20.8625L37.878 17.4154C37.8794 17.4148 38.434 17.2916 38.8411 17.7056C39.2352 18.1084 39.4308 18.901 39.4077 19.9969C39.3388 23.0675 37.9574 23.1951 37.9071 23.199Z" fill="white"/>
<path d="M36 8.5L27.5 6L21.5 7L29.5 10L36 8.5Z" fill="#59CDFF"/>
</svg>
