<svg width="42" height="42" viewBox="0 0 42 42" fill="none" xmlns="http://www.w3.org/2000/svg">
<g>
<path d="M37.0338 11.3577L26.0773 0.401215C25.8321 0.155859 25.4852 0 25.1089 0H5.93502C5.1787 0 4.56543 0.613184 4.56543 1.36959V40.6305C4.56543 41.3868 5.17861 42.0001 5.93502 42.0001H36.0654C36.8218 42.0001 37.435 41.3869 37.435 40.6305V12.3261C37.435 11.9782 37.2972 11.621 37.0338 11.3577ZM26.4785 4.67595L29.6188 7.81618L32.7591 10.9565H26.4785V4.67595ZM34.6959 39.2609H7.30453V2.73911H23.7393V12.3261C23.7393 13.0824 24.3525 13.6957 25.1089 13.6957H34.6959V39.2609Z" fill="#4800A5"/>
<path d="M30.5865 20.0869H11.4126C10.6562 20.0869 10.043 20.7001 10.043 21.4565C10.043 22.2128 10.6562 22.8261 11.4126 22.8261H30.5865C31.3429 22.8261 31.9561 22.2129 31.9561 21.4565C31.9561 20.7001 31.3429 20.0869 30.5865 20.0869Z" fill="#17A4E0"/>
<path d="M30.5865 25.5652H11.4126C10.6562 25.5652 10.043 26.1784 10.043 26.9348C10.043 27.6912 10.6562 28.3044 11.4126 28.3044H30.5865C31.3429 28.3044 31.9561 27.6912 31.9561 26.9348C31.9561 26.1784 31.3429 25.5652 30.5865 25.5652Z" fill="#17A4E0"/>
<path d="M30.5869 31.0435H19.6303C18.874 31.0435 18.2607 31.6566 18.2607 32.4131C18.2607 33.1695 18.8739 33.7826 19.6303 33.7826H30.5868C31.3432 33.7826 31.9564 33.1695 31.9564 32.4131C31.9564 31.6566 31.3433 31.0435 30.5869 31.0435Z" fill="#17A4E0"/>
</g>
<defs>
<clipPath id="clip0">
<rect width="42" height="42" fill="white" transform="matrix(-1 0 0 1 42 0)"/>
</clipPath>
</defs>
</svg>
