<svg width="20" height="25" viewBox="0 0 20 25" fill="none" xmlns="http://www.w3.org/2000/svg">
<path d="M9.89847 24.132H17.9576C18.7874 24.132 19.4609 23.4585 19.4609 22.6288V3.08044V1.50328C19.4609 0.673492 18.7874 0 17.9576 0H9.89847H7.21872V0.497304C7.22437 0.548455 7.22724 0.602449 7.22724 0.656442V3.93297V4.77412C7.22724 5.94207 6.2781 6.89122 5.11015 6.89122H4.26899H0.992467C0.949841 6.89122 0.904373 6.88837 0.861747 6.88553H0.338867V22.6288C0.338867 23.4585 1.01236 24.132 1.84215 24.132H3.49036H9.89847ZM10.2025 19.0226H4.94817C4.55601 19.0226 4.23773 18.7043 4.23773 18.3122C4.23773 17.92 4.55601 17.6017 4.94817 17.6017H10.2054C10.5975 17.6017 10.9158 17.92 10.9158 18.3122C10.9158 18.7043 10.5947 19.0226 10.2025 19.0226ZM15.4598 15.3966H4.94817C4.55601 15.3966 4.23773 15.0783 4.23773 14.6861C4.23773 14.2939 4.55601 13.9757 4.94817 13.9757H15.4598C15.8519 13.9757 16.1702 14.2939 16.1702 14.6861C16.1702 15.0783 15.8519 15.3966 15.4598 15.3966ZM4.94817 10.1251H15.4598C15.8519 10.1251 16.1702 10.4434 16.1702 10.8355C16.1702 11.2277 15.8519 11.546 15.4598 11.546H4.94817C4.55601 11.546 4.23773 11.2277 4.23773 10.8355C4.23773 10.4434 4.55601 10.1251 4.94817 10.1251Z" fill="white"/>
<path d="M0.992665 6.03842H5.11034C5.11318 6.03842 5.11887 6.03842 5.12171 6.03842C5.80941 6.03274 6.36639 5.47576 6.37208 4.78806C6.37208 4.78521 6.37208 4.77953 6.37208 4.77669V0.656169C6.37208 0.275376 6.05948 0.0224609 5.73555 0.0224609C5.57926 0.0224609 5.42296 0.0792957 5.29224 0.210016L0.54367 4.95856C0.145827 5.3564 0.427159 6.03842 0.992665 6.03842Z" fill="white"/>
</svg>
