<svg width="51" height="51" viewBox="0 0 51 51" fill="none" xmlns="http://www.w3.org/2000/svg">
<path d="M48.9821 11.3621V8.14957L48.5169 7.96641C48.3565 7.90644 44.5833 6.43958 39.5458 6.43958C34.1567 6.43958 29.5082 8.08312 25.7269 11.3264C21.9488 8.08312 17.3004 6.43958 11.908 6.43958C6.87056 6.43958 3.09734 7.90644 2.94013 7.96803L2.47496 8.14957V11.1254C0.949787 11.4107 0 11.9213 0 12.756C0 17.0934 0 43.4176 0 43.4176H22.5842C23.3638 44.1162 24.5081 44.5603 25.7836 44.5603C27.0592 44.5603 28.2019 44.1178 28.9863 43.4176H51C51 43.4176 51 14.2764 51 12.756C50.9984 12.0769 50.2301 11.6344 48.9821 11.3621ZM25.4854 41.0009C23.6085 40.2245 17.1497 37.7706 10.6843 37.7706C8.12992 37.7706 5.86566 38.1628 3.93692 38.936V9.16422C5.06013 8.78818 8.12992 7.90158 11.9064 7.90158C16.8709 7.90158 21.1368 9.40411 24.6248 12.333V30.104L25.4854 29.1574V41.0009ZM47.5153 38.9457C45.4439 38.1126 43.0646 37.6944 40.4308 37.6944C33.9703 37.6944 27.8177 40.1711 25.9668 40.9847V29.1574L26.8274 30.104V12.333C30.3121 9.40411 34.5797 7.90158 39.5442 7.90158C43.3109 7.90158 46.3888 8.7898 47.5153 9.16422V38.9457Z" fill="#8946DF"/>
<path d="M15.8337 14.022C19.2941 14.6865 21.6523 15.9621 21.6928 15.9832L22.2666 14.9491C22.0964 14.8519 19.5485 13.4709 15.832 12.7966L15.8337 14.022Z" fill="#8946DF"/>
<path d="M15.8337 17.3771C19.2941 18.04 21.6523 19.3172 21.6928 19.3399L22.2666 18.3042C22.0964 18.2069 19.5485 16.826 15.832 16.1533L15.8337 17.3771Z" fill="#8946DF"/>
<path d="M15.8337 20.5296C19.2941 21.1942 21.6523 22.4698 21.6928 22.4925L22.2666 21.4568C22.0964 21.3579 19.5485 19.9786 15.832 19.3059L15.8337 20.5296Z" fill="#8946DF"/>
<path d="M15.8337 23.9853C19.2941 24.6499 21.6523 25.9271 21.6928 25.9482L22.2666 24.9141C22.0964 24.8168 19.5485 23.4342 15.832 22.7616L15.8337 23.9853Z" fill="#8946DF"/>
<path d="M6.83301 26.2448L7.13772 27.3907C14.7636 25.3711 21.6244 29.1137 21.6925 29.151L22.2662 28.1152C21.9745 27.9515 14.9305 24.1004 6.83301 26.2448Z" fill="#8946DF"/>
<path d="M6.83301 29.5333L7.13772 30.6793C14.7636 28.6565 21.6244 32.399 21.6925 32.4379L22.2662 31.4038C21.9745 31.2368 14.9305 27.389 6.83301 29.5333Z" fill="#8946DF"/>
<path d="M6.83301 32.8303L7.13772 33.9762C14.7636 31.9518 21.6244 35.6975 21.6925 35.7332L22.2662 34.6991C21.9745 34.5338 14.9305 30.6843 6.83301 32.8303Z" fill="#8946DF"/>
<path d="M30.1089 16.0722C30.1802 16.035 37.0394 12.2924 44.662 14.3152L44.9667 13.1693C36.8692 11.0233 29.8236 14.8744 29.5303 15.0398L30.1089 16.0722Z" fill="#17A4E0"/>
<path d="M29.5352 18.3934L30.1089 19.4275C30.1802 19.3902 37.0394 15.6461 44.6621 17.6705L44.9668 16.5229C36.8725 14.3769 29.8285 18.2281 29.5352 18.3934Z" fill="#17A4E0"/>
<path d="M29.5352 21.5442L30.1089 22.5799C30.1802 22.541 37.0394 18.8001 44.6621 20.8197L44.9668 19.6754C36.8725 17.531 29.8285 21.3805 29.5352 21.5442Z" fill="#17A4E0"/>
<path d="M29.5352 25.0015L30.1089 26.0356C30.1802 25.9983 37.0394 22.2541 44.6621 24.2769L44.9668 23.131C36.8725 20.9834 29.8285 24.8361 29.5352 25.0015Z" fill="#17A4E0"/>
<path d="M29.5352 28.2027L30.1089 29.2401C30.1802 29.2012 37.0394 25.4586 44.6621 27.4798L44.9668 26.3339C36.8725 24.1895 29.8285 28.0374 29.5352 28.2027Z" fill="#17A4E0"/>
<path d="M29.5352 31.4915L30.1089 32.5256C30.1802 32.4883 37.0394 28.7457 44.6621 30.7669L44.9668 29.6226C36.8725 27.4766 29.8285 31.3261 29.5352 31.4915Z" fill="#17A4E0"/>
<path d="M29.5352 34.7882L30.1089 35.8207C30.1802 35.7867 37.0394 32.0393 44.6621 34.0637L44.9668 32.9178C36.8725 30.7718 29.8285 34.6245 29.5352 34.7882Z" fill="#17A4E0"/>
<path d="M14.5512 23.7763V12.5973C14.5512 12.5973 12.6484 12.3801 10.6921 12.432C8.73907 12.4854 6.83301 13.0803 6.83301 13.0803V24.2577C6.83301 24.2577 8.42625 23.786 10.4814 23.6369C12.5334 23.4878 14.5512 23.7763 14.5512 23.7763Z" fill="#17A4E0"/>
</svg>
