<svg width="51" height="39" viewBox="0 0 51 39" fill="none" xmlns="http://www.w3.org/2000/svg">
<path d="M48.9821 5.36209V2.14957L48.5169 1.96641C48.3565 1.90644 44.5833 0.439575 39.5458 0.439575C34.1567 0.439575 29.5082 2.08312 25.7269 5.32643C21.9488 2.08312 17.3004 0.439575 11.908 0.439575C6.87056 0.439575 3.09734 1.90644 2.94013 1.96803L2.47496 2.14957V5.12545C0.949787 5.41072 0 5.92128 0 6.75602C0 11.0934 0 37.4176 0 37.4176H22.5842C23.3638 38.1162 24.5081 38.5603 25.7836 38.5603C27.0592 38.5603 28.2019 38.1178 28.9863 37.4176H51C51 37.4176 51 8.27638 51 6.75602C50.9984 6.07689 50.2301 5.63439 48.9821 5.36209ZM25.4854 35.0009C23.6085 34.2245 17.1497 31.7706 10.6843 31.7706C8.12992 31.7706 5.86566 32.1628 3.93692 32.936V3.16422C5.06013 2.78818 8.12992 1.90158 11.9064 1.90158C16.8709 1.90158 21.1368 3.40411 24.6248 6.33298V24.104L25.4854 23.1574V35.0009ZM47.5153 32.9457C45.4439 32.1126 43.0646 31.6944 40.4308 31.6944C33.9703 31.6944 27.8177 34.1711 25.9668 34.9847V23.1574L26.8274 24.104V6.33298C30.3121 3.40411 34.5797 1.90158 39.5442 1.90158C43.3109 1.90158 46.3888 2.7898 47.5153 3.16422V32.9457Z" fill="white"/>
<path d="M15.8337 8.02199C19.2941 8.68654 21.6523 9.96215 21.6928 9.98322L22.2666 8.94912C22.0964 8.85187 19.5485 7.4709 15.832 6.79663L15.8337 8.02199Z" fill="white"/>
<path d="M15.8337 11.377C19.2941 12.0399 21.6523 13.3172 21.6928 13.3398L22.2666 12.3041C22.0964 12.2069 19.5485 10.8259 15.832 10.1533L15.8337 11.377Z" fill="white"/>
<path d="M15.8337 14.5296C19.2941 15.1941 21.6523 16.4697 21.6928 16.4924L22.2666 15.4567C22.0964 15.3578 19.5485 13.9785 15.832 13.3058L15.8337 14.5296Z" fill="white"/>
<path d="M15.8337 17.9853C19.2941 18.6498 21.6523 19.9271 21.6928 19.9481L22.2666 18.914C22.0964 18.8168 19.5485 17.4342 15.832 16.7615L15.8337 17.9853Z" fill="white"/>
<path d="M6.83203 20.2448L7.13674 21.3907C14.7626 19.3711 21.6234 23.1137 21.6915 23.151L22.2653 22.1152C21.9735 21.9515 14.9295 18.1004 6.83203 20.2448Z" fill="white"/>
<path d="M6.83203 23.5333L7.13674 24.6793C14.7626 22.6565 21.6234 26.399 21.6915 26.4379L22.2653 25.4038C21.9735 25.2368 14.9295 21.389 6.83203 23.5333Z" fill="white"/>
<path d="M6.83203 26.8302L7.13674 27.9761C14.7626 25.9517 21.6234 29.6975 21.6915 29.7331L22.2653 28.699C21.9735 28.5337 14.9295 24.6842 6.83203 26.8302Z" fill="white"/>
<path d="M30.1099 10.0722C30.1812 10.035 37.0404 6.29242 44.663 8.31524L44.9677 7.1693C36.8702 5.0233 29.8246 8.87443 29.5312 9.03976L30.1099 10.0722Z" fill="#59CDFF"/>
<path d="M29.5352 12.3934L30.1089 13.4275C30.1802 13.3902 37.0394 9.64606 44.6621 11.6705L44.9668 10.5229C36.8725 8.37694 29.8285 12.2281 29.5352 12.3934Z" fill="#59CDFF"/>
<path d="M29.5352 15.5443L30.1089 16.58C30.1802 16.5411 37.0394 12.8002 44.6621 14.8198L44.9668 13.6754C36.8725 11.5311 29.8285 15.3806 29.5352 15.5443Z" fill="#59CDFF"/>
<path d="M29.5352 19.0015L30.1089 20.0356C30.1802 19.9983 37.0394 16.2541 44.6621 18.2769L44.9668 17.131C36.8725 14.9834 29.8285 18.8361 29.5352 19.0015Z" fill="#59CDFF"/>
<path d="M29.5352 22.2027L30.1089 23.2401C30.1802 23.2012 37.0394 19.4586 44.6621 21.4798L44.9668 20.3339C36.8725 18.1895 29.8285 22.0374 29.5352 22.2027Z" fill="#59CDFF"/>
<path d="M29.5352 25.4914L30.1089 26.5255C30.1802 26.4882 37.0394 22.7457 44.6621 24.7669L44.9668 23.6226C36.8725 21.4766 29.8285 25.3261 29.5352 25.4914Z" fill="#59CDFF"/>
<path d="M29.5352 28.7882L30.1089 29.8207C30.1802 29.7866 37.0394 26.0392 44.6621 28.0637L44.9668 26.9177C36.8725 24.7717 29.8285 28.6245 29.5352 28.7882Z" fill="#59CDFF"/>
<path d="M14.5503 17.7762V6.59722C14.5503 6.59722 12.6475 6.38003 10.6911 6.43189C8.73809 6.48538 6.83203 7.08023 6.83203 7.08023V18.2576C6.83203 18.2576 8.42527 17.7859 10.4804 17.6368C12.5324 17.4877 14.5503 17.7762 14.5503 17.7762Z" fill="#59CDFF"/>
</svg>
