<svg width="128" height="128" viewBox="0 0 128 128" fill="none" xmlns="http://www.w3.org/2000/svg">
<circle opacity="0.05" cx="64" cy="64" r="64" fill="#8946DF"/>
<g>
<path d="M42.5179 40.2002C42.5162 40.2002 42.5143 40.2002 42.5126 40.2002C41.9115 40.2002 41.3462 40.4345 40.9193 40.8603C40.4877 41.2908 40.25 41.8641 40.25 42.4743V76.5742C40.25 77.8247 41.2713 78.8445 42.5269 78.8477C47.8202 78.8603 56.6885 79.9636 62.8065 86.3659V50.6793C62.8065 50.2555 62.6982 49.8573 62.4939 49.5277C57.4725 41.4412 47.8232 40.2126 42.5179 40.2002Z" fill="#8946DF"/>
<path d="M88.0973 75.8738V41.7736C88.0973 41.1634 87.8596 40.5901 87.428 40.1596C87.0011 39.7338 86.4353 39.4995 85.8349 39.4995C85.833 39.4995 85.8311 39.4995 85.8294 39.4995C80.5243 39.5121 70.875 40.7408 65.8534 48.8273C65.6491 49.1568 65.541 49.555 65.541 49.9789V85.6652C71.659 79.2629 80.5273 78.1596 85.8206 78.147C87.076 78.1438 88.0973 77.124 88.0973 75.8738Z" fill="#8946DF"/>
<path d="M93.277 47.3638H91.6281V75.8739C91.6281 79.0666 89.0269 81.67 85.8292 81.6779C81.3394 81.6886 73.9364 82.5665 68.6934 87.5288C77.7611 85.3086 87.3202 86.7519 92.768 87.9933C93.4482 88.1483 94.1511 87.9882 94.6961 87.5538C95.2392 87.1205 95.5507 86.4728 95.5507 85.7776V49.6375C95.5509 48.3838 94.5307 47.3638 93.277 47.3638Z" fill="#8946DF"/>
<path d="M35.9226 75.8739V47.3638H34.2737C33.0202 47.3638 32 48.3838 32 49.6375V85.777C32 86.4724 32.3115 87.1199 32.8546 87.5532C33.3992 87.9873 34.1014 88.148 34.7827 87.9927C40.2305 86.751 49.7898 85.308 58.8571 87.5282C53.6143 82.5661 46.2113 81.6884 41.7215 81.6777C38.5241 81.67 35.9226 79.0666 35.9226 75.8739Z" fill="#8946DF"/>
</g>
<defs>
<clipPath id="clip0">
<rect width="63.55" height="63.55" fill="white" transform="translate(32 32)"/>
</clipPath>
</defs>
</svg>
