<svg width="33" height="31" viewBox="0 0 33 31" fill="none" xmlns="http://www.w3.org/2000/svg">
<g>
<path d="M5.45558 3.65869C5.45471 3.65869 5.45374 3.65869 5.45287 3.65869C5.14915 3.65869 4.86349 3.77298 4.64778 3.9807C4.4297 4.1907 4.30957 4.47033 4.30957 4.76801V21.4021C4.30957 22.0121 4.82565 22.5096 5.46012 22.5111C8.13489 22.5173 12.6162 23.0555 15.7077 26.1785V8.77047C15.7077 8.5637 15.653 8.36945 15.5497 8.20871C13.0124 4.26408 8.13641 3.66475 5.45558 3.65869Z" fill="#38B21A"/>
<path d="M28.8902 21.402V4.76777C28.8902 4.47009 28.7701 4.19046 28.552 3.98045C28.3363 3.77274 28.0504 3.65845 27.747 3.65845C27.746 3.65845 27.745 3.65845 27.7442 3.65845C25.0635 3.66461 20.1875 4.26394 17.65 8.20857C17.5468 8.36931 17.4922 8.56356 17.4922 8.77033V26.1783C20.5837 23.0552 25.065 22.5171 27.7398 22.5109C28.3741 22.5093 28.8902 22.0119 28.8902 21.402Z" fill="#38B21A"/>
<path d="M31.5074 7.49463H30.6742V21.402C30.6742 22.9594 29.3598 24.2294 27.744 24.2332C25.4752 24.2384 21.7343 24.6667 19.085 27.0873C23.667 26.0043 28.4974 26.7083 31.2502 27.3139C31.5939 27.3895 31.9491 27.3114 32.2245 27.0995C32.4989 26.8882 32.6564 26.5722 32.6564 26.2331V8.60374C32.6565 7.9922 32.1409 7.49463 31.5074 7.49463Z" fill="#38B21A"/>
<path d="M2.52559 21.402V7.49463H1.69238C1.05899 7.49463 0.543457 7.9922 0.543457 8.60374V26.2328C0.543457 26.572 0.700886 26.8879 0.975304 27.0992C1.25048 27.311 1.60534 27.3894 1.94961 27.3136C4.70245 26.7079 9.53289 26.004 14.1148 27.087C11.4655 24.6665 7.72462 24.2383 5.45586 24.2331C3.84016 24.2294 2.52559 22.9594 2.52559 21.402Z" fill="#38B21A"/>
</g>
<defs>
<clipPath id="clip0">
<rect width="32.1127" height="31" fill="white" transform="translate(0.543457)"/>
</clipPath>
</defs>
</svg>
