<svg width="30" height="30" viewBox="0 0 30 30" fill="none" xmlns="http://www.w3.org/2000/svg">
<path d="M8.83764 19.3012C8.83764 18.803 8.49193 18.5059 7.88197 18.5059C7.63289 18.5059 7.46421 18.5304 7.37598 18.554V20.1525C7.48045 20.176 7.60888 20.1838 7.7859 20.1838C8.43606 20.1838 8.83764 19.8553 8.83764 19.3012Z" fill="white"/>
<path d="M12.6137 18.5225C12.3405 18.5225 12.164 18.546 12.0596 18.5705V22.1107C12.164 22.1352 12.3327 22.1352 12.4852 22.1352C13.5934 22.1431 14.3161 21.5331 14.3161 20.2406C14.3239 19.1167 13.6653 18.5225 12.6137 18.5225Z" fill="white"/>
<path d="M19.6288 0H7.57954C5.81926 0 4.38658 1.43367 4.38658 3.19295V14.9999H4.07472C3.36427 14.9999 2.78809 15.5756 2.78809 16.2866V24.0896C2.78809 24.8006 3.3642 25.3762 4.07472 25.3762H4.38658V26.807C4.38658 28.5682 5.81926 29.9999 7.57954 29.9999H24.0202C25.7793 29.9999 27.2122 28.5681 27.2122 26.807V7.55687L19.6288 0ZM6.16347 17.6948C6.54054 17.6311 7.07056 17.583 7.81729 17.583C8.57192 17.583 9.10978 17.7271 9.47116 18.0164C9.81638 18.2891 10.0493 18.7391 10.0493 19.2688C10.0493 19.7983 9.87281 20.2485 9.55162 20.5534C9.13386 20.9467 8.51605 21.1232 7.79333 21.1232C7.63249 21.1232 7.48832 21.1152 7.37557 21.0996V23.0345H6.16347V17.6948ZM24.0202 28.0445H7.57954C6.89795 28.0445 6.34292 27.4895 6.34292 26.807V25.3762H21.669C22.3795 25.3762 22.9557 24.8006 22.9557 24.0896V16.2866C22.9557 15.5756 22.3795 14.9999 21.669 14.9999H6.34292V3.19295C6.34292 2.51236 6.89801 1.95734 7.57954 1.95734L18.8972 1.94551V6.12892C18.8972 7.35085 19.8887 8.34324 21.1115 8.34324L25.2096 8.33148L25.2557 26.8069C25.2557 27.4895 24.7017 28.0445 24.0202 28.0445ZM10.8309 23.01V17.6948C11.2805 17.6232 11.8664 17.583 12.4848 17.583C13.5125 17.583 14.1789 17.7674 14.701 18.1606C15.263 18.5784 15.616 19.2443 15.616 20.2003C15.616 21.2359 15.2389 21.9508 14.7167 22.392C14.1469 22.8657 13.2796 23.0903 12.22 23.0903C11.5854 23.0903 11.1359 23.0501 10.8309 23.01ZM19.5935 19.8631V20.8584H17.6503V23.0345H16.422V17.6232H19.7298V18.6264H17.6503V19.8631H19.5935Z" fill="white"/>
</svg>
