<svg width="23" height="23" viewBox="0 0 23 23" fill="none" xmlns="http://www.w3.org/2000/svg">
<path d="M20.0646 1.08614C19.7216 0.741871 19.314 0.468712 18.8651 0.282328C18.4163 0.0959433 17.9351 0 17.4491 0C16.9631 0 16.4819 0.0959433 16.0331 0.282328C15.5842 0.468712 15.1766 0.741871 14.8336 1.08614L1.06669 14.8634C0.876029 15.061 0.756887 15.3166 0.728208 15.5897L0.00816924 21.6275C-0.0118758 21.8006 0.00506946 21.976 0.0578839 22.1421C0.110698 22.3082 0.198178 22.4612 0.314534 22.5909C0.43089 22.7207 0.57347 22.8242 0.73284 22.8947C0.89221 22.9653 1.06474 23.0011 1.239 23H1.38363L7.41164 22.2737C7.68623 22.2417 7.94203 22.1181 8.13783 21.9229L21.914 8.1579C22.2582 7.81482 22.5313 7.40716 22.7177 6.95829C22.9041 6.50942 23 6.02817 23 5.54215C23 5.05612 22.9041 4.57487 22.7177 4.126C22.5313 3.67713 22.2582 3.26947 21.914 2.9264L20.0646 1.08614ZM6.70083 19.8918L2.636 20.3658L3.11295 16.3006L13.1227 6.28687L16.7137 9.87814L6.70083 19.8918ZM20.1723 6.41612L18.4522 8.13636L14.8643 4.54816L16.5844 2.82792C16.6988 2.71347 16.8345 2.62268 16.9839 2.56073C17.1333 2.49879 17.2935 2.4669 17.4553 2.4669C17.617 2.4669 17.7772 2.49879 17.9266 2.56073C18.076 2.62268 18.2118 2.71347 18.3261 2.82792L20.1723 4.67433C20.2868 4.78866 20.3775 4.92441 20.4395 5.07385C20.5014 5.22328 20.5333 5.38346 20.5333 5.54522C20.5333 5.70699 20.5014 5.86717 20.4395 6.0166C20.3775 6.16604 20.2868 6.3018 20.1723 6.41612Z" fill="#8946DF"/>
</svg>
