<svg width="42" height="42" viewBox="0 0 42 42" fill="none" xmlns="http://www.w3.org/2000/svg">
<path fill-rule="evenodd" clip-rule="evenodd" d="M22.6104 6C22.6104 2.68629 25.2967 0 28.6104 0H35.9907C39.3044 0 41.9907 2.68629 41.9907 6V13.3803C41.9907 16.694 39.3044 19.3803 35.9907 19.3803H28.6104C25.2967 19.3803 22.6104 16.694 22.6104 13.3803V6ZM0 28.6108C0 25.2971 2.68629 22.6108 6 22.6108H13.3803C16.694 22.6108 19.3803 25.2971 19.3803 28.6108V35.991C19.3803 39.3047 16.694 41.991 13.3803 41.991H6C2.68629 41.991 0 39.3047 0 35.991V28.6108ZM28.6198 22.6196C25.306 22.6196 22.6198 25.3059 22.6198 28.6196V35.9999C22.6198 39.3136 25.306 41.9999 28.6198 41.9999H36C39.3137 41.9999 42 39.3136 42 35.9999V28.6196C42 25.3059 39.3137 22.6196 36 22.6196H28.6198Z" fill="#8946DF"/>
<rect x="0.5" y="0.5" width="18.3803" height="18.3803" rx="5.5" fill="#59CDFF" stroke="#59CDFF"/>
</svg>
