<svg width="50" height="57" viewBox="0 0 50 57" fill="none" xmlns="http://www.w3.org/2000/svg">
<path d="M25.1409 26.3854C19.0743 20.7281 11.1002 17.1074 2.28073 16.6295C1.17778 16.5697 0.28125 17.4709 0.28125 18.5754V44.9658C0.28125 46.0703 1.17778 46.96 2.28073 47.0198C10.4408 47.4617 17.8772 50.5926 23.7487 55.5391C24.5506 56.2148 25.7324 56.2162 26.5357 55.5421C32.4067 50.6148 39.8422 47.4651 48.001 47.0202C49.104 46.96 50.0005 46.0703 50.0005 44.9658V18.5754C50.0005 17.4709 49.104 16.5697 48.001 16.6295C39.1816 17.1074 31.2074 20.7281 25.1409 26.3854Z" fill="#8946DF"/>
<path d="M33.4258 8.28423C33.4258 12.8734 29.7284 16.5755 25.1415 16.5755C20.5547 16.5755 16.8574 12.8709 16.8574 8.28423C16.8574 3.70206 20.5547 0 25.1415 0C29.7284 0 33.4258 3.70206 33.4258 8.28423Z" fill="#59CDFF"/>
</svg>
