<svg width="112" height="57" viewBox="0 0 112 57" fill="none" xmlns="http://www.w3.org/2000/svg">
<path d="M22.6406 28.7318C17.2303 23.6865 10.1332 20.4421 2.2806 19.9686C1.17803 19.9021 0.28125 20.8039 0.28125 21.9084V45.2423C0.28125 46.3469 1.17803 47.2359 2.2806 47.3024C9.47488 47.736 16.0351 50.494 21.245 54.8332C22.0507 55.5043 23.2318 55.5058 24.0388 54.8362C29.2483 50.5135 35.8076 47.7393 43.0007 47.3028C44.1032 47.2359 45 46.3469 45 45.2423V21.9084C45 20.8039 44.1032 19.9021 43.0007 19.9686C35.1481 20.4421 28.0509 23.6865 22.6406 28.7318Z" fill="white"/>
<path d="M30.0934 12.4511C30.0934 16.5787 26.7679 19.9084 22.6424 19.9084C18.5169 19.9084 15.1914 16.5765 15.1914 12.4511C15.1914 8.32973 18.5169 5 22.6424 5C26.7679 5 30.0934 8.32973 30.0934 12.4511Z" fill="white"/>
<path d="M89.3594 28.7318C83.9491 23.6865 76.8519 20.4421 68.9993 19.9686C67.8968 19.9021 67 20.8039 67 21.9084V45.2423C67 46.3469 67.8968 47.2359 68.9993 47.3024C76.1936 47.736 82.7539 50.494 87.9637 54.8332C88.7695 55.5043 89.9506 55.5058 90.7576 54.8362C95.967 50.5135 102.526 47.7393 109.719 47.3028C110.822 47.2359 111.719 46.3469 111.719 45.2423V21.9084C111.719 20.8039 110.822 19.9021 109.719 19.9686C101.867 20.4421 94.7697 23.6865 89.3594 28.7318Z" fill="#59CDFF"/>
<path d="M96.8083 12.4511C96.8083 16.5787 93.4827 19.9084 89.3572 19.9084C85.2317 19.9084 81.9062 16.5765 81.9062 12.4511C81.9062 8.32973 85.2317 5 89.3572 5C93.4827 5 96.8083 8.32973 96.8083 12.4511Z" fill="#59CDFF"/>
<line x1="56.5" y1="2.18557e-08" x2="56.5" y2="53" stroke="#7424DC"/>
</svg>
