<svg width="26" height="32" viewBox="0 0 26 32" fill="none" xmlns="http://www.w3.org/2000/svg">
<path d="M22.9498 0H3.05021C1.36867 0 0 1.37064 0 3.0546V28.9454C0 30.6294 1.36867 32 3.05021 32H22.9498C24.6313 32 26 30.6294 26 28.9454V3.0546C26 1.37064 24.6313 0 22.9498 0ZM17.7897 1.74549L16.6711 4.87296H9.32885L8.2103 1.74549H17.7897ZM24.257 28.9454C24.257 29.6672 23.6705 30.2545 22.9498 30.2545H3.05021C2.32949 30.2545 1.74298 29.6672 1.74298 28.9454V3.0546C1.74298 2.33284 2.32949 1.74549 3.05021 1.74549H6.35882L8.1018 6.61845H17.8982L19.6412 1.74549H22.9498C23.6705 1.74549 24.257 2.33284 24.257 3.0546V28.9454ZM5.95532 14.2549H20.48V12.5095H5.95532V14.2549ZM5.95532 25.6006H15.2511V23.8551H5.95532V25.6006ZM5.95532 19.9278H20.48V18.1823H5.95532V19.9278Z" fill="#FFC315"/>
</svg>
