<svg width="21" height="20" viewBox="0 0 21 20" fill="none" xmlns="http://www.w3.org/2000/svg">
<path d="M16.6724 5.41681L17.8969 3.75649L17.4057 3.26531L16.7347 2.59426L16.2435 2.10308L14.5832 3.32757C13.6631 2.69803 12.6116 2.24836 11.477 2.0339L11.1726 0H10.4739H9.52612H8.8274L8.523 2.0339C7.38845 2.24144 6.32999 2.69111 5.41681 3.32757L3.75649 2.10308L3.26531 2.59426L2.59426 3.26531L2.10308 3.75649L3.32757 5.41681C2.69803 6.32999 2.25528 7.38153 2.04773 8.523L0 8.83431V9.53303V10.4808V11.1795L2.05465 11.4908C2.26911 12.6185 2.71186 13.67 3.3414 14.5763L2.10308 16.2435L2.59426 16.7347L3.26531 17.4057L3.75649 17.8969L5.43757 16.6586C6.35074 17.2812 7.39537 17.724 8.523 17.9315L8.83431 20H9.53303H10.4808H11.1795L11.4908 17.9315C12.6185 17.724 13.6631 17.2812 14.5763 16.6586L16.2574 17.8969L16.7485 17.4057L17.4196 16.7347L17.9108 16.2435L16.6724 14.5694C17.302 13.6562 17.7447 12.6116 17.9592 11.4839L20.0138 11.1726V10.4739V9.52612V8.8274L17.9661 8.51608C17.7447 7.38845 17.302 6.33691 16.6724 5.41681ZM10.0035 16.3888C6.47527 16.3888 3.61121 13.5247 3.61121 9.99654C3.61121 6.46835 6.47527 3.60429 10.0035 3.60429C13.5317 3.60429 16.3957 6.46835 16.3957 9.99654C16.3888 13.5247 13.5317 16.3888 10.0035 16.3888Z" fill="white"/>
<path d="M13.5247 11.8993C12.4317 11.6226 11.5462 11 11.5462 11L10.8544 13.1861L10.7229 13.5943V13.5873L10.6122 13.9332L10.2456 12.9025C11.1657 11.6157 10.0035 11.6641 10.0035 11.6641C10.0035 11.6641 8.83431 11.6157 9.76132 12.9025L9.39467 13.9471L9.28398 13.5943L8.46073 11C8.46073 11 7.57523 11.6226 6.48218 11.8993C5.93565 12.0377 5.74195 12.5012 5.67969 12.937C6.65513 14.2861 8.23244 15.1231 9.98961 15.1231C10.3909 15.1231 10.7921 15.0747 11.1934 14.9848C12.4663 14.6942 13.5662 13.9609 14.3272 12.9094C14.258 12.4805 14.0574 12.0308 13.5247 11.8993Z" fill="#59CDFF"/>
<path d="M8.17034 9.54701C8.26719 10.1558 8.7307 10.9306 9.50552 11.2073C9.82375 11.318 10.1697 11.318 10.4879 11.2073C11.2489 10.9306 11.7331 10.1627 11.83 9.55393C11.9337 9.54701 12.0652 9.40173 12.2105 8.8898C12.4111 8.19108 12.1966 8.08731 12.0168 8.10115C12.0514 8.00429 12.079 7.90744 12.0929 7.81059C12.3973 5.99807 11.4979 5.92889 11.4979 5.92889C11.4979 5.92889 11.3526 5.64525 10.9583 5.43079C10.6954 5.27859 10.3357 5.15407 9.85142 5.19558C9.69922 5.20249 9.54703 5.23017 9.40867 5.27859C9.2288 5.34086 9.06969 5.42387 8.92441 5.52764C8.74454 5.63833 8.57851 5.78361 8.42631 5.94272C8.1911 6.18485 7.97664 6.49616 7.8867 6.89049C7.81061 7.18105 7.82444 7.48544 7.89362 7.81059C7.91438 7.90744 7.93513 8.00429 7.96972 8.10115C7.78985 8.08731 7.58231 8.19108 7.77602 8.8898C7.93513 9.39482 8.06657 9.54009 8.17034 9.54701Z" fill="#59CDFF"/>
</svg>
