<svg width="17" height="20" viewBox="0 0 17 20" fill="none" xmlns="http://www.w3.org/2000/svg">
<path d="M16.9829 11.509C16.9829 10.9567 16.5351 10.509 15.9829 10.509C15.4306 10.509 14.9829 10.9567 14.9829 11.509H16.9829ZM8.49143 5.01758C9.04371 5.01758 9.49143 4.56986 9.49143 4.01758C9.49143 3.46529 9.04371 3.01758 8.49143 3.01758V5.01758ZM14.9829 11.509C14.9829 15.0941 12.0765 18.0004 8.49143 18.0004V20.0004C13.1811 20.0004 16.9829 16.1987 16.9829 11.509H14.9829ZM8.49143 18.0004C4.90631 18.0004 2 15.0941 2 11.509H0C0 16.1987 3.80174 20.0004 8.49143 20.0004V18.0004ZM2 11.509C2 7.92389 4.90631 5.01758 8.49143 5.01758V3.01758C3.80174 3.01758 0 6.81932 0 11.509H2Z" fill="white"/>
<path d="M8.11133 6.24167V1.99728C8.11133 1.17374 9.05108 0.703218 9.71046 1.19663L12.4114 3.21777C12.9306 3.60624 12.9484 4.37843 12.4478 4.7905L9.74685 7.01375C9.09444 7.55077 8.11133 7.08668 8.11133 6.24167Z" fill="white"/>
</svg>
