<svg width="20" height="20" viewBox="0 0 20 20" fill="none" xmlns="http://www.w3.org/2000/svg">
<path d="M10.1732 4.72778H4.63593C3.92777 4.72778 3.35156 4.1518 3.35156 3.44364V1.89938C3.35156 1.19133 3.92777 0.615234 4.63593 0.615234H10.1732C10.8812 0.615234 11.4573 1.19133 11.4573 1.89938V3.44364C11.4573 4.1518 10.8812 4.72778 10.1732 4.72778Z" fill="white"/>
<path d="M15.23 5.52246H19.3652V15.8372H15.23V5.52246Z" fill="#59CDFF"/>
<path d="M19.3652 4.42359V3.79611C19.3652 3.13556 18.8274 2.59814 18.1666 2.59814H16.4285C15.7677 2.59814 15.23 3.13556 15.23 3.79611V4.42359H19.3652Z" fill="#59CDFF"/>
<path d="M15.4663 16.9355L16.704 19.0265C16.8276 19.2354 17.055 19.365 17.2976 19.365C17.5404 19.365 17.7678 19.2354 17.8914 19.0265L19.1291 16.9355H15.4663Z" fill="#59CDFF"/>
<path d="M6.16293 12.8395C6.54024 12.8367 6.90233 12.7355 7.22025 12.5488L6.93483 12.2618C6.07217 11.3947 6.07217 9.98349 6.93483 9.11625L7.21887 8.83072C6.90061 8.64349 6.53818 8.54164 6.16029 8.53866C5.59805 8.53351 5.06452 8.74832 4.66032 9.14177C4.24272 9.54827 4.0127 10.097 4.0127 10.6868C4.0127 11.2776 4.24318 11.8274 4.66192 12.2349C5.06658 12.6289 5.60056 12.8434 6.16293 12.8395Z" fill="#59CDFF"/>
<path d="M9.26318 10.6901L10.3368 11.7695C10.7193 11.1049 10.7189 10.2767 10.3355 9.61182L9.26318 10.6901Z" fill="#59CDFF"/>
<path d="M12.7579 2.12207H12.4813V3.46915C12.4813 4.7343 11.4558 5.7598 10.1906 5.7598H4.61861C3.35346 5.7598 2.32796 4.7343 2.32796 3.46915V2.12207H2.05204C1.25851 2.12207 0.615234 2.76534 0.615234 3.55888V17.9289C0.615234 18.7221 1.25828 19.3651 2.05147 19.3651H12.7573C13.5509 19.3651 14.1941 18.7218 14.1941 17.9283V3.5583C14.1942 2.76523 13.5511 2.12207 12.7579 2.12207ZM3.89385 8.35475C4.50039 7.76435 5.29804 7.44025 6.14239 7.44025H6.16905C7.02404 7.44724 7.82799 7.78575 8.43269 8.39366C8.64578 8.60801 8.64555 8.95419 8.43258 9.16831L8.43269 9.16843L8.43063 9.17049C8.43052 9.17049 8.43052 9.17049 8.43052 9.17049V9.1706L7.71366 9.89124C7.27592 10.3313 7.27592 11.0472 7.71366 11.4875L8.43407 12.2116L8.43395 12.2119C8.64693 12.426 8.64738 12.7722 8.43407 12.9864C7.8297 13.5941 7.02587 13.9321 6.17065 13.9383C6.16264 13.9383 6.15463 13.9384 6.14674 13.9384C5.30148 13.9384 4.50268 13.6135 3.89523 13.0223C3.26237 12.4062 2.91378 11.5768 2.91378 10.6871C2.91389 9.79808 3.26191 8.96987 3.89385 8.35475ZM10.5764 17.4834H4.07925C3.77598 17.4834 3.52993 17.2375 3.52993 16.934C3.52993 16.6307 3.77598 16.3847 4.07925 16.3847H10.5766C10.8799 16.3847 11.1259 16.6307 11.1259 16.934C11.1259 17.2375 10.8799 17.4834 10.5764 17.4834ZM10.594 15.8354H4.09664C3.79337 15.8354 3.54733 15.5896 3.54733 15.2861C3.54733 14.9827 3.79337 14.7368 4.09664 14.7368H10.594C10.8973 14.7368 11.1433 14.9827 11.1433 15.2861C11.1433 15.5896 10.8973 15.8354 10.594 15.8354ZM10.7772 12.9869L10.7771 12.9867C10.7766 12.9874 10.7759 12.9883 10.7753 12.989C10.6682 13.0956 10.528 13.1488 10.3879 13.1488C10.2467 13.1488 10.1057 13.0949 9.99836 12.9869L8.16078 11.1393C7.91416 10.8914 7.91416 10.488 8.16055 10.2402L9.99699 8.394C10.2108 8.17897 10.5587 8.17794 10.7737 8.39194C10.7744 8.39263 10.775 8.39343 10.7758 8.39412L10.7759 8.394C12.0358 9.66064 12.0364 11.721 10.7772 12.9869Z" fill="white"/>
</svg>
