<svg width="43" height="43" viewBox="0 0 43 43" fill="none" xmlns="http://www.w3.org/2000/svg">
<path d="M21.873 10.1647H9.96794C8.44539 10.1647 7.20654 8.92637 7.20654 7.40383V4.08366C7.20654 2.56136 8.44539 1.32275 9.96794 1.32275H21.873C23.3953 1.32275 24.6339 2.56136 24.6339 4.08366V7.40383C24.6339 8.92637 23.3953 10.1647 21.873 10.1647Z" fill="#8946DF"/>
<path d="M32.7446 11.873H41.6353V34.0498H32.7446V11.873Z" fill="#59CDFF"/>
<path d="M41.6353 9.51089V8.16181C41.6353 6.74162 40.4791 5.58618 39.0585 5.58618H35.3215C33.9008 5.58618 32.7446 6.74162 32.7446 8.16181V9.51089H41.6353Z" fill="#59CDFF"/>
<path d="M33.2524 36.4119L35.9135 40.9074C36.1792 41.3564 36.6681 41.6352 37.1897 41.6352C37.7118 41.6352 38.2007 41.3564 38.4664 40.9074L41.1275 36.4119H33.2524Z" fill="#59CDFF"/>
<path d="M13.2499 27.6054C14.0612 27.5994 14.8397 27.3817 15.5232 26.9804L14.9095 26.3633C13.0548 24.499 13.0548 21.465 14.9095 19.6004L15.5202 18.9865C14.836 18.584 14.0567 18.365 13.2443 18.3586C12.0355 18.3475 10.8884 18.8094 10.0193 19.6553C9.12151 20.5292 8.62695 21.709 8.62695 22.9772C8.62695 24.2473 9.12249 25.4293 10.0228 26.3055C10.8928 27.1526 12.0409 27.6137 13.2499 27.6054Z" fill="#59CDFF"/>
<path d="M19.9155 22.9833L22.2237 25.304C23.0463 23.8752 23.0453 22.0946 22.221 20.665L19.9155 22.9833Z" fill="#59CDFF"/>
<path d="M27.4294 4.56274H26.8347V7.45897C26.8347 10.179 24.6299 12.3839 21.9098 12.3839H9.93C7.20994 12.3839 5.00511 10.179 5.00511 7.45897V4.56274H4.41189C2.70579 4.56274 1.32275 5.94578 1.32275 7.65188V38.5474C1.32275 40.2527 2.7053 41.6353 4.41066 41.6353H27.4282C29.1345 41.6353 30.5173 40.2523 30.5173 38.5462V7.65065C30.5176 5.94553 29.1348 4.56274 27.4294 4.56274ZM8.37178 17.963C9.67584 16.6936 11.3908 15.9968 13.2061 15.9968H13.2635C15.1017 16.0118 16.8302 16.7397 18.1303 18.0467C18.5884 18.5075 18.5879 19.2518 18.13 19.7122L18.1303 19.7124L18.1259 19.7168C18.1256 19.7168 18.1256 19.7168 18.1256 19.7168V19.7171L16.5844 21.2664C15.6432 22.2125 15.6432 23.7518 16.5844 24.6983L18.1332 26.2553L18.133 26.2558C18.5909 26.7162 18.5919 27.4605 18.1332 27.9211C16.8339 29.2276 15.1056 29.9544 13.2669 29.9677C13.2497 29.9677 13.2325 29.9679 13.2155 29.9679C11.3982 29.9679 9.68076 29.2694 8.37473 27.9983C7.01409 26.6736 6.26463 24.8905 6.26463 22.9775C6.26487 21.0662 7.01311 19.2855 8.37178 17.963ZM22.7393 37.5895H8.77038C8.11835 37.5895 7.58935 37.061 7.58935 36.4085C7.58935 35.7562 8.11835 35.2275 8.77038 35.2275H22.7398C23.3918 35.2275 23.9208 35.7562 23.9208 36.4085C23.9208 37.061 23.3918 37.5895 22.7393 37.5895ZM22.7772 34.0464H8.80778C8.15575 34.0464 7.62675 33.5179 7.62675 32.8654C7.62675 32.2131 8.15575 31.6844 8.80778 31.6844H22.7772C23.4292 31.6844 23.9582 32.2131 23.9582 32.8654C23.9582 33.5179 23.4292 34.0464 22.7772 34.0464ZM23.1711 27.922L23.1708 27.9218C23.1696 27.9233 23.1681 27.9252 23.1669 27.9267C22.9366 28.1558 22.6352 28.2702 22.334 28.2702C22.0304 28.2702 21.7273 28.1543 21.4965 27.922L17.5457 23.9498C17.0154 23.4169 17.0154 22.5496 17.5452 22.0166L21.4935 18.0474C21.9531 17.5851 22.7011 17.5829 23.1634 18.043C23.1649 18.0445 23.1662 18.0462 23.1679 18.0476L23.1681 18.0474C25.8769 20.7707 25.8783 25.2005 23.1711 27.922Z" fill="#8946DF"/>
</svg>
