<svg width="26" height="26" viewBox="0 0 26 26" fill="none" xmlns="http://www.w3.org/2000/svg">
<path d="M25.6626 7.17681C25.4369 6.63539 25.1659 6.20643 24.8498 5.89054L20.1101 1.15091C19.7944 0.835196 19.3654 0.564248 18.8238 0.338418C18.2824 0.112826 17.7857 0 17.3344 0H1.62586C1.17461 0 0.790828 0.157885 0.474816 0.473893C0.158805 0.789722 0.000976562 1.17344 0.000976562 1.62492V24.375C0.000976562 24.8266 0.158805 25.2103 0.474816 25.5262C0.790828 25.8419 1.17461 26 1.62586 26H24.3762C24.8279 26 25.2115 25.8419 25.5274 25.5262C25.8431 25.2103 26.001 24.8266 26.001 24.375V8.66667C26.001 8.21513 25.8882 7.71865 25.6626 7.17681ZM10.8344 2.70812C10.8344 2.56144 10.8881 2.43474 10.9953 2.32731C11.1025 2.22035 11.2295 2.16676 11.3762 2.16676H14.6263C14.7727 2.16676 14.8996 2.22023 15.0068 2.32731C15.1143 2.43474 15.1679 2.56144 15.1679 2.70812V8.12483C15.1679 8.27175 15.1139 8.39862 15.0068 8.50588C14.8996 8.61277 14.7727 8.66643 14.6263 8.66643H11.3762C11.2295 8.66643 11.1024 8.61295 10.9953 8.50588C10.8881 8.39845 10.8344 8.27175 10.8344 8.12483V2.70812ZM19.5014 23.8334H6.50086V17.3333H19.5014V23.8334ZM23.8351 23.8334H21.6679H21.6675V16.7916C21.6675 16.34 21.5096 15.9565 21.1937 15.6404C20.8779 15.3245 20.4941 15.1664 20.0429 15.1664H5.95925C5.50782 15.1664 5.12404 15.3245 4.80803 15.6404C4.4922 15.9562 4.33419 16.34 4.33419 16.7916V23.8334H2.16747V2.16652H4.33413V9.20827C4.33413 9.65975 4.49196 10.0433 4.80797 10.3593C5.12398 10.6751 5.50776 10.8332 5.95919 10.8332H15.7097C16.1609 10.8332 16.545 10.6751 16.8605 10.3593C17.1762 10.0435 17.3344 9.65975 17.3344 9.20827V2.16652C17.5036 2.16652 17.7235 2.22284 17.9947 2.33567C18.2657 2.44844 18.4575 2.56126 18.5703 2.67409L23.3272 7.4308C23.44 7.54363 23.5529 7.73851 23.6656 8.01485C23.7788 8.29143 23.835 8.50872 23.835 8.66667V23.8334H23.8351Z" fill="white"/>
</svg>
