<svg width="33" height="33" viewBox="0 0 33 33" fill="none" xmlns="http://www.w3.org/2000/svg">
<g clip-path="url(#clip0)">
<path d="M14.7134 22.0044C14.6981 21.8424 14.6731 21.6812 14.6386 21.5218C14.6262 21.4628 14.6098 21.4093 14.5951 21.3532C14.5661 21.2424 14.5361 21.1328 14.495 21.0246C14.4737 20.9656 14.4536 20.9067 14.43 20.8477C14.371 20.6998 14.3034 20.5556 14.2274 20.4158C14.1998 20.3657 14.1684 20.3179 14.1385 20.269C14.0841 20.1795 14.0277 20.0924 13.9676 20.0063C13.9261 19.9473 13.8844 19.8924 13.8407 19.8377C13.7777 19.758 13.7118 19.6826 13.6439 19.609C13.6033 19.5649 13.565 19.5183 13.523 19.4757C13.4177 19.3719 13.3069 19.2735 13.1913 19.1811C13.1455 19.144 13.0972 19.11 13.0494 19.0752C12.9605 19.0096 12.8724 18.9477 12.7772 18.8902C12.7323 18.8623 12.688 18.8347 12.6428 18.8082C12.3591 18.6473 12.0576 18.5205 11.7442 18.4298C11.7039 18.4186 11.6634 18.4094 11.6228 18.3987C11.4985 18.3668 11.3722 18.3398 11.245 18.3213C11.2007 18.315 11.1567 18.3067 11.1118 18.3015C10.9446 18.2799 10.7766 18.2687 10.608 18.2678C10.2589 18.2684 9.91106 18.3121 9.57268 18.3976C7.74842 18.8663 6.47346 20.5113 6.47461 22.3948C6.47547 24.2781 7.75216 25.9216 9.5767 26.3886C9.73525 26.428 9.89609 26.4582 10.0581 26.4795L10.1289 26.4879C10.2673 26.5034 10.4065 26.5121 10.5461 26.5138H10.6692C10.7665 26.5138 10.862 26.5072 10.9567 26.4988C11.0286 26.4925 11.1011 26.4836 11.1748 26.4729C11.2013 26.4695 11.2277 26.4649 11.2539 26.4605C11.6248 26.4001 11.9862 26.2908 12.3286 26.1354L12.3775 26.1118C12.4495 26.0787 12.5214 26.0428 12.5945 26.0045C13.6842 25.4028 14.4449 24.3422 14.665 23.117C14.6892 22.9738 14.7076 22.8313 14.7183 22.6886C14.7183 22.6403 14.7235 22.5914 14.7252 22.5424C14.7307 22.4058 14.7284 22.2697 14.72 22.1341C14.7171 22.091 14.7171 22.0475 14.7134 22.0044Z" fill="#8946DF"/>
<path d="M20.625 24.1606C20.9504 24.1606 21.2143 23.8968 21.2143 23.5714V21.2142C21.2143 20.8888 20.9504 20.6249 20.625 20.6249H19.9767C19.2439 20.6223 18.5881 20.1689 18.3268 19.4841C18.2644 19.3203 18.1965 19.1575 18.124 18.9978C17.821 18.3291 17.9617 17.5427 18.4776 17.0202L18.9391 16.5583C19.169 16.3282 19.169 15.9552 18.9391 15.7251L17.2737 14.0596C17.0427 13.8312 16.6709 13.8312 16.4399 14.0596L15.9786 14.5206C15.4564 15.0371 14.6697 15.1775 14.0007 14.8742C13.841 14.8017 13.6784 14.7344 13.5136 14.6714C12.8305 14.4092 12.3782 13.7549 12.375 13.0232V12.3749C12.375 12.0495 12.1111 11.7856 11.7857 11.7856H9.42857C9.10314 11.7856 8.83928 12.0495 8.83928 12.3749V13.0232C8.8367 13.7561 8.38322 14.4118 7.69841 14.6731C7.53468 14.7355 7.37183 14.8034 7.21213 14.8759C6.54343 15.1795 5.75676 15.0388 5.23451 14.5223L4.7727 14.0608C4.54251 13.8309 4.1696 13.8309 3.93941 14.0608L2.27399 15.7251C2.1635 15.8355 2.10134 15.9855 2.10134 16.142C2.10134 16.2982 2.1635 16.4484 2.27399 16.5589L2.73494 17.0202C3.25085 17.5427 3.39156 18.3291 3.08857 18.9978C3.01606 19.1578 2.94873 19.3203 2.88572 19.4852C2.62416 20.1689 1.96956 20.6215 1.23756 20.6249H0.589286C0.263855 20.6249 0 20.8888 0 21.2142V23.5714C0 23.8968 0.263855 24.1606 0.589286 24.1606H1.23756C1.97042 24.1632 2.62618 24.6167 2.88744 25.3015C2.94988 25.4652 3.01779 25.6281 3.0903 25.7878C3.39328 26.4565 3.25258 27.2429 2.73667 27.7654L2.27514 28.2272C2.04524 28.4574 2.04524 28.8303 2.27514 29.0605L3.94056 30.7259C4.05105 30.8364 4.20096 30.8986 4.35749 30.8986C4.51373 30.8986 4.66393 30.8364 4.77442 30.7259L5.23566 30.265C5.7582 29.7494 6.54458 29.6087 7.21357 29.9114C7.37326 29.9842 7.53584 30.0518 7.70071 30.1142C8.3838 30.3763 8.83612 31.0307 8.83928 31.7624V32.4106C8.83928 32.7361 9.10314 32.9999 9.42857 32.9999H11.7857C12.1111 32.9999 12.375 32.7361 12.375 32.4106V31.7624C12.3776 31.0295 12.8311 30.3738 13.5159 30.1125C13.6796 30.05 13.8425 29.9821 14.0022 29.9096C14.6709 29.6061 15.4575 29.7468 15.9798 30.2633L16.4416 30.7248C16.6718 30.9547 17.0447 30.9547 17.2749 30.7248L18.9403 29.0594C19.0508 28.9489 19.1129 28.799 19.1129 28.6424C19.1129 28.4862 19.0508 28.336 18.9403 28.2255L18.4793 27.7643C17.9634 27.2417 17.8227 26.4553 18.1257 25.7864C18.1985 25.6267 18.2661 25.4641 18.3286 25.2992C18.5907 24.6161 19.245 24.1638 19.9767 24.1606H20.625ZM15.9061 22.4918C15.9061 22.5979 15.8978 22.7038 15.8894 22.8106C15.8808 22.9286 15.8658 23.0405 15.8494 23.1541C15.724 24.0136 15.4218 24.838 14.962 25.5749C14.8746 25.7173 14.7684 25.8474 14.6461 25.9616C14.1938 26.3909 13.6856 26.7578 13.1358 27.0524H13.1323C13.0328 27.1053 12.9344 27.1502 12.8377 27.1954C12.7614 27.2308 12.6855 27.2673 12.6078 27.2993C12.5301 27.3309 12.442 27.358 12.3597 27.3899C12.2772 27.4219 12.1989 27.4489 12.1163 27.4719C12.0101 27.503 11.9071 27.5309 11.8033 27.5525C11.7446 27.5654 11.6908 27.5804 11.6332 27.5913C11.4853 27.621 11.3386 27.6423 11.197 27.6581C11.1783 27.6581 11.1593 27.6638 11.138 27.6659C10.9613 27.6834 10.7844 27.6946 10.6178 27.6946C10.5223 27.6946 10.4368 27.6811 10.345 27.6762C10.2069 27.6699 10.0696 27.6664 9.9324 27.6492C9.72465 27.6215 9.51834 27.5821 9.31491 27.5315C9.30484 27.5315 9.29477 27.5283 9.28528 27.526C6.94252 26.9215 5.30501 24.8089 5.30415 22.3893C5.30328 19.9698 6.93878 17.8557 9.28125 17.2495C9.46943 17.2037 9.6602 17.1681 9.85241 17.1427C9.91887 17.1335 9.98592 17.1258 10.0527 17.1186C10.1793 17.1056 10.3053 17.0987 10.431 17.095C10.4897 17.095 10.5487 17.084 10.6077 17.084C11.7472 17.084 12.8555 17.4538 13.7668 18.1374L13.8635 18.2094C13.9377 18.2681 14.0108 18.3282 14.0821 18.3898C14.1411 18.4416 14.2001 18.496 14.2588 18.5506C14.3072 18.5967 14.3555 18.6413 14.4015 18.689C14.4893 18.7782 14.573 18.8712 14.6545 18.9673C14.672 18.988 14.6916 19.0078 14.7085 19.0291C14.9082 19.2703 15.0855 19.5289 15.2388 19.8017C15.2466 19.8152 15.2512 19.8299 15.259 19.8434C15.3562 20.0221 15.4431 20.2063 15.5188 20.395C15.5519 20.4759 15.5778 20.557 15.6083 20.639C15.6497 20.757 15.6869 20.8764 15.7197 20.9978C15.7458 21.0934 15.7729 21.1883 15.7933 21.2844C15.8247 21.4312 15.8471 21.5791 15.8658 21.7316C15.8831 21.872 15.8932 22.0127 15.8989 22.1543C15.9024 22.2319 15.9107 22.3085 15.9107 22.3899C15.9107 22.4265 15.9067 22.4581 15.9061 22.4918Z" fill="#8946DF"/>
<path d="M25.3535 11.8223C25.3771 11.8813 25.3955 11.9402 25.4171 11.9955C25.3955 11.9376 25.3771 11.8795 25.3535 11.8223Z" fill="black"/>
<path d="M25.4171 17.4688C25.3955 17.5277 25.3771 17.5867 25.3535 17.642C25.3771 17.5847 25.3955 17.5266 25.4171 17.4688Z" fill="black"/>
<path d="M25.0293 11.1375C25.0699 11.2134 25.1035 11.2931 25.1418 11.3731C25.103 11.2902 25.0699 11.2111 25.0293 11.1375Z" fill="black"/>
<path d="M25.6291 16.8357C25.6201 16.8659 25.6141 16.8947 25.6055 16.926C25.6141 16.8958 25.6201 16.8659 25.6291 16.8357Z" fill="black"/>
<path d="M20.3711 7.37061C20.4007 7.37953 20.4301 7.38557 20.4614 7.3942C20.4312 7.38557 20.4013 7.37953 20.3711 7.37061Z" fill="black"/>
<path d="M15.3574 7.64709C15.4164 7.62349 15.4754 7.60508 15.5306 7.5835C15.4728 7.60508 15.4147 7.62349 15.3574 7.64709Z" fill="black"/>
<path d="M25.6055 12.5381C25.6141 12.5677 25.6201 12.5971 25.6291 12.6284C25.6201 12.5982 25.6141 12.5683 25.6055 12.5381Z" fill="black"/>
<path d="M21.6328 7.85742C21.7105 7.89569 21.7902 7.92936 21.8685 7.96993C21.7896 7.92936 21.7105 7.89627 21.6328 7.85742Z" fill="black"/>
<path d="M22.252 8.19873C22.3397 8.25225 22.4286 8.30174 22.5152 8.35843C22.4292 8.30117 22.3397 8.24995 22.252 8.19873Z" fill="black"/>
<path d="M22.8867 8.63062C22.9647 8.6896 23.0464 8.74485 23.1224 8.80729C23.0458 8.74427 22.9653 8.69018 22.8867 8.63062Z" fill="black"/>
<path d="M24.1934 9.87769C24.2521 9.95365 24.311 10.0354 24.37 10.1133C24.3099 10.0348 24.2558 9.95422 24.1934 9.87769Z" fill="black"/>
<path d="M21.0039 7.5835C21.0629 7.60508 21.1219 7.62349 21.1771 7.64709C21.1199 7.62349 21.0617 7.60508 21.0039 7.5835Z" fill="black"/>
<path d="M24.6406 10.4839C24.6996 10.5693 24.7468 10.6606 24.8003 10.7472C24.7491 10.6594 24.6979 10.5699 24.6406 10.4839Z" fill="black"/>
<path d="M16.0742 7.3942C16.1039 7.38557 16.1332 7.37953 16.1646 7.37061C16.1344 7.37953 16.1044 7.38557 16.0742 7.3942Z" fill="black"/>
<path d="M13.4141 8.8068C13.49 8.74493 13.5712 8.68911 13.6497 8.63013C13.5712 8.69026 13.4906 8.74436 13.4141 8.8068Z" fill="black"/>
<path d="M24.3681 19.3516C24.3091 19.4295 24.2544 19.5107 24.1914 19.5872C24.255 19.5101 24.3091 19.4295 24.3681 19.3516Z" fill="black"/>
<path d="M14.0195 8.35859C14.1044 8.2996 14.1962 8.25241 14.2817 8.19946C14.1945 8.25011 14.1056 8.30133 14.0195 8.35859Z" fill="black"/>
<path d="M14.6738 7.96993C14.7498 7.92936 14.8295 7.89569 14.9095 7.85742C14.8266 7.89627 14.7475 7.92936 14.6738 7.96993Z" fill="black"/>
<path d="M25.1418 18.0964C25.1035 18.1741 25.0699 18.2538 25.0293 18.3321C25.0699 18.2533 25.103 18.1741 25.1418 18.0964Z" fill="black"/>
<path d="M24.7997 18.7183C24.7468 18.8055 24.6973 18.8949 24.6406 18.9804C24.6979 18.8944 24.7491 18.8055 24.7997 18.7183Z" fill="black"/>
<path d="M32.411 12.375H30.5577C29.8035 12.3779 29.1322 11.8982 28.8905 11.1841C28.7245 10.6891 28.5239 10.2066 28.29 9.73962C27.9534 9.06372 28.0872 8.24799 28.6223 7.71481L29.9364 6.39841C30.1663 6.16851 30.1663 5.79589 29.9364 5.5657L27.4351 3.0644C27.2049 2.83421 26.832 2.83421 26.6019 3.0644L25.2855 4.3785C24.7523 4.91282 23.9374 5.04691 23.2612 4.71141C22.7942 4.47719 22.3114 4.27635 21.8162 4.11033C21.1018 3.86863 20.6221 3.19676 20.6253 2.4426V0.589286C20.6253 0.263855 20.3614 0 20.036 0H16.5003C16.1748 0 15.911 0.263855 15.911 0.589286V2.4426C15.9139 3.19647 15.4342 3.86776 14.72 4.10975C14.2251 4.27577 13.7426 4.47633 13.2756 4.71026C12.5997 5.04749 11.7837 4.91369 11.2508 4.37792L9.93439 3.0644C9.7042 2.83421 9.33129 2.83421 9.1011 3.0644L6.60038 5.56512C6.37019 5.79531 6.37019 6.16822 6.60038 6.39841L10.8042 10.6071H11.786H11.8179C12.1146 10.139 12.461 9.70422 12.8515 9.3106C13.0302 9.13192 13.2178 8.96215 13.4137 8.80217C13.4902 8.73973 13.5708 8.6842 13.6494 8.6255C13.7719 8.53227 13.8928 8.43789 14.0205 8.35244C14.1066 8.29374 14.1972 8.24655 14.2827 8.19332C14.4113 8.11505 14.5379 8.03477 14.6711 7.96428C14.7477 7.92342 14.8268 7.89004 14.9068 7.85177C15.0564 7.77811 15.2063 7.70503 15.3611 7.64115C15.4201 7.61755 15.4791 7.59943 15.5343 7.57756C15.7113 7.50936 15.8928 7.44319 16.0773 7.38851C16.1072 7.3796 16.136 7.37384 16.1673 7.36492C17.5413 6.96583 19.0007 6.96583 20.3749 7.36492C20.4049 7.37384 20.4336 7.3796 20.465 7.38851C20.6494 7.44319 20.8293 7.50936 21.0077 7.57756C21.0667 7.59943 21.1256 7.61755 21.1809 7.64115C21.336 7.70503 21.4856 7.77811 21.6352 7.85177C21.7132 7.89004 21.792 7.92342 21.8709 7.96428C22.0041 8.03477 22.1304 8.11448 22.2582 8.19274C22.3459 8.24655 22.4348 8.29546 22.5215 8.35244C22.6495 8.43789 22.7703 8.52939 22.8923 8.62492C22.9706 8.68362 23.0515 8.73858 23.128 8.80159C23.5196 9.12184 23.8784 9.48065 24.1987 9.87226C24.2611 9.9488 24.3166 10.0297 24.3753 10.1079C24.468 10.2299 24.5624 10.3508 24.6478 10.4788C24.7065 10.5648 24.7537 10.6555 24.8075 10.7421C24.8858 10.8698 24.9655 10.9962 25.036 11.1294C25.0768 11.2059 25.1102 11.2848 25.1485 11.365C25.2222 11.5147 25.2952 11.6643 25.3591 11.8194C25.3827 11.8784 25.4008 11.9371 25.4227 11.9926C25.4909 12.1693 25.5571 12.3508 25.6117 12.5353C25.6207 12.5655 25.6264 12.5943 25.6353 12.6253C26.0344 13.9996 26.0344 15.459 25.6353 16.8329C25.6264 16.8631 25.6207 16.8919 25.6117 16.923C25.5571 17.1074 25.4941 17.2872 25.4227 17.4659C25.4008 17.5246 25.3827 17.5836 25.3591 17.6392C25.2952 17.794 25.2222 17.9439 25.1485 18.0935C25.1102 18.1712 25.0768 18.2503 25.036 18.3291C24.9655 18.4624 24.8852 18.589 24.8069 18.7176C24.7537 18.8048 24.7048 18.8943 24.6478 18.9797C24.5624 19.1075 24.4709 19.2283 24.3748 19.3509C24.3161 19.4289 24.2617 19.5094 24.1981 19.5866C24.0381 19.7825 23.8683 19.9701 23.6897 20.1488C23.296 20.5393 22.8613 20.8857 22.3931 21.1823C22.3931 21.1936 22.396 21.2036 22.396 21.2143V22.196L26.6019 26.3999C26.8318 26.6298 27.2044 26.6298 27.4346 26.3999L29.9359 23.8992C30.1661 23.669 30.1661 23.2961 29.9359 23.0659L28.6218 21.7495C28.0869 21.2166 27.9528 20.4011 28.2889 19.7252C28.5231 19.2582 28.7239 18.7754 28.8899 18.2802C29.1316 17.5658 29.8035 17.0861 30.5577 17.0893H32.411C32.7364 17.0893 33.0003 16.8254 33.0003 16.5V12.9643C33.0003 12.6389 32.7364 12.375 32.411 12.375Z" fill="#59CDFF"/>
<path d="M21.1777 7.64722C21.3317 7.71023 21.4819 7.78447 21.6321 7.85755C21.4825 7.78389 21.3323 7.71081 21.1777 7.64722Z" fill="black"/>
<path d="M21.8652 7.96997C21.9973 8.04018 22.1245 8.12017 22.2525 8.19872C22.1245 8.12017 21.9985 8.04075 21.8652 7.96997Z" fill="black"/>
<path d="M15.5312 7.58362C15.7079 7.51514 15.8906 7.44867 16.0739 7.39429C15.8895 7.44924 15.7099 7.51514 15.5312 7.58362Z" fill="black"/>
<path d="M20.4609 7.39429C20.6442 7.44867 20.8238 7.51514 21.0036 7.58362C20.8249 7.51514 20.6454 7.44924 20.4609 7.39429Z" fill="black"/>
<path d="M14.2812 8.1993C14.4099 8.12075 14.5376 8.04018 14.6697 7.96997C14.5365 8.04075 14.4099 8.12075 14.2812 8.1993Z" fill="black"/>
<path d="M13.6484 8.63117C13.771 8.53794 13.893 8.44328 14.0196 8.3584C13.8919 8.44385 13.771 8.53794 13.6484 8.63117Z" fill="black"/>
<path d="M14.9043 7.85755C15.0545 7.78447 15.2047 7.71023 15.3586 7.64722C15.2041 7.71081 15.0539 7.78389 14.9043 7.85755Z" fill="black"/>
<path d="M12.8516 9.3156C13.0317 9.13462 13.2204 8.966 13.4138 8.80688C13.2179 8.96687 13.0302 9.13663 12.8516 9.3156Z" fill="black"/>
<path d="M24.6419 18.9802C24.557 19.1068 24.4652 19.2288 24.3691 19.3514C24.4624 19.2288 24.5565 19.108 24.6419 18.9802Z" fill="black"/>
<path d="M25.3529 17.6421C25.2899 17.796 25.2157 17.9462 25.1426 18.0964C25.2162 17.9468 25.2893 17.7966 25.3529 17.6421Z" fill="black"/>
<path d="M25.0301 18.3269C24.9599 18.459 24.8793 18.5867 24.8008 18.7151C24.8793 18.5896 24.9593 18.463 25.0301 18.3269Z" fill="black"/>
<path d="M22.5156 8.3584C22.6422 8.44328 22.7637 8.53506 22.8862 8.63059C22.7642 8.53794 22.6434 8.44385 22.5156 8.3584Z" fill="black"/>
<path d="M25.6289 16.8357C26.028 15.4618 26.028 14.0024 25.6289 12.6284C26.0185 14.0038 26.0185 15.4603 25.6289 16.8357Z" fill="black"/>
<path d="M20.3714 7.37061C18.9974 6.97152 17.538 6.97152 16.1641 7.37061C17.5394 6.98101 18.996 6.98101 20.3714 7.37061Z" fill="black"/>
<path d="M24.1923 19.5864C24.0332 19.7798 23.8646 19.9685 23.6836 20.1487C23.8626 19.97 24.0323 19.7824 24.1923 19.5864Z" fill="black"/>
<path d="M23.6836 9.31543C23.8646 9.49555 24.0332 9.68431 24.1923 9.87767C24.0323 9.68172 23.8626 9.49411 23.6836 9.31543Z" fill="black"/>
<path d="M24.3691 10.1133C24.4618 10.2359 24.5565 10.3573 24.6413 10.4839C24.5559 10.3561 24.4618 10.2353 24.3691 10.1133Z" fill="black"/>
<path d="M23.123 8.80688C23.3164 8.966 23.5052 9.13462 23.6853 9.3156C23.5066 9.13663 23.319 8.96687 23.123 8.80688Z" fill="black"/>
<path d="M25.416 11.9954C25.4845 12.172 25.551 12.3547 25.6053 12.538C25.5504 12.3536 25.4845 12.174 25.416 11.9954Z" fill="black"/>
<path d="M24.8008 10.7473C24.8793 10.8754 24.9593 11.0025 25.0295 11.1346C24.9587 11.0014 24.8793 10.8754 24.8008 10.7473Z" fill="black"/>
<path d="M25.6053 16.926C25.551 17.1093 25.4874 17.2889 25.416 17.4687C25.4845 17.29 25.5504 17.1105 25.6053 16.926Z" fill="black"/>
<path d="M25.1426 11.3679C25.2157 11.5181 25.2899 11.6683 25.3529 11.8223C25.2893 11.6677 25.2162 11.5175 25.1426 11.3679Z" fill="black"/>
</g>
<defs>
<clipPath id="clip0">
<rect width="33" height="33" fill="white"/>
</clipPath>
</defs>
</svg>
