<svg width="20" height="20" viewBox="0 0 20 20" fill="none" xmlns="http://www.w3.org/2000/svg">
<path d="M15 15.3687C14.5669 15.3687 14.252 15.6837 14.252 16.1168V16.8648H1.49606V7.73093H3.50394C3.93701 7.73093 4.25197 7.41597 4.25197 6.98289C4.25197 6.54982 3.93701 6.23486 3.50394 6.23486H0.748031C0.314961 6.23486 0 6.54982 0 6.98289V17.6128C0 18.0459 0.314961 18.3608 0.748031 18.3608H15C15.4331 18.3608 15.748 18.0459 15.748 17.6128V16.1168C15.748 15.6837 15.4331 15.3687 15 15.3687Z" fill="#59CDFF"/>
<path d="M19.8029 7.37684L14.2911 1.86502C13.7793 1.35321 13.0313 1.78628 13.0313 2.41621V4.85715C10.1572 4.97526 7.87379 5.92014 6.25961 7.53432C3.7793 10.0146 3.7793 13.2823 3.7793 13.4005C3.7793 13.7942 4.09426 14.1485 4.52733 14.1485C4.80292 14.1485 5.03914 14.0304 5.15725 13.7942C6.57457 11.2745 10.3147 10.8808 12.4013 10.8808H13.0313V13.4005C13.0313 14.0304 13.8187 14.4241 14.2911 13.9516L19.8029 8.43983C19.9604 8.28235 19.9998 8.0855 19.9998 7.88865C19.9998 7.6918 19.9604 7.53432 19.8029 7.37684Z" fill="white"/>
</svg>
