<svg width="22" height="22" viewBox="0 0 22 22" fill="none" xmlns="http://www.w3.org/2000/svg">
<g clip-path="url(#clip0)">
<path d="M18.065 21.6234C13.3598 22.1255 8.64024 22.1255 3.935 21.6234C2.05881 21.4231 0.576889 19.9412 0.376648 18.0648C-0.125549 13.3596 -0.125549 8.64024 0.376648 3.935C0.576889 2.05881 2.05881 0.576889 3.935 0.376648C8.64024 -0.125549 13.3596 -0.125549 18.0648 0.376648C19.9412 0.576889 21.4231 2.05881 21.6234 3.935C22.1255 8.64024 22.1255 13.3596 21.6234 18.0648C21.4231 19.9412 19.9414 21.4231 18.065 21.6234Z" fill="url(#paint0_linear)"/>
<path d="M20.4271 4.73081C20.2495 3.06594 18.9346 1.75086 17.2695 1.57311C13.0942 1.12765 8.90641 1.12765 4.73106 1.57311C3.06618 1.75086 1.75111 3.06594 1.57336 4.73081C1.12789 8.90617 1.12789 13.0939 1.57336 17.2691C1.75111 18.9342 3.06618 20.2492 4.73106 20.4268C8.90641 20.8725 13.0942 20.8725 17.2694 20.4268C18.9344 20.2492 20.2495 18.9342 20.4271 17.2691C20.8727 13.0939 20.8727 8.90617 20.4271 4.73081Z" fill="url(#paint1_linear)"/>
<path d="M0.330078 17.6089C0.345184 17.761 0.360794 17.913 0.377075 18.0651C0.577316 19.9413 2.05923 21.4232 3.93559 21.6234C8.64084 22.1256 13.3602 22.1256 18.0654 21.6234C19.9418 21.4232 21.4235 19.9413 21.6238 18.0651C21.6401 17.913 21.6557 17.761 21.6709 17.6089H0.330078Z" fill="url(#paint2_linear)"/>
<path d="M21.6229 18.0649C21.7909 16.4912 21.9024 14.9159 21.9579 13.34L14.0322 5.41431C13.0038 4.28755 11.6178 4.18164 11.1399 4.18164H11.1392C11.1268 4.18164 11.1151 4.18164 11.1038 4.18181C11.1038 4.18181 10.8713 4.18416 10.8529 4.18416C10.2543 4.18416 8.22591 4.35083 7.26884 6.49641C6.94708 7.21832 7.02412 8.44427 7.08606 9.42937C7.09328 9.54552 7.10116 9.6662 7.10771 9.78268C7.0582 9.81004 6.96773 9.84428 6.82539 9.84428C6.63539 9.84428 6.41098 9.78419 6.1582 9.66586C6.09106 9.63431 6.01369 9.6187 5.92825 9.6187C5.63217 9.6187 5.27818 9.8134 5.22296 10.1036C5.19392 10.2562 5.23622 10.4598 5.5219 10.6617C5.56956 10.7374 6.7883 11.9592 6.87709 12.0276C6.74264 12.3207 5.84651 14.1207 3.99718 14.4253C3.84544 14.4503 3.73718 14.5854 3.74557 14.7389C3.74809 14.7845 3.759 14.83 3.77763 14.874C3.82161 14.9767 3.90771 15.071 4.03645 15.158L10.8782 21.9996C13.2747 22.0039 15.6714 21.8789 18.0644 21.6234C19.9409 21.4232 21.4227 19.9413 21.6229 18.0649Z" fill="url(#paint3_linear)"/>
<path d="M11.0901 17.668C11.0535 17.668 11.0175 17.667 10.9815 17.6652H10.9814C10.9585 17.667 10.9345 17.668 10.9105 17.668C10.0688 17.668 9.52866 17.2862 9.00615 16.9168C8.64545 16.662 8.30506 16.4213 7.90407 16.3545C7.70836 16.3221 7.51349 16.3056 7.32517 16.3056C6.98612 16.3056 6.71857 16.358 6.52319 16.3963C6.40453 16.4194 6.30197 16.4394 6.22426 16.4394C6.14302 16.4394 6.0549 16.4218 6.01663 16.291C5.98323 16.1776 5.95923 16.0678 5.93607 15.9617C5.87648 15.6883 5.83402 15.5203 5.71954 15.5027C4.38449 15.2965 4.00247 15.0152 3.91721 14.8158C3.90512 14.7873 3.89824 14.7588 3.89673 14.7304C3.89237 14.6537 3.94658 14.586 4.02245 14.5736C6.07454 14.2357 6.99484 12.1383 7.03311 12.0492C7.03412 12.0467 7.0353 12.0443 7.0363 12.0418C7.16202 11.7874 7.18652 11.5663 7.10965 11.3854C6.96883 11.0534 6.5096 10.9075 6.20546 10.811C6.1311 10.7875 6.06061 10.7652 6.00488 10.7434C5.39829 10.5035 5.34776 10.2573 5.3716 10.1317C5.41222 9.91789 5.69806 9.76884 5.92902 9.76884C5.99246 9.76884 6.04819 9.78009 6.09519 9.80208C6.3681 9.92998 6.614 9.99477 6.82633 9.99477C7.11955 9.99477 7.24745 9.8714 7.26323 9.85529C7.25568 9.71631 7.24645 9.57129 7.23705 9.42157C7.17595 8.45142 7.10008 7.24577 7.40708 6.5576C8.32704 4.49477 10.2781 4.33464 10.854 4.33464C10.8687 4.33464 11.1066 4.33195 11.1066 4.33195L11.1407 4.33179C11.718 4.33179 13.6733 4.49242 14.5938 6.55626C14.9008 7.24493 14.8249 8.45142 14.7636 9.4209L14.7611 9.46303C14.7525 9.59814 14.7443 9.7294 14.7374 9.85495C14.7522 9.86989 14.8699 9.98335 15.1357 9.99342H15.1361C15.3382 9.9857 15.5703 9.92125 15.8251 9.80191C15.8999 9.76717 15.9829 9.75978 16.0393 9.75978C16.1255 9.75978 16.213 9.7764 16.2855 9.80678L16.2899 9.80846C16.496 9.88164 16.6311 10.026 16.6339 10.177C16.6366 10.319 16.5282 10.5329 15.9958 10.7432C15.9406 10.7648 15.8701 10.7872 15.7954 10.811C15.4911 10.9075 15.0318 11.0532 14.8912 11.385C14.8141 11.5661 14.8388 11.7869 14.9644 12.0417C14.9655 12.044 14.9667 12.0464 14.9677 12.049C15.006 12.138 15.9255 14.2349 17.9786 14.5733C18.0543 14.5857 18.1085 14.6534 18.1043 14.7301C18.1026 14.7589 18.0956 14.7878 18.0833 14.816C17.9987 15.0141 17.6169 15.2949 16.2813 15.5013C16.1724 15.5179 16.1301 15.6601 16.0649 15.9584C16.0411 16.0668 16.0173 16.1734 15.9842 16.2855C15.9558 16.3827 15.8952 16.4282 15.7932 16.4282H15.7766C15.7059 16.4282 15.6052 16.4156 15.4778 16.3904C15.2517 16.3463 14.9981 16.3055 14.6757 16.3055C14.4874 16.3055 14.2925 16.3219 14.0966 16.3543C13.696 16.4211 13.3557 16.6613 12.9957 16.9159C12.4724 17.2862 11.9321 17.668 11.0901 17.668Z" fill="white"/>
<path d="M11.1399 4.48242C11.6864 4.48259 13.5686 4.62912 14.4557 6.61777C14.7476 7.27237 14.6729 8.45871 14.6128 9.41174C14.6032 9.56281 14.594 9.70917 14.5866 9.84932L14.5833 9.90941L14.6235 9.95422C14.6397 9.97235 14.7916 10.131 15.1291 10.1441L15.1348 10.1442L15.1404 10.1441C15.3636 10.1357 15.615 10.0663 15.8883 9.93828C15.9284 9.91948 15.9819 9.91042 16.0385 9.91042C16.1031 9.91042 16.1716 9.9225 16.2282 9.94633L16.2367 9.94969C16.3799 9.99988 16.4811 10.0945 16.483 10.1801C16.4836 10.2288 16.4474 10.4029 15.9398 10.6035C15.8901 10.6231 15.8248 10.6437 15.7491 10.6677C15.419 10.7726 14.92 10.9309 14.752 11.3264C14.6573 11.5498 14.683 11.8128 14.8287 12.1084C14.8887 12.2484 15.8314 14.3725 17.9533 14.7221C17.9526 14.7318 17.9503 14.7431 17.9446 14.756C17.9085 14.8407 17.6799 15.1331 16.2577 15.3527C16.035 15.3871 15.9804 15.6363 15.9171 15.9264C15.8945 16.0301 15.8712 16.1348 15.8391 16.2433C15.8295 16.276 15.8277 16.278 15.7924 16.278C15.7876 16.278 15.7822 16.278 15.7758 16.278C15.7127 16.278 15.6169 16.2649 15.5058 16.2431C15.3042 16.2037 15.0277 16.1553 14.6749 16.1553C14.4779 16.1553 14.2748 16.1724 14.0713 16.2062C13.6361 16.2787 13.282 16.5291 12.907 16.794C12.4036 17.15 11.8833 17.5177 11.0894 17.5177C11.0548 17.5177 11.0209 17.5167 10.987 17.515L10.9781 17.5145L10.969 17.5154C10.9496 17.5171 10.9299 17.5177 10.9098 17.5177C10.116 17.5177 9.59537 17.15 9.09216 16.7941C8.71736 16.5291 8.36304 16.2787 7.92798 16.2062C7.72438 16.1724 7.52145 16.1553 7.3244 16.1553C6.97159 16.1553 6.69514 16.2092 6.49339 16.2486C6.38245 16.2705 6.28644 16.2889 6.22349 16.2889C6.17197 16.2889 6.17096 16.2861 6.16005 16.2488C6.12816 16.1404 6.10483 16.033 6.08217 15.9294C6.01889 15.6392 5.964 15.3884 5.74161 15.354C4.31927 15.1345 4.09083 14.8412 4.05475 14.7567C4.04904 14.7436 4.04669 14.7321 4.04619 14.7222C6.16794 14.3726 7.11056 12.2489 7.17049 12.1085C7.31634 11.8126 7.34219 11.5498 7.24753 11.3267C7.07968 10.9309 6.5805 10.7726 6.25018 10.6676C6.17448 10.6437 6.10919 10.6231 6.05951 10.6033C5.63066 10.4339 5.4989 10.2634 5.51871 10.16C5.54137 10.0407 5.74798 9.91948 5.92842 9.91948C5.96904 9.91948 6.00445 9.92603 6.03064 9.93828C6.3237 10.0754 6.59125 10.1452 6.82556 10.1452C7.19432 10.1452 7.35864 9.97353 7.3761 9.95406L7.41604 9.90941L7.41269 9.84949C7.4053 9.70967 7.39607 9.56331 7.3865 9.41225C7.32641 8.45921 7.25189 7.27388 7.54378 6.61894C8.42732 4.63768 10.3003 4.48494 10.8534 4.48494C10.867 4.48494 11.1073 4.48259 11.1073 4.48259C11.1176 4.48259 11.1283 4.48242 11.1399 4.48242ZM11.1399 4.18164H11.1392C11.1268 4.18164 11.1151 4.18164 11.1038 4.18181C11.1038 4.18181 10.8713 4.18416 10.8529 4.18416C10.2543 4.18416 8.22591 4.35083 7.26884 6.49658C6.94708 7.21832 7.02412 8.44427 7.08606 9.42937C7.09328 9.54568 7.10116 9.6662 7.10771 9.78268C7.0582 9.81021 6.96773 9.84428 6.82539 9.84428C6.63539 9.84428 6.41098 9.78436 6.1582 9.66586C6.09106 9.63448 6.01369 9.6187 5.92825 9.6187C5.63217 9.6187 5.27818 9.8134 5.22296 10.1038C5.18318 10.3127 5.27684 10.6177 5.94873 10.8831C6.00949 10.9071 6.08234 10.9303 6.15938 10.9546C6.437 11.0427 6.85661 11.1758 6.97041 11.444C7.02933 11.583 7.00583 11.7619 6.90059 11.9754C6.89841 11.9803 6.89606 11.9852 6.89387 11.99C6.85695 12.076 5.96887 14.1005 3.99718 14.4252C3.84544 14.4502 3.73718 14.5854 3.74557 14.7389C3.74809 14.7845 3.759 14.83 3.77763 14.874C3.92551 15.2199 4.54989 15.4735 5.68655 15.6499C5.72449 15.7013 5.76393 15.8827 5.78827 15.9933C5.81193 16.1024 5.83644 16.2149 5.87135 16.3337C5.90559 16.4504 5.99455 16.5899 6.22333 16.5899C6.31581 16.5899 6.42491 16.5686 6.55113 16.5437C6.74046 16.5068 6.99979 16.4561 7.3244 16.4561C7.50433 16.4561 7.69098 16.4717 7.8788 16.5029C8.24554 16.564 8.55723 16.7842 8.91811 17.0394C9.43491 17.4048 10.0202 17.8185 10.9098 17.8185C10.9341 17.8185 10.9588 17.8177 10.983 17.8158C11.012 17.8172 11.0494 17.8185 11.0892 17.8185C11.9791 17.8185 12.5642 17.4048 13.0807 17.0395C13.4424 16.7841 13.7538 16.5639 14.1205 16.5029C14.3082 16.4717 14.4948 16.4561 14.6749 16.4561C14.9846 16.4561 15.2295 16.4955 15.4482 16.5382C15.5851 16.565 15.6953 16.5786 15.7758 16.5786L15.7842 16.5788H15.7924C15.9613 16.5788 16.0806 16.4895 16.1278 16.3274C16.1622 16.2112 16.1867 16.1016 16.2109 15.9907C16.235 15.8804 16.2743 15.6996 16.3123 15.6486C17.4491 15.472 18.0733 15.2189 18.221 14.8745C18.24 14.8303 18.2509 14.7845 18.2536 14.7385C18.2621 14.5851 18.1537 14.45 18.0021 14.425C16.0294 14.0999 15.142 12.0758 15.1051 11.9899C15.1031 11.985 15.1009 11.9801 15.0984 11.9753C14.9931 11.7618 14.9698 11.583 15.0287 11.444C15.1425 11.1758 15.562 11.0425 15.8396 10.9546C15.9171 10.9299 15.9902 10.9068 16.0502 10.8831C16.542 10.6889 16.7888 10.4502 16.7836 10.1741C16.7794 9.95708 16.6104 9.76355 16.3418 9.66771L16.341 9.66737C16.2507 9.62994 16.1434 9.60947 16.0383 9.60947C15.9667 9.60947 15.8601 9.6192 15.7607 9.6657C15.5267 9.7753 15.3164 9.83488 15.1353 9.84311C15.0151 9.8374 14.9364 9.80719 14.8916 9.78252C14.8971 9.68248 14.9037 9.57959 14.9104 9.472L14.9129 9.43021C14.9752 8.44444 15.0524 7.21748 14.7303 6.49507C13.7729 4.34865 11.7401 4.18164 11.1399 4.18164Z" fill="#030303"/>
</g>
<defs>
<linearGradient id="paint0_linear" x1="7.30443" y1="3.09316" x2="12.8689" y2="14.9985" gradientUnits="userSpaceOnUse">
<stop stop-color="#FFFC00"/>
<stop offset="1" stop-color="#FFE600"/>
</linearGradient>
<linearGradient id="paint1_linear" x1="15.6531" y1="13.496" x2="-16.3101" y2="-3.65024" gradientUnits="userSpaceOnUse">
<stop stop-color="#FFE600" stop-opacity="0"/>
<stop offset="1" stop-color="#FFCE00"/>
</linearGradient>
<linearGradient id="paint2_linear" x1="11.0004" y1="18.7939" x2="11.0004" y2="21.6766" gradientUnits="userSpaceOnUse">
<stop stop-color="#FFE600" stop-opacity="0"/>
<stop offset="1" stop-color="#FFCE00"/>
</linearGradient>
<linearGradient id="paint3_linear" x1="16.5249" y1="20.6481" x2="12.2545" y2="13.0132" gradientUnits="userSpaceOnUse">
<stop stop-color="#FFE600" stop-opacity="0"/>
<stop offset="1" stop-color="#FFCE00"/>
</linearGradient>
<clipPath id="clip0">
<rect width="22" height="22" fill="white"/>
</clipPath>
</defs>
</svg>
