<svg width="70" height="69" viewBox="0 0 70 69" fill="none" xmlns="http://www.w3.org/2000/svg">
<g>
<path d="M34.9876 27.1345C34.9876 27.1345 30.8931 34.8447 30.8941 37.1089C30.8911 39.367 32.7234 41.1993 34.9865 41.2013C37.2477 41.1993 39.08 39.367 39.08 37.1079C39.0769 34.8458 34.9876 27.1345 34.9876 27.1345Z" fill="#17A4E0"/>
<path d="M36.5765 12.9994L42.6439 13.0004L42.6408 7.79881C42.6408 7.79881 36.6132 5.21991 27.0431 7.80085L27.0431 13.0014L33.1095 12.9994L33.1115 13.0014L33.1125 14.3163C27.9364 14.7136 22.8733 16.8759 18.9143 20.8349C10.1153 29.6339 10.1143 43.8943 18.9153 52.6954C27.7123 61.4924 41.9747 61.4934 50.7737 52.6943C59.5728 43.8953 59.5718 29.6329 50.7748 20.8359C46.8137 16.8749 41.7486 14.7146 36.5776 14.3163L36.5765 12.9994ZM47.1295 25.017C47.1396 25.0312 47.1519 25.0455 47.1682 25.0618L47.3963 24.8336C50.1005 27.7904 51.6537 31.5416 51.835 35.5424L51.5478 35.5424C51.5519 35.6055 51.5611 35.6677 51.5641 35.7298L47.2181 35.7308L47.2191 37.0946L51.835 37.0946C51.6497 41.0995 50.1025 44.8466 47.3953 47.8085L47.3352 47.7484C47.2649 47.8309 47.2008 47.9114 47.1264 47.9938L43.9058 44.7733L43.037 45.6421L46.2994 48.9044C45.8461 49.3169 45.3735 49.6917 44.8877 50.0492C42.1356 52.1657 38.8265 53.3727 35.3187 53.5316L35.3197 48.9105L34.0363 48.9126L34.0363 53.3452C33.9447 53.337 33.8601 53.3217 33.7685 53.3217L33.7705 53.5316C29.6516 53.3462 25.9136 51.7003 23.0577 49.0908L26.321 45.8274L25.2648 44.7712L22.2296 47.8064C22.2174 47.7942 22.2041 47.7769 22.1919 47.7647L21.9617 47.9949C19.3513 45.1379 17.7063 41.4009 17.523 37.28L17.8072 37.283C17.8051 37.2179 17.7939 37.1578 17.7899 37.0926L22.142 37.0977L22.141 35.7298L17.523 35.7298C17.7033 31.726 19.2596 27.9737 21.9638 25.019L22.0239 25.0791C22.0911 24.9996 22.1583 24.9121 22.2296 24.8326L25.4502 28.0532L26.319 27.1844L23.0587 23.9241C23.5079 23.5116 23.9855 23.1357 24.4704 22.7793C27.2255 20.6638 30.5326 19.4589 34.0363 19.3L34.0363 23.9119L35.3238 23.9139L35.3197 19.4854C35.4113 19.4894 35.4989 19.5057 35.5875 19.5129L35.5886 19.2979C39.5914 19.4813 43.3395 21.0315 46.2994 23.7387L43.035 27.0031L44.0912 28.0593L47.1315 25.019L47.1295 25.017Z" fill="#8946DF"/>
</g>
<defs>
<clipPath id="clip0">
<rect width="48.5246" height="48.5246" fill="white" transform="translate(0.531982 34.312) rotate(-45)"/>
</clipPath>
</defs>
</svg>
