<svg width="128" height="128" viewBox="0 0 128 128" fill="none" xmlns="http://www.w3.org/2000/svg">
<circle opacity="0.05" cx="64" cy="64" r="64" fill="#8946DF"/>
<g>
<path d="M59.5731 59.3275C60.0963 59.1836 60.6327 59.1051 61.1952 59.1051C64.557 59.1051 67.291 61.8391 67.291 65.201C67.291 68.5629 64.557 71.2968 61.1952 71.2968C57.8333 71.2968 55.0993 68.5629 55.0993 65.201C55.0993 64.6385 55.1778 64.0891 55.3217 63.5789L38.3422 46.5994L35.5952 46.9657L27.0008 38.3713L33.5022 37.508L34.3655 31.0066L42.9599 39.601L42.5936 42.348L59.5731 59.3275Z" fill="#8946DF"/>
<path d="M60.5404 53.4932L55.5172 48.47C61.6785 46.377 68.7816 47.7898 73.6871 52.7083C80.5809 59.6021 80.5809 70.7997 73.6871 77.6935C66.7932 84.5873 55.5957 84.5873 48.7019 77.6935C43.7833 72.775 42.3706 65.6849 44.4636 59.5106L49.4867 64.5338C49.3036 67.7518 50.4417 71.0352 52.901 73.4944C57.4794 78.0729 64.9095 78.0729 69.488 73.4944C74.0664 68.916 74.0664 61.4858 69.488 56.9074C67.0287 54.4481 63.7584 53.3101 60.5404 53.4932Z" fill="#8946DF"/>
<path d="M40.1336 55.1937C36.013 63.8535 37.5435 74.5147 44.712 81.6833C53.8166 90.7878 68.5722 90.7878 77.6768 81.6833C86.7813 72.5787 86.7813 57.8231 77.6768 48.7185C70.5082 41.55 59.847 40.0326 51.1872 44.1401L46.3864 39.3393C57.7671 32.8117 72.5489 34.4076 82.2683 44.127C93.9106 55.7693 93.9106 74.6325 82.2683 86.2617C70.626 97.904 51.7628 97.904 40.1336 86.2617C30.4142 76.5423 28.8183 61.7605 35.3458 50.3798L40.1336 55.1937Z" fill="#8946DF"/>
</g>
<circle cx="87.4742" cy="47.675" r="19.025" fill="#38B21A" stroke="#F3ECFC" stroke-width="5"/>
<path d="M96.1813 41.2409L96.4363 40.8949L96.1325 40.5909L95.6171 40.0751L94.913 39.3705L94.3976 38.8548L94.0933 38.5503L93.747 38.8059L92.285 39.8849C91.4355 39.3502 90.4928 38.9501 89.4856 38.7178L89.2176 36.926L89.1539 36.5H88.7231H87.99H86.9955H86.2624H85.8316L85.7679 36.926L85.5002 38.7158C84.4925 38.9432 83.5451 39.3432 82.6983 39.8833L81.2385 38.8059L80.8922 38.5503L80.5879 38.8548L80.0725 39.3705L79.3684 40.0751L78.853 40.5909L78.5492 40.8949L78.8042 41.2409L79.8822 42.7036C79.3481 43.5507 78.9538 44.495 78.728 45.5074L76.9248 45.7817L76.5 45.8463V46.276V47.0097V48.0048V48.7385V49.1684L76.925 49.2329L78.7381 49.5077C78.9685 50.5069 79.362 51.4476 79.8954 52.2889L78.8052 53.7577L78.5482 54.104L78.853 54.4091L79.3684 54.9249L80.0725 55.6295L80.5879 56.1452L80.892 56.4495L81.2383 56.1942L82.7226 55.1001C83.5652 55.6278 84.5007 56.0214 85.5004 56.2476L85.7752 58.0744L85.8392 58.5H86.2696H87.0028H87.9972H88.7304H89.1608L89.2248 58.0744L89.4996 56.2476C90.4993 56.0214 91.4348 55.6278 92.2774 55.1001L93.7617 56.1942L94.108 56.4495L94.4121 56.1452L94.9275 55.6295L95.6316 54.9249L96.147 54.4091L96.4512 54.1046L96.1954 53.7585L95.1036 52.2815C95.6369 51.4369 96.0311 50.5003 96.2619 49.5005L98.075 49.2256L98.5 49.1611V48.7312V47.9976V47.0024V46.2688V45.8391L98.0752 45.7745L96.2673 45.4994C96.0317 44.4986 95.6368 43.5559 95.1026 42.7045L96.1813 41.2409ZM87.4964 53.7082C84.0708 53.7082 81.2891 50.9252 81.2891 47.4964C81.2891 44.0676 84.0708 41.2845 87.4964 41.2845C90.9219 41.2845 93.7036 44.0676 93.7036 47.4964C93.6963 50.9264 90.9207 53.7082 87.4964 53.7082Z" fill="white" stroke="white"/>
<defs>
<clipPath id="clip0">
<rect width="64" height="64" fill="white" transform="matrix(-1 0 0 1 91 31)"/>
</clipPath>
</defs>
</svg>
