<svg width="20" height="24" viewBox="0 0 20 24" fill="none" xmlns="http://www.w3.org/2000/svg">
<path d="M12.9866 18.9558V7.11836C12.9866 6.59669 12.5788 6.17387 12.0756 6.17387C11.5724 6.17387 11.1646 6.59669 11.1646 7.11836V18.9558C11.1646 19.4777 11.5724 19.9003 12.0756 19.9003C12.5788 19.9003 12.9866 19.4777 12.9866 18.9558ZM8.8351 18.9558V7.11836C8.8351 6.59669 8.42727 6.17387 7.92408 6.17387C7.42089 6.17387 7.01306 6.59669 7.01306 7.11836V18.9558C7.01306 19.4777 7.42089 19.9003 7.92408 19.9003C8.42727 19.9003 8.8351 19.4777 8.8351 18.9558ZM17.0665 6.17387C16.5633 6.17387 16.1555 6.59669 16.1555 7.11836V21.4155C16.1555 21.7987 15.8551 22.111 15.4859 22.111H4.51503C4.14516 22.111 3.84422 21.7987 3.84422 21.4155V7.11836C3.84422 6.59669 3.43638 6.17387 2.93319 6.17387C2.43 6.17387 2.02217 6.59669 2.02217 7.11836V21.4155C2.02217 22.8402 3.1406 24 4.51503 24H15.4856C16.8594 24 17.9772 22.8402 17.9772 21.4155V7.11836C17.9775 6.59637 17.5697 6.17387 17.0665 6.17387ZM19.089 3.23113H14.9645V0.944498C14.9645 0.42282 14.5566 0 14.0534 0H5.94655C5.44337 0 5.03553 0.42282 5.03553 0.944498V3.23113H0.911023C0.407835 3.23113 0 3.65395 0 4.17562C0 4.6973 0.407835 5.12012 0.911023 5.12012H19.089C19.5922 5.12012 20 4.6973 20 4.17562C20 3.65395 19.5922 3.23113 19.089 3.23113ZM13.1424 3.23113H6.85758V1.889H13.1421V3.23113H13.1424Z" fill="#FF5271"/>
</svg>
