<svg width="22" height="22" viewBox="0 0 22 22" fill="none" xmlns="http://www.w3.org/2000/svg">
<g>
<path d="M11.0001 5.71924C9.84422 5.71924 8.90381 6.65961 8.90381 7.81551C8.90381 8.97137 9.84418 9.91179 11.0001 9.91179C12.156 9.91179 13.0963 8.97141 13.0963 7.81551C13.0963 6.65961 12.1559 5.71924 11.0001 5.71924Z" fill="white"/>
<path d="M4.76768 0C3.93786 0 3.2627 0.675168 3.2627 1.50498V15.7258C3.69745 15.4467 4.21377 15.284 4.76768 15.284H16.7369C17.8415 15.284 18.7369 14.3886 18.7369 13.284V2C18.7369 0.895428 17.8415 0 16.7369 0H4.76768ZM15.298 8.45964H14.3229C14.2347 8.91477 14.0558 9.33784 13.8048 9.70857L14.4949 10.3987L13.5834 11.3101L12.8933 10.6201C12.5225 10.8711 12.0994 11.0501 11.6444 11.1381V12.1133H10.3553V11.1381C9.90017 11.05 9.47705 10.8711 9.10636 10.6201L8.41628 11.3101L7.50483 10.3987L8.19491 9.70857C7.94384 9.33784 7.76492 8.91473 7.67683 8.45964H6.70166V7.17062H7.67679C7.76492 6.7155 7.9438 6.29243 8.19486 5.9217L7.50479 5.23162L8.41624 4.32012L9.10632 5.0102C9.47705 4.75913 9.90016 4.58021 10.3552 4.49212V3.51699H11.6444V4.49212C12.0995 4.58025 12.5226 4.75913 12.8933 5.0102L13.5834 4.32012L14.4949 5.23162L13.8048 5.9217C14.0558 6.29243 14.2348 6.71554 14.3229 7.17062H15.298V8.45964Z" fill="white"/>
<path d="M4.76768 16.5728C3.93782 16.5728 3.2627 17.2479 3.2627 18.0777C3.2627 18.9076 3.93786 19.5827 4.76768 19.5827H6.05627V18.1497H11.1666V19.5827H17.7369C18.2892 19.5827 18.7369 19.135 18.7369 18.5827V17.5728C18.7369 17.0205 18.2892 16.5728 17.7369 16.5728H4.76768Z" fill="#59CDFF"/>
<path d="M7.34521 19.439V21.9999L8.61133 21.4301L9.87754 21.9999V19.439H7.34521Z" fill="white"/>
</g>
<defs>
<clipPath id="clip0">
<rect width="22" height="22" fill="white"/>
</clipPath>
</defs>
</svg>
