<svg width="30" height="29" viewBox="0 0 30 29" fill="none" xmlns="http://www.w3.org/2000/svg">
<path d="M29.179 12.2228C29.0817 11.6133 28.5088 11.1982 27.8994 11.2954C27.2899 11.3926 26.8747 11.9655 26.972 12.575C26.973 12.5817 26.9741 12.5883 26.9753 12.5949C28.1133 19.2938 23.6053 25.6467 16.9064 26.7847C10.2075 27.9226 3.85456 23.4147 2.7166 16.7158C1.57863 10.0169 6.08669 3.66395 12.7855 2.52599C16.9052 1.82619 21.0984 3.26521 23.9202 6.34721L18.9699 7.99654C18.3843 8.19139 18.0676 8.82402 18.2624 9.40963C18.2625 9.40976 18.2625 9.40996 18.2626 9.41009C18.4575 9.9957 19.0901 10.3124 19.6757 10.1176C19.6759 10.1176 19.676 10.1175 19.6761 10.1175L26.3808 7.88261C26.8373 7.73058 27.1453 7.30335 27.1452 6.82217V0.117471C27.1452 -0.499701 26.6449 -1 26.0277 -1C25.4106 -1 24.9103 -0.499701 24.9103 0.117471V4.19948C19.1555 -1.27402 10.0531 -1.04596 4.57964 4.70881C-0.893857 10.4636 -0.665871 19.5659 5.08897 25.0395C10.8438 30.5131 19.9461 30.285 25.4197 24.5302C28.5408 21.2485 29.9338 16.6884 29.179 12.2228Z" fill="white"/>
</svg>
