<svg width="128" height="128" viewBox="0 0 128 128" fill="none" xmlns="http://www.w3.org/2000/svg">
<circle opacity="0.2" cx="64" cy="64" r="64" fill="#FFC315"/>
<path d="M96.0125 71.1986V59.4558C96.0125 58.9665 95.85 58.4773 95.3625 58.1511C95.0375 57.8249 94.55 57.6618 94.0625 57.8249C90.65 58.4773 87.725 58.9665 84.8 59.4558C82.3625 59.782 79.925 60.2713 77.8125 60.7606C79.925 57.1725 81.225 52.7689 81.225 48.2023C81.225 36.4595 73.5875 27 64.1625 27C54.7375 27 47.1 36.4595 47.1 48.2023C47.1 52.7689 48.2375 57.1725 50.5125 60.7606C48.2375 60.2713 45.9625 59.9451 43.525 59.4558C40.6 58.9665 37.675 58.4773 34.2625 57.8249C33.775 57.6618 33.2875 57.8249 32.9625 58.1511C32.6375 58.4773 32.3125 58.9665 32.3125 59.4558V71.1986C28.0875 71.3617 25 75.4391 25 80.495C25 85.551 28.0875 89.6283 31.9875 89.7914V94.6843C31.9875 95.4997 32.475 96.1521 33.2875 96.3152C36.7 96.9676 39.95 97.4569 42.7125 97.9462C51.1625 99.2509 57.175 100.393 63.025 104.633C63.675 105.122 64.325 105.122 64.975 104.633C70.825 100.229 76.8375 99.2509 85.2875 97.9462C88.05 97.4569 91.3 96.9676 94.7125 96.3152C95.525 96.1521 96.0125 95.4997 96.0125 94.6843V89.7914C99.9125 89.6283 103 85.551 103 80.495C103 75.4391 99.9125 71.3617 96.0125 71.1986ZM64 30.0988C70.5 30.0988 76.025 36.1333 77.4875 43.9618C74.2375 43.6357 71.8 41.0261 70.5 38.7428C69.85 37.7642 68.875 37.1119 67.7375 37.275C66.6 37.275 65.625 37.9273 64.975 38.9059C62.7 43.1464 54.7375 44.4511 50.35 44.6142C51.65 36.4595 57.175 30.0988 64 30.0988ZM32.3125 86.6926C30.0375 86.6926 28.25 83.92 28.25 80.495C28.25 77.2331 30.0375 74.2974 32.3125 74.2974C33.9375 74.4605 35.4 75.4391 36.2125 79.0272V79.1903C36.5375 83.92 34.9125 86.0403 32.3125 86.6926ZM62.375 100.393C56.6875 96.9676 50.675 95.989 43.2 94.8474C40.6 94.3581 38.1625 94.0319 35.2375 93.3795V88.976L35.4 88.8129C40.275 85.0617 40.7625 79.1903 37.5125 73.8082C37.5125 73.482 35.4 71.6879 35.2375 71.851V61.2499C38 61.7392 40.4375 62.2284 42.7125 62.5546C50.8375 63.8594 56.6875 64.838 62.375 68.7522V100.393ZM64 65.9796C61.2375 64.0225 58.3125 62.7177 55.225 61.7392C51.975 58.3142 50.1875 53.2582 50.1875 47.8761C53.925 47.713 64.4875 46.5714 67.7375 40.3738C70.3375 44.6142 73.9125 46.8975 77.8125 47.0606C77.8125 47.2237 77.8125 47.5499 77.8125 47.713C77.8125 53.0951 76.025 58.1511 72.775 61.5761C69.6875 62.8808 66.7625 64.1856 64 65.9796ZM92.7625 93.5426C89.8375 94.0319 87.2375 94.5212 84.8 95.0105C77.4875 96.1521 71.3125 97.1307 65.625 100.556V68.9153C71.3125 65.001 77.1625 64.0225 85.2875 62.7177C87.5625 62.3915 90 61.9022 92.7625 61.413V72.0141C92.7625 72.0141 92.6 72.0141 92.6 72.1772C92.4375 72.3403 90.8125 73.6451 90.8125 73.8082C89.35 75.7653 88.5375 77.8855 88.5375 80.495C88.7 84.4093 89.8375 87.345 92.925 89.3021V93.5426H92.7625ZM95.6875 86.6926C94.0625 86.5295 92.925 85.551 92.275 83.7569C90.4875 79.1903 92.7625 74.6236 95.6875 74.4605C97.9625 74.4605 99.75 77.2331 99.75 80.6581C99.75 83.7569 97.9625 86.6926 95.6875 86.6926Z" fill="#FFC315"/>
<circle cx="88.4742" cy="45.6754" r="19.025" fill="#FFC315" stroke="#F3ECFC" stroke-width="5"/>
<path d="M95.5751 36.8972C95.2917 36.6128 94.955 36.3872 94.5842 36.2332C94.2135 36.0793 93.8159 36 93.4145 36C93.013 36 92.6155 36.0793 92.2447 36.2332C91.8739 36.3872 91.5372 36.6128 91.2538 36.8972L79.8812 48.2785C79.7237 48.4417 79.6253 48.6529 79.6016 48.8785L79.0067 53.8662C78.9902 54.0092 79.0042 54.1541 79.0478 54.2913C79.0914 54.4285 79.1637 54.5549 79.2598 54.6621C79.356 54.7693 79.4737 54.8548 79.6054 54.9131C79.737 54.9713 79.8796 55.0009 80.0235 55H80.143L85.1227 54.4C85.3495 54.3735 85.5608 54.2715 85.7226 54.1102L97.1028 42.7391C97.3872 42.4557 97.6128 42.119 97.7668 41.7482C97.9207 41.3773 98 40.9798 98 40.5783C98 40.1768 97.9207 39.7792 97.7668 39.4084C97.6128 39.0376 97.3872 38.7009 97.1028 38.4175L95.5751 36.8972ZM84.5355 52.4324L81.1776 52.8239L81.5716 49.4657L89.8405 41.1935L92.8069 44.1602L84.5355 52.4324ZM95.6641 41.3003L94.2431 42.7213L91.2792 39.7572L92.7002 38.3361C92.7946 38.2416 92.9068 38.1666 93.0302 38.1154C93.1536 38.0642 93.2859 38.0379 93.4196 38.0379C93.5532 38.0379 93.6855 38.0642 93.8089 38.1154C93.9324 38.1666 94.0445 38.2416 94.1389 38.3361L95.6641 39.8614C95.7586 39.9558 95.8336 40.068 95.8848 40.1914C95.936 40.3149 95.9623 40.4472 95.9623 40.5808C95.9623 40.7145 95.936 40.8468 95.8848 40.9702C95.8336 41.0937 95.7586 41.2058 95.6641 41.3003Z" fill="white"/>
</svg>
