<svg width="128" height="128" viewBox="0 0 128 128" fill="none" xmlns="http://www.w3.org/2000/svg">
<circle opacity="0.05" cx="64" cy="64" r="64" fill="#8946DF"/>
<path d="M44.0224 40.366C37.3797 40.366 31.9756 46.0958 31.9756 53.1388C31.9756 60.1817 37.3797 65.9116 44.0224 65.9116C50.6651 65.9116 56.0693 60.1817 56.0693 53.1388C56.0693 46.0958 50.6652 40.366 44.0224 40.366Z" fill="#8946DF"/>
<path d="M71.4114 42.1936C71.3842 42.1936 71.3566 42.1937 71.3294 42.1939C68.5417 42.2169 65.9378 43.394 63.9975 45.5084C62.0912 47.5855 61.0547 50.3257 61.0785 53.224C61.1025 56.1223 62.1842 58.8449 64.1243 60.8904C66.0798 62.9518 68.6702 64.0838 71.427 64.0838C71.4547 64.0838 71.4824 64.0837 71.5103 64.0836C74.298 64.0605 76.9019 62.8833 78.8422 60.769C80.7485 58.6919 81.785 55.9518 81.7611 53.0533C81.7115 47.0471 77.0767 42.1936 71.4114 42.1936Z" fill="#8946DF"/>
<path d="M71.9189 66.175H70.9186C67.12 66.175 63.5922 67.3526 60.679 69.3612C59.6509 70.07 59.7161 71.5477 60.623 72.4063C60.7807 72.5556 60.9367 72.7073 61.0908 72.8614C63.228 74.9987 64.9064 77.4892 66.0795 80.2632C66.889 82.1765 67.4324 84.1684 67.7056 86.2141C67.8465 87.2691 68.715 88.1046 69.7793 88.1046H87.9993C89.1039 88.1046 89.9993 87.2092 89.9993 86.1046V84.2542C89.9993 74.2858 81.8885 66.175 71.9189 66.175Z" fill="#8946DF"/>
<path d="M64.0061 88.1046C63.6413 82.2278 60.6622 77.0586 56.2163 73.7457C52.982 71.3352 48.9704 69.9082 44.625 69.9082H43.421C32.6947 69.9083 24 78.6029 24 89.3292C24 90.6022 25.0319 91.6341 26.3048 91.6341H61.7399C63.0128 91.6341 64.0447 90.6022 64.0447 89.3292C64.0447 88.918 64.0318 88.5094 64.0061 88.1046Z" fill="#8946DF"/>
<circle cx="88.4742" cy="45.675" r="19.025" fill="#38B21A" stroke="#F3ECFC" stroke-width="5"/>
<path d="M89.9972 43.2656C89.9972 42.6184 90.5218 42.0938 91.1691 42.0938C91.8163 42.0938 92.3409 42.6184 92.3409 43.2656V44.0469C92.3409 43.3996 92.8656 42.875 93.5128 42.875C94.1601 42.875 94.6847 43.3996 94.6847 44.0469V47.975C94.6847 51.0738 93.1222 51.0355 93.1222 53.8125V54.8281C93.1222 55.2598 92.7726 55.6094 92.3409 55.6094H86.8722C86.4406 55.6094 86.0909 55.2598 86.0909 54.8281V53.8125C86.0909 51.7531 85.687 52.5891 81.5538 46.9582C81.0824 46.3156 81.3413 45.4 82.0808 45.1039C82.5347 44.9227 83.0527 45.0297 83.3972 45.3766L85.3097 47.302V37.5625C85.3097 36.9152 85.8343 36.3906 86.4816 36.3906C87.1288 36.3906 87.6534 36.9152 87.6534 37.5625V42.4844C87.6534 41.8371 88.1781 41.3125 88.8253 41.3125C89.4726 41.3125 89.9972 41.8371 89.9972 42.4844V43.2656Z" fill="white"/>
<path d="M93.1221 47.9531C93.3377 47.9531 93.5127 47.7781 93.5127 47.5625C93.5127 47.3469 93.3377 47.1719 93.1221 47.1719C92.9064 47.1719 92.7314 47.3469 92.7314 47.5625C92.7314 47.7781 92.9064 47.9531 93.1221 47.9531Z" fill="#38B21A"/>
<path d="M91.558 53.42C91.7725 53.4415 91.9641 53.2848 91.9854 53.07C92.1039 51.8803 92.4946 51.1563 92.8391 50.518C93.0583 50.1127 93.2653 49.73 93.3878 49.2105C93.4374 49.0005 93.3073 48.7901 93.0973 48.7406C92.8872 48.6911 92.6769 48.8212 92.6274 49.0312C92.5288 49.4496 92.3625 49.7571 92.1518 50.1467C91.791 50.8151 91.342 51.6471 91.208 52.9927C91.1867 53.2073 91.3434 53.3987 91.558 53.42Z" fill="#38B21A"/>
</svg>
