<svg width="55" height="55" viewBox="0 0 55 55" fill="none" xmlns="http://www.w3.org/2000/svg">
<path d="M16.6855 6.13867C11.1499 6.13867 6.64648 10.9136 6.64648 16.7827C6.64648 22.6518 11.1499 27.4267 16.6855 27.4267C22.221 27.4267 26.7246 22.6518 26.7246 16.7827C26.7246 10.9136 22.2212 6.13867 16.6855 6.13867Z" fill="#8946DF"/>
<path d="M46 23.5L31 23.5" stroke="#59CDFF" stroke-width="4" stroke-linecap="round"/>
<path d="M38.5 16V31" stroke="#59CDFF" stroke-width="4" stroke-linecap="round"/>
<path d="M33.3384 45.9205C33.0344 41.0231 30.5519 36.7155 26.8469 33.9548C24.1517 31.946 20.8087 30.7568 17.1875 30.7568H16.1842C7.24561 30.7569 0 38.0024 0 46.941C0 48.0018 0.859928 48.8617 1.9207 48.8617H31.4499C32.5107 48.8617 33.3706 48.0018 33.3706 46.941C33.3706 46.5983 33.3599 46.2578 33.3384 45.9205Z" fill="#8946DF"/>
</svg>
