<svg width="39" height="36" viewBox="0 0 39 36" fill="none" xmlns="http://www.w3.org/2000/svg">
<path d="M28.9192 31.305L25.4788 23.9272C23.5792 26.6933 20.6131 28.6629 17.1797 29.2602L20.0597 35.436C20.4279 36.2263 21.5674 36.1735 21.864 35.3574L23.3401 31.3025L23.6443 31.1606L27.6993 32.6368C28.513 32.9354 29.287 32.0921 28.9192 31.305Z" fill="#8946DF"/>
<path d="M15 6C9.07109 6 4.24707 10.8237 4.24707 16.7529C4.24707 22.6821 9.07115 27.5058 15 27.5058C20.9288 27.5058 25.7528 22.6821 25.7528 16.7529C25.7528 10.8237 20.9289 6 15 6ZM20.232 15.9628L18.3253 17.8215L18.7759 20.4468C18.9137 21.2483 18.0692 21.8504 17.3573 21.4771L15 20.238L12.6427 21.4771C11.9268 21.853 11.0871 21.2437 11.2241 20.4467L11.6747 17.8215L9.76801 15.9628C9.18852 15.3978 9.51014 14.4116 10.3097 14.2954L12.9451 13.9126L14.1237 11.5247C14.4804 10.7996 15.5194 10.7989 15.8765 11.5247L17.0551 13.9126L19.6905 14.2954C20.49 14.4115 20.8115 15.3978 20.232 15.9628Z" fill="#8946DF"/>
<path d="M4.521 23.9272L1.08061 31.305C0.711176 32.0958 1.49211 32.9345 2.30059 32.6366L6.35551 31.1605L6.65973 31.3023L8.13588 35.3573C8.43184 36.1717 9.5712 36.2278 9.94016 35.4359L12.8202 29.2601C9.38674 28.6629 6.42073 26.6933 4.521 23.9272Z" fill="#8946DF"/>
<circle cx="28.5" cy="10.5" r="9.5" fill="#8946DF" stroke="white" stroke-width="2"/>
<g clip-path="url(#clip0)">
<path d="M31.4375 10.6579C31.3374 10.5528 31.2159 10.5003 31.0728 10.5003H27.1268V8.69885C27.1268 8.30096 27.2608 7.96135 27.5289 7.67986C27.797 7.39842 28.1205 7.25767 28.4994 7.25767C28.8783 7.25767 29.2018 7.3984 29.4698 7.67986C29.7379 7.96135 29.872 8.30098 29.872 8.69885C29.872 8.7964 29.9059 8.88083 29.9738 8.95213C30.0418 9.02345 30.1222 9.05912 30.215 9.05912H30.5583C30.6512 9.05912 30.7316 9.02345 30.7996 8.95213C30.8673 8.88083 30.9014 8.7964 30.9014 8.69885C30.9014 8.00446 30.6664 7.41064 30.1964 6.91708C29.7263 6.42349 29.1607 6.17676 28.4994 6.17676C27.8381 6.17676 27.2725 6.42349 26.8024 6.91706C26.3324 7.41056 26.0974 8.00444 26.0974 8.69883V10.5003H25.9258C25.7829 10.5003 25.6613 10.5529 25.5613 10.6579C25.4612 10.7629 25.4111 10.8905 25.4111 11.0407V14.2834C25.4111 14.4336 25.4612 14.5612 25.5613 14.6662C25.6613 14.7712 25.7829 14.8238 25.9258 14.8238H31.0728C31.2159 14.8238 31.3375 14.7712 31.4375 14.6662C31.5375 14.5612 31.5876 14.4336 31.5876 14.2834V11.0407C31.5877 10.8906 31.5376 10.763 31.4375 10.6579Z" fill="white"/>
</g>
<defs>
<clipPath id="clip0">
<rect width="9.88235" height="9.88235" fill="white" transform="matrix(-1 0 0 1 32.8232 4.94141)"/>
</clipPath>
</defs>
</svg>
