<svg width="40" height="34" viewBox="0 0 40 34" fill="none" xmlns="http://www.w3.org/2000/svg">
<g clip-path="url(#clip0)">
<path d="M4.74204 6.6582C4.7412 6.6582 4.74026 6.6582 4.73943 6.6582C4.44623 6.6582 4.17047 6.7725 3.96223 6.98021C3.75171 7.19021 3.63574 7.46984 3.63574 7.76753V24.4016C3.63574 25.0116 4.13394 25.5091 4.74642 25.5107C7.32851 25.5168 11.6545 26.055 14.6389 29.1781V11.77C14.6389 11.5632 14.5861 11.369 14.4864 11.2082C12.037 7.26359 7.32997 6.66426 4.74204 6.6582Z" fill="#A5A5A5"/>
<path d="M27.3644 24.4017V7.76753C27.3644 7.46984 27.2484 7.19021 27.0379 6.98021C26.8297 6.7725 26.5537 6.6582 26.2608 6.6582C26.2599 6.6582 26.2589 6.6582 26.2581 6.6582C23.6703 6.66436 18.9632 7.2637 16.5137 11.2083C16.414 11.3691 16.3613 11.5633 16.3613 11.7701V29.1781C19.3457 26.055 23.6717 25.5168 26.2538 25.5106C26.8662 25.5091 27.3644 25.0116 27.3644 24.4017Z" fill="#A5A5A5"/>
<path d="M29.8914 10.4946H29.0871V24.402C29.0871 25.9594 27.8182 27.2294 26.2584 27.2332C24.0682 27.2384 20.457 27.6667 17.8994 30.0873C22.3227 29.0043 26.9857 29.7083 29.6431 30.3139C29.9749 30.3895 30.3178 30.3114 30.5837 30.0995C30.8486 29.8882 31.0006 29.5722 31.0006 29.2331V11.6037C31.0007 10.9922 30.503 10.4946 29.8914 10.4946Z" fill="#A5A5A5"/>
<path d="M1.91345 24.402V10.4946H1.10911C0.497672 10.4946 0 10.9922 0 11.6037V29.2328C0 29.572 0.151974 29.8879 0.416884 30.0992C0.682524 30.311 1.02509 30.3894 1.35743 30.3136C4.01488 29.7079 8.67794 29.004 13.101 30.087C10.5436 27.6665 6.93233 27.2383 4.74218 27.2331C3.18247 27.2294 1.91345 25.9594 1.91345 24.402Z" fill="#A5A5A5"/>
</g>
<circle cx="29.5" cy="10.5" r="9.5" fill="#A5A5A5" stroke="white" stroke-width="2"/>
<path d="M33.001 10.4995L26.001 10.4995" stroke="white" stroke-width="2" stroke-linecap="round"/>
<path d="M29.5 6.99951V13.9995" stroke="white" stroke-width="2" stroke-linecap="round"/>
<defs>
<clipPath id="clip0">
<rect width="31" height="31" fill="white" transform="translate(0 3)"/>
</clipPath>
</defs>
</svg>
