<svg width="42" height="38" viewBox="0 0 42 38" fill="none" xmlns="http://www.w3.org/2000/svg">
<g clip-path="url(#clip0)">
<path d="M4.04228 10.9014C4.04228 10.2831 3.57565 9.78174 2.99966 9.78174C2.42366 9.78174 1.95703 10.2831 1.95703 10.9014C1.95703 11.5196 2.42366 12.0207 2.99966 12.0207C3.57565 12.0207 4.04228 11.5196 4.04228 10.9014Z" fill="#FFC315"/>
<path d="M0 33.3304C0 34.4004 0.818934 35.2374 1.82539 35.2374H31.1743C32.1808 35.2374 33 34.4004 33 33.3304V15.0044H0V33.3304ZM6.34615 18.6394C6.34615 18.3507 6.60688 18.1401 6.89561 18.1401H13.5853C13.8399 18.1366 14.0931 18.1778 14.3337 18.2618L16.1089 18.897C16.3612 18.9897 16.6382 18.9906 16.8914 18.8999L18.6666 18.2603C18.9069 18.1766 19.1604 18.1361 19.415 18.1401H26.1044C26.3931 18.1401 26.6538 18.3507 26.6538 18.6394V30.9567C26.6433 31.2553 26.403 31.4948 26.1044 31.5044H19.4147C19.282 31.5003 19.1496 31.5199 19.0236 31.5616L17.2484 32.1953C16.7651 32.3712 16.2358 32.3729 15.7514 32.2L13.9764 31.561C13.8504 31.5193 13.718 31.5 13.5853 31.5044H6.89561C6.59697 31.4948 6.35665 31.2553 6.34615 30.9567V18.6394Z" fill="#FFC315"/>
<path d="M14.3339 30.5789L15.9776 31.1639V19.9436C15.9012 19.9272 15.8259 19.9068 15.7518 19.8826L13.9766 19.2428C13.8506 19.201 13.7182 19.1815 13.5855 19.1856H7.3916V30.4593H13.5852C13.8398 30.455 14.0933 30.4955 14.3339 30.5789Z" fill="#FFC315"/>
<path d="M19.4148 30.4593H25.6084V19.1856H19.4148C19.2821 19.1815 19.1494 19.201 19.0234 19.2428L17.2485 19.8765C17.1744 19.903 17.0989 19.9255 17.0225 19.9439V31.1639L18.6662 30.5786C18.9068 30.4955 19.1602 30.455 19.4148 30.4593ZM19.0972 20.9774H21.2303C21.5187 20.9774 21.7529 21.2113 21.7529 21.5001C21.7529 21.7888 21.5187 22.0227 21.2303 22.0227H19.0972C18.8085 22.0227 18.5746 21.7888 18.5746 21.5001C18.5746 21.2113 18.8085 20.9774 19.0972 20.9774ZM19.0972 23.1426H23.7451C24.0339 23.1426 24.2678 23.3765 24.2678 23.6652C24.2678 23.9539 24.0339 24.1878 23.7451 24.1878H19.0972C18.8085 24.1878 18.5746 23.9539 18.5746 23.6652C18.5746 23.3765 18.8085 23.1426 19.0972 23.1426ZM19.0972 25.3824H23.7451C24.0339 25.3824 24.2678 25.6163 24.2678 25.905C24.2678 26.1938 24.0339 26.4277 23.7451 26.4277H19.0972C18.8085 26.4277 18.5746 26.1938 18.5746 25.905C18.5746 25.6163 18.8085 25.3824 19.0972 25.3824ZM19.0972 27.5476H23.7451C24.0339 27.5476 24.2678 27.7815 24.2678 28.0702C24.2678 28.3589 24.0339 28.5928 23.7451 28.5928H19.0972C18.8085 28.5928 18.5746 28.3589 18.5746 28.0702C18.5746 27.7815 18.8085 27.5476 19.0972 27.5476Z" fill="#FFC315"/>
<path d="M14.2164 10.9014C14.2164 10.2831 13.7495 9.78174 13.1738 9.78174C12.5978 9.78174 12.1309 10.2831 12.1309 10.9014C12.1309 11.5196 12.5978 12.0207 13.1738 12.0207C13.7495 12.0207 14.2164 11.5196 14.2164 10.9014Z" fill="#FFC315"/>
<path d="M8.08657 9.78174C7.51174 9.78174 7.04395 10.2839 7.04395 10.9014C7.04395 11.5185 7.51174 12.0207 8.08657 12.0207C8.66169 12.0207 9.12949 11.5185 9.12949 10.9014C9.12949 10.2839 8.66169 9.78174 8.08657 9.78174Z" fill="#FFC315"/>
<path d="M31.1743 7.76221H1.82539C0.818934 7.76221 0 8.59922 0 9.66926V13.959H33V9.66926C33 8.59922 32.1808 7.76221 31.1743 7.76221ZM2.99926 13.0654C1.84814 13.0654 0.911385 12.0943 0.911385 10.9009C0.911385 9.70717 1.84814 8.736 2.99926 8.736C4.15066 8.736 5.08713 9.70717 5.08713 10.9009C5.08713 12.0943 4.15066 13.0654 2.99926 13.0654ZM8.08639 13.0654C6.93527 13.0654 5.99852 12.0943 5.99852 10.9009C5.99852 9.70717 6.93527 8.736 8.08639 8.736C9.2378 8.736 10.1746 9.70717 10.1746 10.9009C10.1746 12.0943 9.2378 13.0654 8.08639 13.0654ZM13.1738 13.0654C12.0224 13.0654 11.0856 12.0943 11.0856 10.9009C11.0856 9.70717 12.0224 8.736 13.1738 8.736C14.3249 8.736 15.2617 9.70717 15.2617 10.9009C15.2617 12.0943 14.3249 13.0654 13.1738 13.0654Z" fill="#FFC315"/>
</g>
<circle cx="31.5" cy="10.5" r="9.5" fill="#FFC315" stroke="white" stroke-width="2"/>
<g clip-path="url(#clip1)">
<path d="M33.1007 9.89806C32.9823 9.77891 32.8509 9.67328 32.7092 9.58312C32.3336 9.34264 31.897 9.21485 31.451 9.21485C30.8321 9.2137 30.2382 9.45963 29.8013 9.89806L27.6817 12.0193C27.2455 12.4564 27.0004 13.0485 27 13.6659C26.9992 14.9543 28.043 15.9995 29.3314 16.0003C29.9494 16.0024 30.5427 15.7577 30.9795 15.3204L32.7291 13.5707C32.7609 13.5392 32.7787 13.4962 32.7784 13.4514C32.7779 13.3594 32.7029 13.2852 32.6108 13.2858H32.5442C32.1786 13.2871 31.8163 13.2169 31.4777 13.0792C31.4153 13.0535 31.3436 13.068 31.2961 13.1158L30.038 14.3756C29.6473 14.7662 29.0139 14.7662 28.6232 14.3756C28.2326 13.9849 28.2326 13.3515 28.6232 12.9608L30.7512 10.8346C31.1415 10.4447 31.7739 10.4447 32.1643 10.8346C32.4273 11.0821 32.8377 11.0821 33.1008 10.8346C33.2139 10.7213 33.2826 10.571 33.2941 10.4113C33.3062 10.2204 33.2358 10.0335 33.1007 9.89806Z" fill="#FFFBFB"/>
<path d="M36.3156 6.68333C35.4045 5.77222 33.9273 5.77222 33.0162 6.68333L31.2681 8.42968C31.2201 8.47791 31.2063 8.55046 31.2332 8.61299C31.2597 8.67569 31.3217 8.71594 31.3898 8.71463H31.4514C31.8166 8.71396 32.1783 8.78471 32.5162 8.92293C32.5786 8.94861 32.6503 8.93412 32.6979 8.88628L33.9526 7.63316C34.3433 7.24249 34.9767 7.24249 35.3674 7.63316C35.7581 8.02383 35.7581 8.65723 35.3674 9.04791L33.8043 10.6093L33.791 10.6243L33.2444 11.1675C32.8541 11.5574 32.2217 11.5574 31.8313 11.1675C31.5683 10.9199 31.1579 10.9199 30.8949 11.1675C30.781 11.2817 30.7123 11.4332 30.7016 11.5941C30.6894 11.785 30.7598 11.9719 30.8949 12.1074C31.0877 12.3011 31.3134 12.459 31.5614 12.5739C31.5964 12.5906 31.6314 12.6039 31.6664 12.6189C31.7014 12.6339 31.738 12.6456 31.773 12.6589C31.808 12.6723 31.8447 12.6839 31.8797 12.6939L31.978 12.7206C32.0446 12.7372 32.1113 12.7506 32.1796 12.7622C32.2619 12.7744 32.3448 12.7822 32.4279 12.7856H32.5445H32.5545L32.6545 12.7739C32.6912 12.7722 32.7295 12.7639 32.7728 12.7639H32.8295L32.9445 12.7472L32.9978 12.7372L33.0944 12.7173H33.1128C33.5221 12.6144 33.8959 12.4025 34.1942 12.104L36.3155 9.98274C37.2267 9.07163 37.2267 7.59444 36.3156 6.68333Z" fill="#FFFBFB"/>
</g>
<defs>
<clipPath id="clip0">
<rect width="33" height="33" fill="white" transform="translate(0 5)"/>
</clipPath>
<clipPath id="clip1">
<rect width="10" height="10" fill="white" transform="translate(27 6)"/>
</clipPath>
</defs>
</svg>
